<?xml version="1.0" standalone="no"?>
<!DOCTYPE svg PUBLIC "-//W3C//DTD SVG 1.1//EN" "http://www.w3.org/Graphics/SVG/1.1/DTD/svg11.dtd" >
<svg>
<metadata>
Created by FontForge 20090622 at Wed Jun 24 13:58:22 2020
 By deploy user
Copyright (c) 2019 by MadeType. All rights reserved.
</metadata>
<defs>
<font id="MADEOuterSansAlt-Bold" horiz-adv-x="921" >
  <font-face 
    font-family="MADE Outer Sans Alt"
    font-weight="700"
    font-stretch="normal"
    units-per-em="1000"
    panose-1="2 0 8 5 0 0 0 2 0 4"
    ascent="800"
    descent="-200"
    x-height="700"
    cap-height="700"
    bbox="-90 -233 1598 1013"
    underline-thickness="50"
    underline-position="-50"
    unicode-range="U+0020-U+F6C3"
  />
<missing-glyph horiz-adv-x="260" 
 />
    <glyph glyph-name=".notdef" horiz-adv-x="260" 
 />
    <glyph glyph-name=".null" horiz-adv-x="0" 
 />
    <glyph glyph-name="nonmarkingreturn" horiz-adv-x="333" 
 />
    <glyph glyph-name="space" unicode=" " horiz-adv-x="260" 
 />
    <glyph glyph-name="exclam" unicode="!" horiz-adv-x="306" 
d="M153 202q45 0 76.5 -32t31.5 -76q0 -45 -31.5 -77t-76.5 -32t-76.5 32t-31.5 77q0 44 31.5 76t76.5 32zM238 237h-170l-38 463h246z" />
    <glyph glyph-name="quotedbl" unicode="&#x22;" horiz-adv-x="494" 
d="M59 371l-29 329h190l-28 -329h-133zM275 700h189l-28 -329h-133z" />
    <glyph glyph-name="numbersign" unicode="#" horiz-adv-x="772" 
d="M742 400h-131l-29 -120h109v-123h-140l-39 -157h-146l39 157h-120l-39 -157h-146l40 157h-110v123h140l30 120h-119v123h150l39 157h146l-39 -157h119l40 157h145l-39 -157h100v-123zM436 280l30 120h-120l-30 -120h120z" />
    <glyph glyph-name="dollar" unicode="$" horiz-adv-x="871" 
d="M851 223q0 -116 -91.5 -173t-276.5 -63v-101h-95v101q-368 13 -368 241h249q0 -68 119 -80v116q-32 5 -61 9q-165 25 -227.5 70t-62.5 148q0 214 351 224v98h95v-100q173 -10 248.5 -71t75.5 -155h-242q0 51 -82 64v-114q179 -18 242 -40q103 -36 121 -125q5 -22 5 -49z
M273 502q0 -24 28.5 -35.5t86.5 -19.5v109q-115 -5 -115 -54zM483 146q113 5 113 53q0 22 -24 32t-89 20v-105z" />
    <glyph glyph-name="percent" unicode="%" horiz-adv-x="1125" 
d="M720 700h131l-445 -700h-132zM490 513q0 -98 -60.5 -149t-169.5 -51t-169.5 51t-60.5 149t60 149.5t170 51.5t170 -51.5t60 -149.5zM260 414q76 0 76 99q0 100 -76 100t-76 -100q0 -99 76 -99zM865 387q109 0 169.5 -51.5t60.5 -149.5t-60.5 -149.5t-169.5 -51.5
t-169.5 51.5t-60.5 149.5t60.5 149.5t169.5 51.5zM865 87q76 0 76 99t-76 99t-76 -99t76 -99z" />
    <glyph glyph-name="ampersand" unicode="&#x26;" horiz-adv-x="948" 
d="M948 0h-257l-51 39q-105 -54 -239 -54q-186 0 -283.5 58t-97.5 164q0 125 180 183q-40 37 -58 68.5t-18 71.5q0 65 45 108t109 59.5t144 16.5t146.5 -16t113.5 -57t47 -102q0 -131 -235 -171q33 -23 59 -45l87 -69q17 46 17 95h183q0 -110 -70 -202zM422 583
q-35 0 -57 -17t-22 -46q0 -34 48 -75q117 19 117 78q0 29 -22.5 44.5t-63.5 15.5zM412 118q58 0 104 16l-183 145l-44 35q-58 -30 -58 -88q0 -52 49.5 -80t131.5 -28z" />
    <glyph glyph-name="quotesingle" unicode="'" horiz-adv-x="249" 
d="M30 700h189l-28 -329h-133z" />
    <glyph glyph-name="parenleft" unicode="(" horiz-adv-x="407" 
d="M387 753q-64 -68 -112 -187t-48 -268q0 -150 48 -269t112 -187h-156q-29 27 -51 50t-54.5 67.5t-53.5 89.5t-36.5 111t-15.5 138q0 71 15.5 137t36.5 111t53.5 89.5t54.5 67.5t51 50h156z" />
    <glyph glyph-name="parenright" unicode=")" horiz-adv-x="407" 
d="M176 753q29 -27 51 -50t54.5 -67.5t53.5 -89.5t36.5 -111t15.5 -137q0 -72 -15.5 -138t-36.5 -111t-53.5 -89.5t-54.5 -67.5t-51 -50h-156q64 68 112 187t48 269q0 149 -48 268t-112 187h156z" />
    <glyph glyph-name="asterisk" unicode="*" horiz-adv-x="456" 
d="M436 500l-119 -26l81 -92l-108 -78l-62 106l-62 -106l-107 78l81 92l-120 26l41 127l112 -49l-11 122h132l-11 -122l112 49z" />
    <glyph glyph-name="plus" unicode="+" horiz-adv-x="579" 
d="M529 391v-143h-168v-168h-142v168h-169v143h169v168h142v-168h168z" />
    <glyph glyph-name="comma" unicode="," horiz-adv-x="278" 
d="M60 147h198l-96 -239h-142z" />
    <glyph glyph-name="hyphen" unicode="-" horiz-adv-x="475" 
d="M50 353h375v-143h-375v143z" />
    <glyph glyph-name="period" unicode="." horiz-adv-x="277" 
d="M138 202q45 0 77 -32t32 -76q0 -45 -32 -77t-77 -32t-76.5 32t-31.5 77q0 44 31.5 76t76.5 32z" />
    <glyph glyph-name="slash" unicode="/" horiz-adv-x="520" 
d="M337 738h173l-327 -776h-173z" />
    <glyph glyph-name="zero" unicode="0" horiz-adv-x="819" 
d="M409 714q79 0 145 -20t120 -61.5t84.5 -113.5t30.5 -169t-30.5 -169.5t-84.5 -114t-120 -61.5t-145 -20t-145 20t-119.5 61.5t-84 114t-30.5 169.5t30.5 169t84 113.5t119.5 61.5t145 20zM409 136q158 0 158 214t-158 214t-158 -214t158 -214z" />
    <glyph glyph-name="one" unicode="1" horiz-adv-x="467" 
d="M258 700h159v-700h-218v512l-169 -105v151z" />
    <glyph glyph-name="two" unicode="2" horiz-adv-x="777" 
d="M271 151h476v-151h-727q3 84 32 148t73.5 101.5t97.5 65t105.5 45t96 34t70.5 39.5t27 55q0 83 -121 83q-119 0 -131 -91h-220q7 117 103.5 175.5t250.5 58.5q67 0 124 -11.5t106 -36t77.5 -70t28.5 -107.5q0 -66 -28.5 -113t-72.5 -71t-99.5 -43.5t-106 -30.5t-96 -31.5
t-66.5 -48.5z" />
    <glyph glyph-name="three" unicode="3" horiz-adv-x="787" 
d="M615 376q152 -39 152 -163q0 -65 -28.5 -111t-82 -71t-117 -35.5t-145.5 -10.5q-367 0 -374 226h220q6 -43 47 -59t113 -16q70 0 107.5 18t37.5 66q0 46 -30.5 60t-95.5 14h-136v143h136q100 0 100 66q0 37 -31.5 52.5t-96.5 15.5q-29 0 -47.5 -2t-37.5 -8t-30 -19
t-15 -34h-220q15 206 353 206q60 0 107 -5t91.5 -18t74.5 -34t47.5 -56t17.5 -81q0 -98 -117 -144z" />
    <glyph glyph-name="four" unicode="4" horiz-adv-x="813" 
d="M793 264v-142h-124v-122h-218v122h-431v152l373 426h276v-436h124zM227 264h224v262z" />
    <glyph glyph-name="five" unicode="5" horiz-adv-x="768" 
d="M435 473q62 0 113.5 -10.5t98.5 -34.5t74 -72t27 -115q0 -70 -31.5 -122t-86 -80t-116.5 -41t-134 -13q-91 0 -168 23t-130.5 73t-61.5 120h220q27 -65 147 -65q69 0 104 27.5t35 78.5q0 102 -139 102q-92 0 -142 -46h-197l59 402h592v-152h-432l-18 -122q85 47 186 47z
" />
    <glyph glyph-name="six" unicode="6" horiz-adv-x="799" 
d="M438 463q156 0 248.5 -54.5t92.5 -172.5q0 -251 -360 -251q-389 0 -389 365q0 83 21.5 147t57 104t86.5 66t105.5 36.5t118.5 10.5q62 0 118 -10t107 -32t83.5 -62.5t37.5 -95.5h-226q-22 50 -120 50q-82 0 -121 -42.5t-45 -129.5q61 71 185 71zM419 136q73 0 106 24.5
t33 75.5q0 95 -130 95q-76 0 -116 -19.5t-40 -75.5q0 -57 37 -78.5t110 -21.5z" />
    <glyph glyph-name="seven" unicode="7" horiz-adv-x="748" 
d="M20 700h708v-152l-40.5 -33l-48.5 -40.5t-49.5 -47t-53 -58.5t-48 -68.5t-44.5 -84t-34 -99t-24 -117.5h-240q5 64 24.5 125.5t44 109t61.5 94.5t66 77t68.5 63.5t58 46.5l45.5 32h-494v152z" />
    <glyph glyph-name="eight" unicode="8" horiz-adv-x="826" 
d="M664 378q139 -41 142 -171q-1 -54 -23.5 -94.5t-58 -64.5t-88 -38.5t-105.5 -19.5t-118 -5t-118 5t-105.5 19.5t-88 38.5t-58 64.5t-23.5 94.5q3 130 142 171q-104 40 -104 133q1 101 92.5 152t262.5 51t262.5 -51t92.5 -152q0 -93 -104 -133zM413 573q-72 0 -107.5 -17
t-35.5 -57q0 -69 143 -69t143 69q0 40 -35.5 57t-107.5 17zM413 136q80 0 121 16.5t41 64.5q0 49 -41.5 70t-120.5 21t-120.5 -21t-41.5 -70q0 -48 41 -64.5t121 -16.5z" />
    <glyph glyph-name="nine" unicode="9" horiz-adv-x="799" 
d="M380 714q389 0 389 -364q0 -103 -31.5 -176.5t-88 -113.5t-122.5 -57.5t-147 -17.5q-62 0 -118 10t-107 32t-83.5 63t-37.5 96h226q21 -50 120 -50q82 0 121 42t45 130q-62 -72 -185 -72q-156 0 -248.5 54.5t-92.5 172.5q0 251 360 251zM371 368q76 0 116 19.5t40 75.5
q0 57 -37.5 79t-109.5 22q-73 0 -106 -25t-33 -76q0 -95 130 -95z" />
    <glyph glyph-name="colon" unicode=":" horiz-adv-x="277" 
d="M138 202q45 0 77 -32t32 -76q0 -45 -32 -77t-77 -32q-44 0 -76 32t-32 77q0 44 32 76t76 32zM138 331q-44 0 -76 31.5t-32 76.5t32 76.5t76 31.5q45 0 77 -31.5t32 -76.5t-32 -76.5t-77 -31.5z" />
    <glyph glyph-name="semicolon" unicode=";" horiz-adv-x="283" 
d="M155 331q-45 0 -77 31.5t-32 76.5t32 76.5t77 31.5t76.5 -31.5t31.5 -76.5t-31.5 -76.5t-76.5 -31.5zM20 -92l40 239h198l-96 -239h-142z" />
    <glyph glyph-name="less" unicode="&#x3c;" horiz-adv-x="579" 
d="M529 584v-143l-301 -122l301 -121v-143l-479 206v117z" />
    <glyph glyph-name="equal" unicode="=" horiz-adv-x="579" 
d="M50 485h479v-142h-479v142zM50 153v143h479v-143h-479z" />
    <glyph glyph-name="greater" unicode="&#x3e;" horiz-adv-x="579" 
d="M50 584l479 -206v-117l-479 -206v143l301 121l-301 122v143z" />
    <glyph glyph-name="question" unicode="?" horiz-adv-x="722" 
d="M354 714q76 0 134.5 -9t109 -30.5t77.5 -63t27 -100.5q0 -55 -26.5 -92t-64 -55.5t-75.5 -34t-64.5 -37.5t-26.5 -55h-198q0 56 24.5 94t59.5 56t69.5 32.5t59 35t24.5 50.5q0 66 -124 66q-116 0 -120 -99h-220q9 127 94 184.5t240 57.5zM349 202q45 0 76.5 -32t31.5 -76
q0 -45 -31.5 -77t-76.5 -32t-76.5 32t-31.5 77q0 44 31.5 76t76.5 32z" />
    <glyph glyph-name="at" unicode="@" horiz-adv-x="1106" 
d="M565 733q147 0 265 -49.5t187 -145.5t69 -222q0 -152 -66 -224t-160 -72q-131 0 -165 91q-59 -99 -181 -99q-103 0 -171.5 63.5t-68.5 174.5q0 112 67 175.5t173 63.5q93 0 152 -61v49h153v-277q0 -45 10.5 -64t40.5 -19q32 0 52.5 32.5t27 72t6.5 85.5q0 109 -54 182.5
t-139.5 105t-197.5 31.5q-187 0 -296.5 -98.5t-109.5 -271.5q0 -170 110.5 -271t303.5 -101q161 0 282 65v-116q-36 -18 -114 -37t-168 -19q-251 0 -402 129.5t-151 349.5q0 221 150.5 349t394.5 128zM554 135q57 0 88 31.5t31 83.5t-31 83.5t-88 31.5t-86 -30.5t-29 -84.5
q0 -53 29.5 -84t85.5 -31z" />
    <glyph glyph-name="A" unicode="A" 
d="M674 0l-45 108h-338l-44 -108h-247l323 700h274l324 -700h-247zM357 270h207l-104 253z" />
    <glyph glyph-name="B" unicode="B" horiz-adv-x="896" 
d="M719 368q147 -38 147 -162q0 -116 -78 -161t-250 -45h-488v700h509q137 0 209 -39.5t72 -140.5q0 -112 -121 -151v-1zM535 538h-248v-113h248q74 0 74 58q0 55 -74 55zM547 161q45 0 62 17t17 48q0 56 -79 56h-260v-121h260z" />
    <glyph glyph-name="C" unicode="C" horiz-adv-x="928" 
d="M467 145q82 0 126.5 35.5t61.5 105.5h243q-12 -79 -51.5 -138.5t-99 -94.5t-129.5 -51.5t-151 -16.5q-89 0 -165 20t-138.5 61.5t-98 114t-35.5 169.5t35.5 169t98 113.5t138.5 61.5t165 20q81 0 151 -16.5t129.5 -51.5t99 -94.5t51.5 -138.5h-243q-17 70 -61.5 105.5
t-126.5 35.5q-98 0 -147.5 -54.5t-49.5 -149.5q0 -96 49.5 -150.5t147.5 -54.5z" />
    <glyph glyph-name="D" unicode="D" horiz-adv-x="895" 
d="M424 700q72 0 130.5 -8t118.5 -31t100.5 -60.5t66 -101.5t25.5 -149t-25.5 -149t-66 -102t-100.5 -60.5t-118.5 -30.5t-130.5 -8h-374v700h374zM371 161q51 0 81.5 2t67.5 12.5t57 30t34 55.5t14 89q0 52 -14 88.5t-34 55.5t-57 29.5t-67.5 12.5t-81.5 2h-84v-377h84z
" />
    <glyph glyph-name="E" unicode="E" horiz-adv-x="790" 
d="M750 161v-161h-700v700h690v-162h-453v-98h425v-162h-425v-117h463z" />
    <glyph glyph-name="F" unicode="F" horiz-adv-x="771" 
d="M741 538h-453v-117h425v-162h-425v-259h-238v700h691v-162z" />
    <glyph glyph-name="G" unicode="G" horiz-adv-x="950" 
d="M917 416q19 -221 -95 -326t-328 -105q-96 0 -177 20t-146.5 61.5t-103 114t-37.5 169.5q0 96 37.5 168.5t102 114t141.5 61.5t165 20q106 0 191 -24.5t149 -81.5t86 -142h-244q-24 44 -67 66t-116 22q-102 0 -153.5 -52t-51.5 -152q0 -99 60.5 -152t164.5 -53
q142 0 180 100h-210v171h452z" />
    <glyph glyph-name="H" unicode="H" horiz-adv-x="925" 
d="M637 700h237v-700h-237v265h-350v-265h-237v700h237v-264h350v264z" />
    <glyph glyph-name="I" unicode="I" horiz-adv-x="338" 
d="M50 700h238v-700h-238v700z" />
    <glyph glyph-name="J" unicode="J" horiz-adv-x="810" 
d="M523 700h237v-386q0 -82 -19.5 -142.5t-50.5 -96t-80 -56t-98.5 -27.5t-114.5 -7q-84 0 -147.5 14t-114.5 46.5t-78 91.5t-27 144v78h227v-66q0 -77 33 -112.5t107 -35.5q69 0 97.5 41t28.5 128v386z" />
    <glyph glyph-name="K" unicode="K" horiz-adv-x="885" 
d="M598 0l-203 289l-108 -96v-193h-237v700h237v-256l281 256h293l-305 -270l319 -430h-277z" />
    <glyph glyph-name="L" unicode="L" horiz-adv-x="771" 
d="M741 161v-161h-691v700h237v-539h454z" />
    <glyph glyph-name="M" unicode="M" horiz-adv-x="1120" 
d="M724 700h346v-700h-237v455l-168 -455h-210l-168 455v-455h-237v700h346l164 -460z" />
    <glyph glyph-name="N" unicode="N" horiz-adv-x="906" 
d="M619 700h237v-700h-251l-318 416v-416h-237v700h251l318 -417v417z" />
    <glyph glyph-name="O" unicode="O" horiz-adv-x="971" 
d="M485 714q71 0 135 -12t123.5 -39.5t102.5 -68.5t69 -103.5t26 -140.5q0 -97 -38.5 -169.5t-105 -114t-145 -61.5t-167.5 -20t-167.5 20t-144.5 61.5t-104.5 114t-38.5 169.5q0 78 25.5 140.5t69 103.5t102.5 68.5t123 39.5t135 12zM485 145q103 0 159 54t56 151
q0 96 -56 150t-159 54q-102 0 -158.5 -54t-56.5 -150t56.5 -150.5t158.5 -54.5z" />
    <glyph glyph-name="P" unicode="P" horiz-adv-x="867" 
d="M547 700q142 0 216 -63.5t74 -173.5q0 -245 -318 -245h-232v-218h-237v700h497zM491 378q105 0 105 85q0 40 -25.5 57.5t-79.5 17.5h-204v-160h204z" />
    <glyph glyph-name="Q" unicode="Q" horiz-adv-x="971" 
d="M941 350q0 -155 -100 -248l100 -102h-227l-18 18q-93 -33 -211 -33q-89 0 -167.5 20t-144.5 61.5t-104.5 114t-38.5 169.5q0 78 25.5 140.5t69 103.5t102.5 68.5t123 39.5t135 12t135 -12t123.5 -39.5t102.5 -68.5t69 -103.5t26 -140.5zM485 145q40 0 78 10l-133 137h226
l29 -30q15 39 15 88q0 96 -56 150t-159 54q-102 0 -158.5 -54t-56.5 -150t56.5 -150.5t158.5 -54.5z" />
    <glyph glyph-name="R" unicode="R" horiz-adv-x="880" 
d="M615 0l-142 227h-186v-227h-237v700h498q143 0 221 -62t78 -170q0 -152 -143 -210l166 -258h-255zM287 538v-151h227q92 0 92 81q0 70 -92 70h-227z" />
    <glyph glyph-name="S" unicode="S" horiz-adv-x="871" 
d="M479 437q49 -5 71 -7.5t63.5 -8.5t60 -11l49.5 -14t45.5 -19t34 -25.5t27.5 -34t14.5 -42.5t6.5 -53q0 -124 -104 -180.5t-314 -56.5q-413 0 -413 242h248q0 -83 178 -83q150 0 150 53q0 26 -30 35.5t-130 23.5l-109 16q-165 25 -228 70t-63 148q0 224 385 224
q207 0 296 -63t89 -165h-241q0 69 -147 69q-74 0 -110 -12.5t-36 -41.5q0 -35 74 -49q24 -4 133 -15z" />
    <glyph glyph-name="T" unicode="T" horiz-adv-x="827" 
d="M797 700v-162h-265v-538h-237v538h-265v162h767z" />
    <glyph glyph-name="U" unicode="U" horiz-adv-x="878" 
d="M591 700h237v-407q0 -79 -22 -136t-56.5 -89.5t-88.5 -51.5t-104.5 -25t-117.5 -6t-117.5 6t-104.5 25t-88.5 51.5t-56.5 89.5t-22 136v407h237v-388q0 -100 36.5 -133.5t115.5 -33.5q78 0 115 33.5t37 133.5v388z" />
    <glyph glyph-name="V" unicode="V" 
d="M674 700h247l-324 -700h-274l-323 700h246l214 -524z" />
    <glyph glyph-name="W" unicode="W" horiz-adv-x="1216" 
d="M969 700h247l-229 -700h-265l-114 421l-115 -421h-265l-228 700h246l129 -471l128 471h209l128 -471z" />
    <glyph glyph-name="X" unicode="X" horiz-adv-x="879" 
d="M576 365l303 -365h-272l-168 224l-167 -224h-272l303 365l-278 335h272l142 -194l142 194h273z" />
    <glyph glyph-name="Y" unicode="Y" horiz-adv-x="885" 
d="M622 700h263l-324 -452v-248h-237v248l-324 452h263l179 -279z" />
    <glyph glyph-name="Z" unicode="Z" horiz-adv-x="846" 
d="M374 161h442v-161h-786v142l433 396h-414v162h758v-143z" />
    <glyph glyph-name="bracketleft" unicode="[" horiz-adv-x="403" 
d="M383 643h-153v-710h153v-142h-353v994h353v-142z" />
    <glyph glyph-name="backslash" unicode="\" horiz-adv-x="520" 
d="M183 738l327 -776h-173l-327 776h173z" />
    <glyph glyph-name="bracketright" unicode="]" horiz-adv-x="403" 
d="M20 785h353v-994h-353v142h153v710h-153v142z" />
    <glyph glyph-name="asciicircum" unicode="^" horiz-adv-x="561" 
d="M541 362h-143l-117 204l-118 -204h-143l188 318h145z" />
    <glyph glyph-name="underscore" unicode="_" horiz-adv-x="758" 
d="M20 -62h718v-94h-718v94z" />
    <glyph glyph-name="grave" unicode="`" horiz-adv-x="404" 
d="M268 705l86 -148h-161l-143 148h218z" />
    <glyph glyph-name="a" unicode="a" 
d="M675 0l-214 523l-148 -362h167v-161h-480l324 700h274l323 -700h-246z" />
    <glyph glyph-name="b" unicode="b" horiz-adv-x="896" 
d="M718 368q148 -37 148 -162q0 -116 -78.5 -161t-250.5 -45h-487v425h484q75 0 75 58q0 26 -16.5 40.5t-58.5 14.5h-484v162h509q137 0 209 -39.5t72 -140.5q0 -112 -122 -151v-1zM546 161q45 0 62 17t17 48q0 27 -17.5 41.5t-61.5 14.5h-259v-121h259z" />
    <glyph glyph-name="c" unicode="c" horiz-adv-x="928" 
d="M461 714q89 0 165 -20t138.5 -61.5t98 -113.5t35.5 -169t-35.5 -169.5t-98 -114t-138.5 -61.5t-165 -20q-81 0 -151 16.5t-129.5 51.5t-99 94.5t-51.5 138.5h243q17 -70 61.5 -105.5t126.5 -35.5q98 0 147 54.5t49 150.5t-49 150t-147 54q-82 0 -126.5 -35.5
t-61.5 -105.5h-243q12 79 51.5 138.5t99 94.5t129.5 51.5t151 16.5z" />
    <glyph glyph-name="d" unicode="d" horiz-adv-x="895" 
d="M424 700q72 0 130.5 -8t118.5 -31t100.5 -60.5t66 -101.5t25.5 -149t-25.5 -149t-66 -102t-100.5 -60.5t-118.5 -30.5t-130.5 -8h-374v411h237v-250h84q51 0 81.5 2t67.5 12.5t57 30t34 55.5t14 89q0 52 -14 88.5t-34 55.5t-57 29.5t-67.5 12.5t-81.5 2h-321v162h374z
" />
    <glyph glyph-name="e" unicode="e" horiz-adv-x="790" 
d="M712 440v-162h-662v162h662zM50 161h700v-161h-700v161zM741 700v-162h-691v162h691z" />
    <glyph glyph-name="f" unicode="f" horiz-adv-x="771" 
d="M50 0v421h662v-162h-425v-259h-237zM50 700h691v-162h-691v162z" />
    <glyph glyph-name="g" unicode="g" horiz-adv-x="953" 
d="M465 416h448v-416h-124l-17 101q-92 -116 -286 -116q-76 0 -142 12t-124.5 39.5t-100 69t-65.5 104t-24 140.5q0 96 37.5 168.5t102 114t141.5 61.5t165 20q164 0 279.5 -58.5t146.5 -179.5h-243q-25 40 -67.5 59t-115.5 19q-102 0 -154 -52t-52 -152q0 -99 61 -152
t165 -53q77 0 125.5 36.5t63.5 82.5h-220v152z" />
    <glyph glyph-name="h" unicode="h" horiz-adv-x="925" 
d="M638 700h237v-700h-237v264h-204v171h204v265zM50 0v700h237v-700h-237z" />
    <glyph glyph-name="i" unicode="i" horiz-adv-x="338" 
d="M50 700h238v-700h-238v700z" />
    <glyph glyph-name="j" unicode="j" horiz-adv-x="810" 
d="M305 700h455v-387q0 -82 -19.5 -142t-50.5 -95.5t-80 -56t-98.5 -27.5t-114.5 -7q-84 0 -147.5 14t-114.5 46.5t-78 91.5t-27 144v78h227v-66q0 -77 33 -112.5t107 -35.5q69 0 97.5 40.5t28.5 127.5v225h-218v162z" />
    <glyph glyph-name="k" unicode="k" horiz-adv-x="885" 
d="M875 0h-306l-282 300v-300h-237v700h237v-297l290 297h284l-345 -333z" />
    <glyph glyph-name="l" unicode="l" horiz-adv-x="771" 
d="M741 161v-161h-691v700h237v-539h454z" />
    <glyph glyph-name="m" unicode="m" horiz-adv-x="1121" 
d="M725 700h346v-700h-237v510l-178 -416h-191l-178 416v-510h-237v700h346l164 -398z" />
    <glyph glyph-name="n" unicode="n" horiz-adv-x="906" 
d="M619 700h237v-700h-251l-318 416v-416h-237v700h251l318 -417v417z" />
    <glyph glyph-name="o" unicode="o" horiz-adv-x="971" 
d="M485 714q71 0 135 -12t123.5 -39.5t102.5 -68.5t69 -103.5t26 -140.5q0 -97 -38.5 -169.5t-105 -114t-145 -61.5t-167.5 -20t-167.5 20t-144.5 61.5t-104.5 114t-38.5 169.5q0 78 25.5 140.5t69 103.5t102.5 68.5t123 39.5t135 12zM485 145q103 0 159 54t56 151
q0 96 -56 150t-159 54q-102 0 -158.5 -54t-56.5 -150t56.5 -150.5t158.5 -54.5z" />
    <glyph glyph-name="p" unicode="p" horiz-adv-x="867" 
d="M547 700q142 0 216 -63.5t74 -173.5q0 -245 -318 -245h-232v-218h-237v378h442q105 0 105 85q0 40 -25.5 57.5t-79.5 17.5h-442v162h497z" />
    <glyph glyph-name="q" unicode="q" horiz-adv-x="971" 
d="M941 350q0 -206 -173 -301l49 -74l-136 -82l-67 103q-66 -11 -129 -11q-89 0 -167.5 20t-144.5 61.5t-104.5 114t-38.5 169.5q0 78 25.5 140.5t69 103.5t102.5 68.5t123 39.5t135 12t135 -12t123.5 -39.5t102.5 -68.5t69 -103.5t26 -140.5zM589 322l70 -107q41 52 41 135
q0 96 -56 150t-159 54q-102 0 -158.5 -54t-56.5 -150t56.5 -150.5t158.5 -54.5q6 0 16 0.5t14 0.5l-62 95z" />
    <glyph glyph-name="r" unicode="r" horiz-adv-x="880" 
d="M829 155q0 -112 41 -155h-247q-15 23 -18.5 49.5t-3.5 91.5q0 61 -28.5 83t-97.5 22h-188v-246h-237v700h507q289 0 289 -208q0 -68 -40 -109.5t-97 -57.5q61 -17 90.5 -57t29.5 -113zM512 397q94 0 94 75q0 35 -22.5 50.5t-71.5 15.5h-225v-141h225z" />
    <glyph glyph-name="s" unicode="s" horiz-adv-x="871" 
d="M479 437q49 -5 71 -7.5t63.5 -8.5t60 -11l49.5 -14t45.5 -19t34 -25.5t27.5 -34t14.5 -42.5t6.5 -53q0 -124 -104 -180.5t-314 -56.5q-413 0 -413 242h248q0 -83 178 -83q150 0 150 53q0 26 -30 35.5t-130 23.5l-109 16q-165 25 -228 70t-63 148q0 224 385 224
q207 0 296 -63t89 -165h-241q0 69 -147 69q-74 0 -110 -12.5t-36 -41.5q0 -35 74 -49q24 -4 133 -15z" />
    <glyph glyph-name="t" unicode="t" horiz-adv-x="827" 
d="M797 700v-162h-265v-538h-237v538h-265v162h767z" />
    <glyph glyph-name="u" unicode="u" horiz-adv-x="878" 
d="M50 236v464h238v-464h-238zM591 700h237v-407q0 -79 -22 -136t-56.5 -89.5t-88.5 -51.5t-104.5 -25t-117.5 -6v160q79 0 115.5 33.5t36.5 133.5v388z" />
    <glyph glyph-name="v" unicode="v" 
d="M674 700h247l-324 -700h-274l-323 700h246l214 -524z" />
    <glyph glyph-name="w" unicode="w" horiz-adv-x="1216" 
d="M969 700h247l-229 -700h-265l-114 421l-115 -421h-265l-228 700h246l129 -471l128 471h209l128 -471z" />
    <glyph glyph-name="x" unicode="x" horiz-adv-x="879" 
d="M576 365l303 -365h-272l-168 224l-167 -224h-272l303 365l-278 335h272l142 -194l142 194h273z" />
    <glyph glyph-name="y" unicode="y" horiz-adv-x="885" 
d="M623 700h262l-273 -381l-117 182zM263 700l298 -463v-237h-237v248l-324 452h263z" />
    <glyph glyph-name="z" unicode="z" horiz-adv-x="845" 
d="M345 161h470v-161h-785v189l460 349h-441v162h757v-190z" />
    <glyph glyph-name="braceleft" unicode="{" horiz-adv-x="443" 
d="M311 395q0 -90 -87 -105v-4q87 -13 87 -105v-192q0 -32 10.5 -44t36.5 -12h65v-142h-169q-137 0 -137 142v204q0 51 -20.5 64.5t-66.5 13.5v146q46 0 66.5 13.5t20.5 64.5v204q0 142 137 142h169v-142h-65q-26 0 -36.5 -11.5t-10.5 -43.5v-193z" />
    <glyph glyph-name="bar" unicode="|" horiz-adv-x="289" 
d="M50 785h189v-994h-189v994z" />
    <glyph glyph-name="braceright" unicode="}" horiz-adv-x="443" 
d="M326 439q0 -51 20.5 -64.5t66.5 -13.5v-146q-46 0 -66.5 -13.5t-20.5 -64.5v-204q0 -142 -137 -142h-169v142h65q26 0 36.5 12t10.5 44v192q0 92 87 105v4q-87 15 -87 105v193q0 32 -10.5 43.5t-36.5 11.5h-65v142h169q137 0 137 -142v-204z" />
    <glyph glyph-name="asciitilde" unicode="~" horiz-adv-x="580" 
d="M425 350q61 0 105 53v-147q-41 -50 -115 -50q-46 0 -127 39.5t-124 39.5q-62 0 -114 -60v146q21 20 34.5 30.5t37 20t51.5 9.5q53 0 131 -40.5t121 -40.5z" />
    <glyph glyph-name="exclamdown" unicode="&#xa1;" horiz-adv-x="306" 
d="M153 331q-45 0 -76.5 31.5t-31.5 76.5t31.5 76.5t76.5 31.5t76.5 -31.5t31.5 -76.5t-31.5 -76.5t-76.5 -31.5zM238 296l38 -463h-246l38 463h170z" />
    <glyph glyph-name="cent" unicode="&#xa2;" horiz-adv-x="724" 
d="M419 218q64 18 83 83h202q-17 -106 -95.5 -162.5t-189.5 -67.5v-71h-95v71q-60 5 -112 23t-96.5 50t-70 85t-25.5 121q0 67 25.5 120t70 85.5t96.5 50.5t112 23v71h95v-72q111 -11 189.5 -67.5t95.5 -162.5h-202q-19 66 -83 84v-264zM229 350q0 -49 23.5 -85.5
t71.5 -48.5v267q-48 -12 -71.5 -48t-23.5 -85z" />
    <glyph glyph-name="sterling" unicode="&#xa3;" horiz-adv-x="781" 
d="M696 199l65 -154q-67 -60 -182 -60q-62 0 -161 22.5t-156 22.5q-82 0 -159 -49l-73 128q52 31 77 63.5t25 74.5q0 14 -4 36h-98v95h60q-25 56 -25 104q0 62 29 108.5t78 72.5t107 38.5t124 12.5q157 0 248 -63t91 -190h-220q0 59 -26.5 84.5t-89.5 25.5q-123 0 -123 -93
q0 -15 2.5 -30t4.5 -22t9 -26t8 -22h225v-95h-210q0 -71 -83 -137v-1q60 25 108 25q46 0 114.5 -9.5t104.5 -9.5q76 0 130 48z" />
    <glyph glyph-name="currency" unicode="&#xa4;" horiz-adv-x="626" 
d="M576 350q0 -80 -45 -148l65 -64l-66 -68l-66 65q-69 -48 -151 -48t-151 48l-65 -65l-67 68l66 64q-45 65 -45 148q0 82 45 147l-66 65l67 67l65 -64q67 47 151 47t151 -47l66 64l66 -67l-65 -65q45 -67 45 -147zM313 229q53 0 87 35.5t34 85.5t-34 85t-87 35t-86.5 -35
t-33.5 -85t33.5 -85.5t86.5 -35.5z" />
    <glyph glyph-name="yen" unicode="&#xa5;" horiz-adv-x="885" 
d="M885 700l-263 -367h129v-95h-190v-29h190v-95h-190v-114h-237v114h-190v95h190v29h-190v95h129l-263 367h262l180 -279l180 279h263z" />
    <glyph glyph-name="brokenbar" unicode="&#xa6;" horiz-adv-x="289" 
d="M50 -209v426h189v-426h-189zM50 785h189v-425h-189v425z" />
    <glyph glyph-name="section" unicode="&#xa7;" horiz-adv-x="831" 
d="M811 241q0 -77 -86 -141q34 -39 34 -90q0 -103 -93.5 -154t-253.5 -51q-338 0 -338 218h232q0 -36 25.5 -52t83.5 -16q60 0 83.5 12.5t23.5 37.5q0 24 -30.5 35.5t-125.5 30.5q-9 2 -13 3q-167 35 -213 52q-95 35 -114 104q-6 21 -6 48q0 77 86 141q-34 39 -34 90
q0 103 93.5 154t253.5 51q177 0 257.5 -58.5t80.5 -159.5h-232q0 36 -25.5 52t-83.5 16q-60 0 -84 -12t-24 -37q0 -24 30 -35.5t114 -29.5q16 -3 25 -5q169 -34 218 -53q93 -36 111 -106q5 -20 5 -45zM487 207q71 -15 115 -32q11 14 11 30q0 31 -38 48q-33 15 -188 49
q-29 7 -44 10q-68 15 -114 32q-11 -13 -11 -30q0 -34 41 -50t186 -48q27 -6 42 -9z" />
    <glyph glyph-name="dieresis" unicode="&#xa8;" horiz-adv-x="526" 
d="M135 723q35 0 60.5 -25.5t25.5 -60.5t-25.5 -60t-60.5 -25t-60 25t-25 60t25 60.5t60 25.5zM390 723q35 0 60.5 -25.5t25.5 -60.5t-25.5 -60t-60.5 -25t-60 25t-25 60t25 60.5t60 25.5z" />
    <glyph glyph-name="copyright" unicode="&#xa9;" horiz-adv-x="826" 
d="M414 452q-49 0 -73.5 -27.5t-24.5 -74.5q0 -48 24.5 -75.5t73.5 -27.5q77 0 94 71h122q-12 -78 -71.5 -114.5t-144.5 -36.5q-94 0 -156 44.5t-62 138.5q0 93 62 137.5t156 44.5q85 0 144.5 -36.5t71.5 -114.5h-122q-17 71 -94 71zM413 714q160 0 271.5 -104.5
t111.5 -259.5t-111.5 -260t-271.5 -105t-271.5 105t-111.5 260t111.5 259.5t271.5 104.5zM413 52q128 0 217.5 85.5t89.5 212.5q0 126 -89.5 212t-217.5 86t-217.5 -86t-89.5 -212q0 -127 89.5 -212.5t217.5 -85.5z" />
    <glyph glyph-name="guillemotleft" unicode="&#xab;" horiz-adv-x="524" 
d="M30 199v165l208 158v-172l-101 -69l101 -68v-172zM484 522v-172l-101 -69l101 -68v-172l-209 158v165z" />
    <glyph glyph-name="registered" unicode="&#xae;" horiz-adv-x="826" 
d="M621 412q0 -74 -70 -103l81 -126h-125l-69 111h-96v-111h-116v343h248q70 0 108.5 -30.5t38.5 -83.5zM342 447v-74h113q48 0 48 39q0 35 -48 35h-113zM413 714q160 0 271.5 -104.5t111.5 -259.5t-111.5 -260t-271.5 -105t-271.5 105t-111.5 260t111.5 259.5t271.5 104.5z
M413 52q128 0 217.5 85.5t89.5 212.5q0 126 -89.5 212t-217.5 86t-217.5 -86t-89.5 -212t89.5 -212t217.5 -86z" />
    <glyph glyph-name="macron" unicode="&#xaf;" horiz-adv-x="563" 
d="M50 679h463v-105h-463v105z" />
    <glyph glyph-name="degree" unicode="&#xb0;" horiz-adv-x="376" 
d="M188 700q76 0 122 -49t46 -120q0 -70 -46 -119t-122 -49t-122 49t-46 119q0 71 46 120t122 49zM188 458q34 0 54 20t20 53t-20 53.5t-54 20.5t-54 -20.5t-20 -53.5t20 -53t54 -20z" />
    <glyph glyph-name="plusminus" unicode="&#xb1;" horiz-adv-x="580" 
d="M50 0v132h480v-132h-480zM361 432h169v-142h-169v-131h-142v131h-169v142h169v130h142v-130z" />
    <glyph glyph-name="acute" unicode="&#xb4;" horiz-adv-x="403" 
d="M135 705h218l-142 -148h-161z" />
    <glyph glyph-name="paragraph" unicode="&#xb6;" horiz-adv-x="690" 
d="M281 700h369v-877h-151v744h-76v-744h-152v421q-118 2 -189.5 59t-71.5 169q0 114 74.5 171t196.5 57z" />
    <glyph glyph-name="cedilla" unicode="&#xb8;" horiz-adv-x="400" 
d="M187 -45q34 6 70 6.5t64.5 -21.5t28.5 -64q0 -108 -170 -108q-66 0 -130 16v81q42 -17 90 -17q62 0 62 27q0 32 -124 15q-9 -1 -13 -2v54l56 76h114z" />
    <glyph glyph-name="guillemotright" unicode="&#xbb;" horiz-adv-x="525" 
d="M286 522l209 -158v-165l-209 -158v172l102 68l-102 69v172zM40 350v172l209 -158v-165l-209 -158v172l102 68z" />
    <glyph glyph-name="questiondown" unicode="&#xbf;" horiz-adv-x="721" 
d="M481 60h220q-9 -126 -94 -183.5t-240 -57.5q-76 0 -134 9t-108.5 30.5t-77.5 62.5t-27 101q0 55 26.5 92t64 55.5t75 34t64 37.5t26.5 55h198q0 -56 -24.5 -94t-59 -56.5t-69.5 -32.5t-59.5 -34.5t-24.5 -50.5q0 -66 124 -66q116 0 120 98zM372 331q-44 0 -76 31.5
t-32 76.5t32 76.5t76 31.5q45 0 77 -31.5t32 -76.5t-32 -76.5t-77 -31.5z" />
    <glyph glyph-name="Agrave" unicode="&#xc0;" 
d="M674 0l-45 108h-338l-44 -108h-247l323 700h274l324 -700h-247zM357 270h207l-104 253zM466 905l86 -148h-161l-143 148h218z" />
    <glyph glyph-name="Aacute" unicode="&#xc1;" 
d="M674 0l-45 108h-338l-44 -108h-247l323 700h274l324 -700h-247zM357 270h207l-104 253zM464 905h218l-142 -148h-161z" />
    <glyph glyph-name="Acircumflex" unicode="&#xc2;" 
d="M674 0l-45 108h-338l-44 -108h-247l323 700h274l324 -700h-247zM357 270h207l-104 253zM719 757h-190l-69 77l-69 -77h-190l148 148h222z" />
    <glyph glyph-name="Atilde" unicode="&#xc3;" 
d="M674 0l-45 108h-338l-44 -108h-247l323 700h274l324 -700h-247zM357 270h207l-104 253zM561 901h123q0 -155 -111 -155q-54 0 -116 27t-75 27q-24 0 -24 -39h-122q0 69 27.5 111.5t82.5 42.5q53 0 113.5 -27t77.5 -27q12 0 17.5 7t6 13t0.5 20z" />
    <glyph glyph-name="Adieresis" unicode="&#xc4;" 
d="M674 0l-45 108h-338l-44 -108h-247l323 700h274l324 -700h-247zM357 270h207l-104 253zM332 923q35 0 60.5 -25.5t25.5 -60.5t-25.5 -60t-60.5 -25t-60 25t-25 60t25 60.5t60 25.5zM587 923q35 0 60.5 -25.5t25.5 -60.5t-25.5 -60t-60.5 -25t-60 25t-25 60t25 60.5
t60 25.5z" />
    <glyph glyph-name="Aring" unicode="&#xc5;" 
d="M674 0l-45 108h-338l-44 -108h-247l323 700h274l324 -700h-247zM357 270h207l-104 253zM461 1013q58 0 96.5 -38.5t38.5 -97.5q0 -58 -38.5 -96.5t-96.5 -38.5t-97 38.5t-39 96.5q0 59 38.5 97.5t97.5 38.5zM461 827q22 0 36 14t14 36t-14 36t-36 14q-23 0 -36.5 -14
t-13.5 -36t13.5 -36t36.5 -14z" />
    <glyph glyph-name="AE" unicode="&#xc6;" horiz-adv-x="1338" 
d="M1298 161v-161h-701v108h-285l-65 -108h-247l447 700h841v-162h-454v-98h426v-161h-426v-118h464zM409 270h188v268h-28z" />
    <glyph glyph-name="Ccedilla" unicode="&#xc7;" horiz-adv-x="928" 
d="M501 -45q34 6 70 6.5t64.5 -21.5t28.5 -64q0 -108 -170 -108q-66 0 -130 16v81q42 -17 90 -17q62 0 62 27q0 32 -124 15q-9 -1 -13 -2v54l33 45q-80 6 -147 29t-121 65t-84 110.5t-30 158.5q0 97 35.5 169t98 113.5t138.5 61.5t165 20q81 0 151 -16.5t129.5 -51.5
t99 -94.5t51.5 -138.5h-243q-17 70 -61.5 105.5t-126.5 35.5q-98 0 -147.5 -54.5t-49.5 -149.5q0 -96 49.5 -150.5t147.5 -54.5q82 0 126.5 35.5t61.5 105.5h243q-21 -140 -122.5 -213.5t-250.5 -84.5z" />
    <glyph glyph-name="Egrave" unicode="&#xc8;" horiz-adv-x="790" 
d="M750 161v-161h-700v700h690v-162h-453v-98h425v-162h-425v-117h463zM416 905l86 -148h-161l-143 148h218z" />
    <glyph glyph-name="Eacute" unicode="&#xc9;" horiz-adv-x="790" 
d="M750 161v-161h-700v700h690v-162h-453v-98h425v-162h-425v-117h463zM383 905h218l-142 -148h-161z" />
    <glyph glyph-name="Ecircumflex" unicode="&#xca;" horiz-adv-x="790" 
d="M750 161v-161h-700v700h690v-162h-453v-98h425v-162h-425v-117h463zM659 757h-190l-69 77l-69 -77h-190l148 148h222z" />
    <glyph glyph-name="Edieresis" unicode="&#xcb;" horiz-adv-x="790" 
d="M750 161v-161h-700v700h690v-162h-453v-98h425v-162h-425v-117h463zM272 923q35 0 60.5 -25.5t25.5 -60.5t-25.5 -60t-60.5 -25t-60 25t-25 60t25 60.5t60 25.5zM527 923q35 0 60.5 -25.5t25.5 -60.5t-25.5 -60t-60.5 -25t-60 25t-25 60t25 60.5t60 25.5z" />
    <glyph glyph-name="Igrave" unicode="&#xcc;" horiz-adv-x="338" 
d="M50 700h238v-700h-238v700zM175 905l86 -148h-161l-143 148h218z" />
    <glyph glyph-name="Iacute" unicode="&#xcd;" horiz-adv-x="338" 
d="M50 700h238v-700h-238v700zM163 905h218l-142 -148h-161z" />
    <glyph glyph-name="Icircumflex" unicode="&#xce;" horiz-adv-x="338" 
d="M50 700h238v-700h-238v700zM428 757h-190l-69 77l-69 -77h-190l148 148h222z" />
    <glyph glyph-name="Idieresis" unicode="&#xcf;" horiz-adv-x="338" 
d="M50 700h238v-700h-238v700zM41 923q35 0 60.5 -25.5t25.5 -60.5t-25.5 -60t-60.5 -25t-60 25t-25 60t25 60.5t60 25.5zM296 923q35 0 60.5 -25.5t25.5 -60.5t-25.5 -60t-60.5 -25t-60 25t-25 60t25 60.5t60 25.5z" />
    <glyph glyph-name="Eth" unicode="&#xd0;" horiz-adv-x="951" 
d="M479 700q72 0 131 -8t118.5 -31t100.5 -60.5t66.5 -101.5t25.5 -149t-25.5 -149t-66 -102t-100.5 -60.5t-119 -30.5t-131 -8h-374v288h-85v123h85v289h374zM426 161q51 0 81.5 2t67.5 12.5t57 30t34 55.5t14 89q0 52 -14 88.5t-34 55.5t-57 29.5t-67.5 12.5t-81.5 2h-84
v-127h205v-123h-205v-127h84z" />
    <glyph glyph-name="Ntilde" unicode="&#xd1;" horiz-adv-x="906" 
d="M619 700h237v-700h-251l-318 416v-416h-237v700h251l318 -417v417zM554 901h123q0 -155 -111 -155q-54 0 -116 27t-75 27q-24 0 -24 -39h-122q0 69 27.5 111.5t82.5 42.5q53 0 113.5 -27t77.5 -27q12 0 17.5 7t6 13t0.5 20z" />
    <glyph glyph-name="Ograve" unicode="&#xd2;" horiz-adv-x="971" 
d="M485 714q71 0 135 -12t123.5 -39.5t102.5 -68.5t69 -103.5t26 -140.5q0 -97 -38.5 -169.5t-105 -114t-145 -61.5t-167.5 -20t-167.5 20t-144.5 61.5t-104.5 114t-38.5 169.5q0 78 25.5 140.5t69 103.5t102.5 68.5t123 39.5t135 12zM485 145q103 0 159 54t56 151
q0 96 -56 150t-159 54q-102 0 -158.5 -54t-56.5 -150t56.5 -150.5t158.5 -54.5zM491 905l86 -148h-161l-143 148h218z" />
    <glyph glyph-name="Oacute" unicode="&#xd3;" horiz-adv-x="971" 
d="M485 714q71 0 135 -12t123.5 -39.5t102.5 -68.5t69 -103.5t26 -140.5q0 -97 -38.5 -169.5t-105 -114t-145 -61.5t-167.5 -20t-167.5 20t-144.5 61.5t-104.5 114t-38.5 169.5q0 78 25.5 140.5t69 103.5t102.5 68.5t123 39.5t135 12zM485 145q103 0 159 54t56 151
q0 96 -56 150t-159 54q-102 0 -158.5 -54t-56.5 -150t56.5 -150.5t158.5 -54.5zM479 905h218l-142 -148h-161z" />
    <glyph glyph-name="Ocircumflex" unicode="&#xd4;" horiz-adv-x="971" 
d="M485 714q71 0 135 -12t123.5 -39.5t102.5 -68.5t69 -103.5t26 -140.5q0 -97 -38.5 -169.5t-105 -114t-145 -61.5t-167.5 -20t-167.5 20t-144.5 61.5t-104.5 114t-38.5 169.5q0 78 25.5 140.5t69 103.5t102.5 68.5t123 39.5t135 12zM485 145q103 0 159 54t56 151
q0 96 -56 150t-159 54q-102 0 -158.5 -54t-56.5 -150t56.5 -150.5t158.5 -54.5zM744 757h-190l-69 77l-69 -77h-190l148 148h222z" />
    <glyph glyph-name="Otilde" unicode="&#xd5;" horiz-adv-x="971" 
d="M485 714q71 0 135 -12t123.5 -39.5t102.5 -68.5t69 -103.5t26 -140.5q0 -97 -38.5 -169.5t-105 -114t-145 -61.5t-167.5 -20t-167.5 20t-144.5 61.5t-104.5 114t-38.5 169.5q0 78 25.5 140.5t69 103.5t102.5 68.5t123 39.5t135 12zM485 145q103 0 159 54t56 151
q0 96 -56 150t-159 54q-102 0 -158.5 -54t-56.5 -150t56.5 -150.5t158.5 -54.5zM586 901h123q0 -155 -111 -155q-54 0 -116 27t-75 27q-24 0 -24 -39h-122q0 69 27.5 111.5t82.5 42.5q53 0 113.5 -27t77.5 -27q12 0 17.5 7t6 13t0.5 20z" />
    <glyph glyph-name="Odieresis" unicode="&#xd6;" horiz-adv-x="971" 
d="M485 714q71 0 135 -12t123.5 -39.5t102.5 -68.5t69 -103.5t26 -140.5q0 -97 -38.5 -169.5t-105 -114t-145 -61.5t-167.5 -20t-167.5 20t-144.5 61.5t-104.5 114t-38.5 169.5q0 78 25.5 140.5t69 103.5t102.5 68.5t123 39.5t135 12zM485 145q103 0 159 54t56 151
q0 96 -56 150t-159 54q-102 0 -158.5 -54t-56.5 -150t56.5 -150.5t158.5 -54.5zM357 923q35 0 60.5 -25.5t25.5 -60.5t-25.5 -60t-60.5 -25t-60 25t-25 60t25 60.5t60 25.5zM612 923q35 0 60.5 -25.5t25.5 -60.5t-25.5 -60t-60.5 -25t-60 25t-25 60t25 60.5t60 25.5z" />
    <glyph glyph-name="multiply" unicode="&#xd7;" horiz-adv-x="540" 
d="M490 439l-119 -120l119 -119l-101 -100l-119 119l-119 -119l-101 100l120 119l-120 120l101 100l119 -119l119 119z" />
    <glyph glyph-name="Oslash" unicode="&#xd8;" horiz-adv-x="971" 
d="M840 599q101 -94 101 -249q0 -97 -38.5 -169.5t-105 -114t-145 -61.5t-167.5 -20q-145 0 -253 49l-77 -71l-80 86l55 52q-100 93 -100 249q0 78 25.5 140.5t69 103.5t102.5 68.5t123 39.5t135 12q144 0 254 -49l77 71l79 -86zM270 350q0 -58 21 -101l305 284
q-46 21 -111 21q-102 0 -158.5 -54t-56.5 -150zM485 145q103 0 159 54t56 151q0 57 -20 100l-306 -283q49 -22 111 -22z" />
    <glyph glyph-name="Ugrave" unicode="&#xd9;" horiz-adv-x="878" 
d="M591 700h237v-407q0 -79 -22 -136t-56.5 -89.5t-88.5 -51.5t-104.5 -25t-117.5 -6t-117.5 6t-104.5 25t-88.5 51.5t-56.5 89.5t-22 136v407h237v-388q0 -100 36.5 -133.5t115.5 -33.5q78 0 115 33.5t37 133.5v388zM455 905l86 -148h-161l-143 148h218z" />
    <glyph glyph-name="Uacute" unicode="&#xda;" horiz-adv-x="878" 
d="M591 700h237v-407q0 -79 -22 -136t-56.5 -89.5t-88.5 -51.5t-104.5 -25t-117.5 -6t-117.5 6t-104.5 25t-88.5 51.5t-56.5 89.5t-22 136v407h237v-388q0 -100 36.5 -133.5t115.5 -33.5q78 0 115 33.5t37 133.5v388zM442 905h218l-142 -148h-161z" />
    <glyph glyph-name="Ucircumflex" unicode="&#xdb;" horiz-adv-x="878" 
d="M591 700h237v-407q0 -79 -22 -136t-56.5 -89.5t-88.5 -51.5t-104.5 -25t-117.5 -6t-117.5 6t-104.5 25t-88.5 51.5t-56.5 89.5t-22 136v407h237v-388q0 -100 36.5 -133.5t115.5 -33.5q78 0 115 33.5t37 133.5v388zM698 757h-190l-69 77l-69 -77h-190l148 148h222z" />
    <glyph glyph-name="Udieresis" unicode="&#xdc;" horiz-adv-x="878" 
d="M591 700h237v-407q0 -79 -22 -136t-56.5 -89.5t-88.5 -51.5t-104.5 -25t-117.5 -6t-117.5 6t-104.5 25t-88.5 51.5t-56.5 89.5t-22 136v407h237v-388q0 -100 36.5 -133.5t115.5 -33.5q78 0 115 33.5t37 133.5v388zM311 923q35 0 60.5 -25.5t25.5 -60.5t-25.5 -60
t-60.5 -25t-60 25t-25 60t25 60.5t60 25.5zM566 923q35 0 60.5 -25.5t25.5 -60.5t-25.5 -60t-60.5 -25t-60 25t-25 60t25 60.5t60 25.5z" />
    <glyph glyph-name="Yacute" unicode="&#xdd;" horiz-adv-x="885" 
d="M622 700h263l-324 -452v-248h-237v248l-324 452h263l179 -279zM446 905h218l-142 -148h-161z" />
    <glyph glyph-name="Thorn" unicode="&#xde;" horiz-adv-x="866" 
d="M547 610q141 0 215 -63.5t74 -173.5q0 -245 -317 -245h-232v-128h-237v700h237v-90h260zM491 288q105 0 105 85q0 40 -25.5 57.5t-79.5 17.5h-204v-160h204z" />
    <glyph glyph-name="germandbls" unicode="&#xdf;" horiz-adv-x="814" 
d="M629 385q165 -41 165 -172q0 -228 -325 -228q-88 0 -148 15v141q70 -14 120 -14q63 0 98.5 19t35.5 73q0 42 -30.5 58.5t-88.5 16.5h-135v143h116q90 0 90 66q0 77 -137 77q-72 0 -102 -27t-30 -101v-452h-218v461q0 72 29.5 123.5t81.5 78.5t111 39t131 12
q338 0 338 -194q0 -91 -102 -135z" />
    <glyph glyph-name="agrave" unicode="&#xe0;" 
d="M675 0l-214 523l-148 -362h167v-161h-480l324 700h274l323 -700h-246zM466 905l86 -148h-161l-143 148h218z" />
    <glyph glyph-name="aacute" unicode="&#xe1;" 
d="M675 0l-214 523l-148 -362h167v-161h-480l324 700h274l323 -700h-246zM464 905h218l-142 -148h-161z" />
    <glyph glyph-name="acircumflex" unicode="&#xe2;" 
d="M675 0l-214 523l-148 -362h167v-161h-480l324 700h274l323 -700h-246zM719 757h-190l-69 77l-69 -77h-190l148 148h222z" />
    <glyph glyph-name="atilde" unicode="&#xe3;" 
d="M675 0l-214 523l-148 -362h167v-161h-480l324 700h274l323 -700h-246zM561 901h123q0 -155 -111 -155q-54 0 -116 27t-75 27q-24 0 -24 -39h-122q0 69 27.5 111.5t82.5 42.5q53 0 113.5 -27t77.5 -27q12 0 17.5 7t6 13t0.5 20z" />
    <glyph glyph-name="adieresis" unicode="&#xe4;" 
d="M675 0l-214 523l-148 -362h167v-161h-480l324 700h274l323 -700h-246zM332 923q35 0 60.5 -25.5t25.5 -60.5t-25.5 -60t-60.5 -25t-60 25t-25 60t25 60.5t60 25.5zM587 923q35 0 60.5 -25.5t25.5 -60.5t-25.5 -60t-60.5 -25t-60 25t-25 60t25 60.5t60 25.5z" />
    <glyph glyph-name="aring" unicode="&#xe5;" 
d="M675 0l-214 523l-148 -362h167v-161h-480l324 700h274l323 -700h-246zM461 1013q58 0 96.5 -38.5t38.5 -97.5q0 -58 -38.5 -96.5t-96.5 -38.5t-97 38.5t-39 96.5q0 59 38.5 97.5t97.5 38.5zM461 827q22 0 36 14t14 36t-14 36t-36 14q-23 0 -36.5 -14t-13.5 -36t13.5 -36
t36.5 -14z" />
    <glyph glyph-name="ae" unicode="&#xe6;" horiz-adv-x="1337" 
d="M1297 161v-161h-700v108h-285l-65 -108h-247l447 700h840v-162h-718l-161 -268h189v170h662v-162h-425v-117h463z" />
    <glyph glyph-name="ccedilla" unicode="&#xe7;" horiz-adv-x="928" 
d="M898 350q0 -88 -30 -156.5t-83 -110.5t-118.5 -65.5t-144.5 -29.5l-25 -33q34 5 70 6t64 -21t28 -65q0 -107 -170 -107q-61 0 -129 15v82q42 -17 89 -17q62 0 62 27q0 7 -5 12t-14.5 7t-19.5 2.5t-24.5 -0.5t-25 -2t-26 -3t-21.5 -3v54l33 45q-98 7 -174.5 38t-133 98
t-70.5 163h243q17 -70 62 -105.5t127 -35.5q98 0 147 54.5t49 150.5q0 95 -49 149.5t-147 54.5q-82 0 -127 -35.5t-62 -105.5h-243q12 79 51.5 138.5t99 94.5t130 51.5t151.5 16.5q89 0 164.5 -20t138 -61.5t98 -113.5t35.5 -169z" />
    <glyph glyph-name="egrave" unicode="&#xe8;" horiz-adv-x="790" 
d="M712 440v-162h-662v162h662zM50 161h700v-161h-700v161zM741 700v-162h-691v162h691zM416 905l86 -148h-161l-143 148h218z" />
    <glyph glyph-name="eacute" unicode="&#xe9;" horiz-adv-x="790" 
d="M712 440v-162h-662v162h662zM50 161h700v-161h-700v161zM741 700v-162h-691v162h691zM383 905h218l-142 -148h-161z" />
    <glyph glyph-name="ecircumflex" unicode="&#xea;" horiz-adv-x="790" 
d="M712 440v-162h-662v162h662zM50 161h700v-161h-700v161zM741 700v-162h-691v162h691zM659 757h-190l-69 77l-69 -77h-190l148 148h222z" />
    <glyph glyph-name="edieresis" unicode="&#xeb;" horiz-adv-x="790" 
d="M712 440v-162h-662v162h662zM50 161h700v-161h-700v161zM741 700v-162h-691v162h691zM272 923q35 0 60.5 -25.5t25.5 -60.5t-25.5 -60t-60.5 -25t-60 25t-25 60t25 60.5t60 25.5zM527 923q35 0 60.5 -25.5t25.5 -60.5t-25.5 -60t-60.5 -25t-60 25t-25 60t25 60.5t60 25.5
z" />
    <glyph glyph-name="igrave" unicode="&#xec;" horiz-adv-x="338" 
d="M50 700h238v-700h-238v700zM175 905l86 -148h-161l-143 148h218z" />
    <glyph glyph-name="iacute" unicode="&#xed;" horiz-adv-x="338" 
d="M50 700h238v-700h-238v700zM163 905h218l-142 -148h-161z" />
    <glyph glyph-name="icircumflex" unicode="&#xee;" horiz-adv-x="338" 
d="M50 700h238v-700h-238v700zM428 757h-190l-69 77l-69 -77h-190l148 148h222z" />
    <glyph glyph-name="idieresis" unicode="&#xef;" horiz-adv-x="338" 
d="M50 700h238v-700h-238v700zM41 923q35 0 60.5 -25.5t25.5 -60.5t-25.5 -60t-60.5 -25t-60 25t-25 60t25 60.5t60 25.5zM296 923q35 0 60.5 -25.5t25.5 -60.5t-25.5 -60t-60.5 -25t-60 25t-25 60t25 60.5t60 25.5z" />
    <glyph glyph-name="eth" unicode="&#xf0;" horiz-adv-x="747" 
d="M485 660q242 -115 242 -367q0 -82 -26.5 -142t-75 -96t-112.5 -53t-145 -17q-71 0 -131 13.5t-110 42t-78.5 80t-28.5 120.5q0 64 25 110.5t69 72t94.5 37t110.5 11.5q79 0 133 -22.5t71 -42.5q-29 111 -171 162l-128 -88l-52 76l60 41q-66 9 -131 9l22 126
q136 0 257 -34l125 85l51 -75zM361 136q65 0 103.5 21.5t38.5 78.5q0 30 -12 50t-34.5 29t-44.5 12.5t-51 3.5q-129 0 -129 -95q0 -100 129 -100z" />
    <glyph glyph-name="ntilde" unicode="&#xf1;" horiz-adv-x="906" 
d="M619 700h237v-700h-251l-318 416v-416h-237v700h251l318 -417v417zM554 901h123q0 -155 -111 -155q-54 0 -116 27t-75 27q-24 0 -24 -39h-122q0 69 27.5 111.5t82.5 42.5q53 0 113.5 -27t77.5 -27q12 0 17.5 7t6 13t0.5 20z" />
    <glyph glyph-name="ograve" unicode="&#xf2;" horiz-adv-x="971" 
d="M485 714q71 0 135 -12t123.5 -39.5t102.5 -68.5t69 -103.5t26 -140.5q0 -97 -38.5 -169.5t-105 -114t-145 -61.5t-167.5 -20t-167.5 20t-144.5 61.5t-104.5 114t-38.5 169.5q0 78 25.5 140.5t69 103.5t102.5 68.5t123 39.5t135 12zM485 145q103 0 159 54t56 151
q0 96 -56 150t-159 54q-102 0 -158.5 -54t-56.5 -150t56.5 -150.5t158.5 -54.5zM491 905l86 -148h-161l-143 148h218z" />
    <glyph glyph-name="oacute" unicode="&#xf3;" horiz-adv-x="971" 
d="M485 714q71 0 135 -12t123.5 -39.5t102.5 -68.5t69 -103.5t26 -140.5q0 -97 -38.5 -169.5t-105 -114t-145 -61.5t-167.5 -20t-167.5 20t-144.5 61.5t-104.5 114t-38.5 169.5q0 78 25.5 140.5t69 103.5t102.5 68.5t123 39.5t135 12zM485 145q103 0 159 54t56 151
q0 96 -56 150t-159 54q-102 0 -158.5 -54t-56.5 -150t56.5 -150.5t158.5 -54.5zM479 905h218l-142 -148h-161z" />
    <glyph glyph-name="ocircumflex" unicode="&#xf4;" horiz-adv-x="971" 
d="M485 714q71 0 135 -12t123.5 -39.5t102.5 -68.5t69 -103.5t26 -140.5q0 -97 -38.5 -169.5t-105 -114t-145 -61.5t-167.5 -20t-167.5 20t-144.5 61.5t-104.5 114t-38.5 169.5q0 78 25.5 140.5t69 103.5t102.5 68.5t123 39.5t135 12zM485 145q103 0 159 54t56 151
q0 96 -56 150t-159 54q-102 0 -158.5 -54t-56.5 -150t56.5 -150.5t158.5 -54.5zM744 757h-190l-69 77l-69 -77h-190l148 148h222z" />
    <glyph glyph-name="otilde" unicode="&#xf5;" horiz-adv-x="971" 
d="M485 714q71 0 135 -12t123.5 -39.5t102.5 -68.5t69 -103.5t26 -140.5q0 -97 -38.5 -169.5t-105 -114t-145 -61.5t-167.5 -20t-167.5 20t-144.5 61.5t-104.5 114t-38.5 169.5q0 78 25.5 140.5t69 103.5t102.5 68.5t123 39.5t135 12zM485 145q103 0 159 54t56 151
q0 96 -56 150t-159 54q-102 0 -158.5 -54t-56.5 -150t56.5 -150.5t158.5 -54.5zM586 901h123q0 -155 -111 -155q-54 0 -116 27t-75 27q-24 0 -24 -39h-122q0 69 27.5 111.5t82.5 42.5q53 0 113.5 -27t77.5 -27q12 0 17.5 7t6 13t0.5 20z" />
    <glyph glyph-name="odieresis" unicode="&#xf6;" horiz-adv-x="971" 
d="M485 714q71 0 135 -12t123.5 -39.5t102.5 -68.5t69 -103.5t26 -140.5q0 -97 -38.5 -169.5t-105 -114t-145 -61.5t-167.5 -20t-167.5 20t-144.5 61.5t-104.5 114t-38.5 169.5q0 78 25.5 140.5t69 103.5t102.5 68.5t123 39.5t135 12zM485 145q103 0 159 54t56 151
q0 96 -56 150t-159 54q-102 0 -158.5 -54t-56.5 -150t56.5 -150.5t158.5 -54.5zM357 923q35 0 60.5 -25.5t25.5 -60.5t-25.5 -60t-60.5 -25t-60 25t-25 60t25 60.5t60 25.5zM612 923q35 0 60.5 -25.5t25.5 -60.5t-25.5 -60t-60.5 -25t-60 25t-25 60t25 60.5t60 25.5z" />
    <glyph glyph-name="divide" unicode="&#xf7;" horiz-adv-x="579" 
d="M290 204q36 0 61 -25.5t25 -61.5t-25 -61.5t-61 -25.5t-61.5 25.5t-25.5 61.5t25.5 61.5t61.5 25.5zM290 435q-36 0 -61.5 25.5t-25.5 61.5t25.5 61.5t61.5 25.5t61 -25.5t25 -61.5t-25 -61.5t-61 -25.5zM50 391h479v-143h-479v143z" />
    <glyph glyph-name="oslash" unicode="&#xf8;" horiz-adv-x="970" 
d="M840 599q101 -94 101 -249q0 -97 -38.5 -169.5t-105 -114t-145 -61.5t-167.5 -20q-145 0 -253 49l-77 -71l-80 86l55 52q-100 93 -100 249q0 78 25.5 140.5t69 103.5t102.5 68.5t123 39.5t135 12q144 0 254 -49l77 71l79 -86zM270 350q0 -58 21 -101l305 284
q-46 21 -111 21q-102 0 -158.5 -54t-56.5 -150zM485 145q103 0 159 54t56 151q0 57 -20 100l-306 -283q49 -22 111 -22z" />
    <glyph glyph-name="ugrave" unicode="&#xf9;" horiz-adv-x="878" 
d="M50 236v464h238v-464h-238zM591 700h237v-407q0 -79 -22 -136t-56.5 -89.5t-88.5 -51.5t-104.5 -25t-117.5 -6v160q79 0 115.5 33.5t36.5 133.5v388zM455 905l86 -148h-161l-143 148h218z" />
    <glyph glyph-name="uacute" unicode="&#xfa;" horiz-adv-x="878" 
d="M50 236v464h238v-464h-238zM591 700h237v-407q0 -79 -22 -136t-56.5 -89.5t-88.5 -51.5t-104.5 -25t-117.5 -6v160q79 0 115.5 33.5t36.5 133.5v388zM442 905h218l-142 -148h-161z" />
    <glyph glyph-name="ucircumflex" unicode="&#xfb;" horiz-adv-x="878" 
d="M50 236v464h238v-464h-238zM591 700h237v-407q0 -79 -22 -136t-56.5 -89.5t-88.5 -51.5t-104.5 -25t-117.5 -6v160q79 0 115.5 33.5t36.5 133.5v388zM698 757h-190l-69 77l-69 -77h-190l148 148h222z" />
    <glyph glyph-name="udieresis" unicode="&#xfc;" horiz-adv-x="878" 
d="M50 236v464h238v-464h-238zM591 700h237v-407q0 -79 -22 -136t-56.5 -89.5t-88.5 -51.5t-104.5 -25t-117.5 -6v160q79 0 115.5 33.5t36.5 133.5v388zM311 923q35 0 60.5 -25.5t25.5 -60.5t-25.5 -60t-60.5 -25t-60 25t-25 60t25 60.5t60 25.5zM566 923q35 0 60.5 -25.5
t25.5 -60.5t-25.5 -60t-60.5 -25t-60 25t-25 60t25 60.5t60 25.5z" />
    <glyph glyph-name="yacute" unicode="&#xfd;" horiz-adv-x="885" 
d="M623 700h262l-273 -381l-117 182zM263 700l298 -463v-237h-237v248l-324 452h263zM446 905h218l-142 -148h-161z" />
    <glyph glyph-name="thorn" unicode="&#xfe;" horiz-adv-x="866" 
d="M547 610q141 0 215 -63.5t74 -173.5q0 -245 -317 -245h-232v-128h-237v700h237v-90h260zM491 288q105 0 105 85q0 40 -25.5 57.5t-79.5 17.5h-204v-160h204z" />
    <glyph glyph-name="ydieresis" unicode="&#xff;" horiz-adv-x="885" 
d="M623 700h262l-273 -381l-117 182zM263 700l298 -463v-237h-237v248l-324 452h263zM314 923q35 0 60.5 -25.5t25.5 -60.5t-25.5 -60t-60.5 -25t-60 25t-25 60t25 60.5t60 25.5zM569 923q35 0 60.5 -25.5t25.5 -60.5t-25.5 -60t-60.5 -25t-60 25t-25 60t25 60.5t60 25.5z
" />
    <glyph glyph-name="Amacron" unicode="&#x100;" 
d="M674 0l-45 108h-338l-44 -108h-247l323 700h274l324 -700h-247zM357 270h207l-104 253zM229 879h463v-105h-463v105z" />
    <glyph glyph-name="amacron" unicode="&#x101;" 
d="M675 0l-214 523l-148 -362h167v-161h-480l324 700h274l323 -700h-246zM229 879h463v-105h-463v105z" />
    <glyph glyph-name="Abreve" unicode="&#x102;" 
d="M674 0l-45 108h-338l-44 -108h-247l323 700h274l324 -700h-247zM357 270h207l-104 253zM538 905h117q0 -72 -48 -112.5t-147 -40.5q-98 0 -146 40.5t-48 112.5h117q6 -58 77 -58q72 0 78 58z" />
    <glyph glyph-name="abreve" unicode="&#x103;" 
d="M675 0l-214 523l-148 -362h167v-161h-480l324 700h274l323 -700h-246zM538 905h117q0 -72 -48 -112.5t-147 -40.5q-98 0 -146 40.5t-48 112.5h117q6 -58 77 -58q72 0 78 58z" />
    <glyph glyph-name="Aogonek" unicode="&#x104;" 
d="M820 -76q0 -14 11 -21t28.5 -6t32.5 4t29 8v-90q-8 -4 -41 -10t-65 -6q-152 0 -152 87q0 69 89 110h-78l-45 108h-338l-44 -108h-247l323 700h274l324 -700q-3 -1 -14.5 -5.5l-16.5 -6.5t-16.5 -7t-17 -8.5t-13.5 -9.5t-12.5 -11.5t-7.5 -12.5t-3 -15zM357 270h207
l-104 253z" />
    <glyph glyph-name="aogonek" unicode="&#x105;" 
d="M820 -76q0 -27 34 -27t67 12v-90q-9 -4 -41 -10t-64 -6q-153 0 -153 87q0 66 89 110h-78l-213 523l-148 -362h167v-161h-480l324 700h274l323 -700q-3 -1 -16.5 -6t-19.5 -8t-18 -8.5t-18.5 -10.5t-14 -12t-11 -14.5t-3.5 -16.5z" />
    <glyph glyph-name="Cacute" unicode="&#x106;" horiz-adv-x="928" 
d="M467 145q82 0 126.5 35.5t61.5 105.5h243q-12 -79 -51.5 -138.5t-99 -94.5t-129.5 -51.5t-151 -16.5q-89 0 -165 20t-138.5 61.5t-98 114t-35.5 169.5t35.5 169t98 113.5t138.5 61.5t165 20q81 0 151 -16.5t129.5 -51.5t99 -94.5t51.5 -138.5h-243q-17 70 -61.5 105.5
t-126.5 35.5q-98 0 -147.5 -54.5t-49.5 -149.5q0 -96 49.5 -150.5t147.5 -54.5zM467 905h218l-142 -148h-161z" />
    <glyph glyph-name="cacute" unicode="&#x107;" horiz-adv-x="928" 
d="M461 714q89 0 165 -20t138.5 -61.5t98 -113.5t35.5 -169t-35.5 -169.5t-98 -114t-138.5 -61.5t-165 -20q-81 0 -151 16.5t-129.5 51.5t-99 94.5t-51.5 138.5h243q17 -70 61.5 -105.5t126.5 -35.5q98 0 147 54.5t49 150.5t-49 150t-147 54q-82 0 -126.5 -35.5
t-61.5 -105.5h-243q12 79 51.5 138.5t99 94.5t129.5 51.5t151 16.5zM467 905h218l-142 -148h-161z" />
    <glyph glyph-name="Ccircumflex" unicode="&#x108;" horiz-adv-x="928" 
d="M467 145q82 0 126.5 35.5t61.5 105.5h243q-12 -79 -51.5 -138.5t-99 -94.5t-129.5 -51.5t-151 -16.5q-89 0 -165 20t-138.5 61.5t-98 114t-35.5 169.5t35.5 169t98 113.5t138.5 61.5t165 20q81 0 151 -16.5t129.5 -51.5t99 -94.5t51.5 -138.5h-243q-17 70 -61.5 105.5
t-126.5 35.5q-98 0 -147.5 -54.5t-49.5 -149.5q0 -96 49.5 -150.5t147.5 -54.5zM723 757h-190l-69 77l-69 -77h-190l148 148h222z" />
    <glyph glyph-name="ccircumflex" unicode="&#x109;" horiz-adv-x="928" 
d="M461 714q89 0 165 -20t138.5 -61.5t98 -113.5t35.5 -169t-35.5 -169.5t-98 -114t-138.5 -61.5t-165 -20q-81 0 -151 16.5t-129.5 51.5t-99 94.5t-51.5 138.5h243q17 -70 61.5 -105.5t126.5 -35.5q98 0 147 54.5t49 150.5t-49 150t-147 54q-82 0 -126.5 -35.5
t-61.5 -105.5h-243q12 79 51.5 138.5t99 94.5t129.5 51.5t151 16.5zM723 757h-190l-69 77l-69 -77h-190l148 148h222z" />
    <glyph glyph-name="Cdotaccent" unicode="&#x10a;" horiz-adv-x="928" 
d="M467 145q82 0 126.5 35.5t61.5 105.5h243q-12 -79 -51.5 -138.5t-99 -94.5t-129.5 -51.5t-151 -16.5q-89 0 -165 20t-138.5 61.5t-98 114t-35.5 169.5t35.5 169t98 113.5t138.5 61.5t165 20q81 0 151 -16.5t129.5 -51.5t99 -94.5t51.5 -138.5h-243q-17 70 -61.5 105.5
t-126.5 35.5q-98 0 -147.5 -54.5t-49.5 -149.5q0 -96 49.5 -150.5t147.5 -54.5zM464 923q35 0 60.5 -25.5t25.5 -60.5t-25.5 -60t-60.5 -25t-60 25t-25 60t25 60.5t60 25.5z" />
    <glyph glyph-name="cdotaccent" unicode="&#x10b;" horiz-adv-x="928" 
d="M461 714q89 0 165 -20t138.5 -61.5t98 -113.5t35.5 -169t-35.5 -169.5t-98 -114t-138.5 -61.5t-165 -20q-81 0 -151 16.5t-129.5 51.5t-99 94.5t-51.5 138.5h243q17 -70 61.5 -105.5t126.5 -35.5q98 0 147 54.5t49 150.5t-49 150t-147 54q-82 0 -126.5 -35.5
t-61.5 -105.5h-243q12 79 51.5 138.5t99 94.5t129.5 51.5t151 16.5zM464 923q35 0 60.5 -25.5t25.5 -60.5t-25.5 -60t-60.5 -25t-60 25t-25 60t25 60.5t60 25.5z" />
    <glyph glyph-name="Ccaron" unicode="&#x10c;" horiz-adv-x="928" 
d="M467 145q82 0 126.5 35.5t61.5 105.5h243q-12 -79 -51.5 -138.5t-99 -94.5t-129.5 -51.5t-151 -16.5q-89 0 -165 20t-138.5 61.5t-98 114t-35.5 169.5t35.5 169t98 113.5t138.5 61.5t165 20q81 0 151 -16.5t129.5 -51.5t99 -94.5t51.5 -138.5h-243q-17 70 -61.5 105.5
t-126.5 35.5q-98 0 -147.5 -54.5t-49.5 -149.5q0 -96 49.5 -150.5t147.5 -54.5zM533 905h190l-148 -148h-222l-148 148h190l69 -77z" />
    <glyph glyph-name="ccaron" unicode="&#x10d;" horiz-adv-x="928" 
d="M461 714q89 0 165 -20t138.5 -61.5t98 -113.5t35.5 -169t-35.5 -169.5t-98 -114t-138.5 -61.5t-165 -20q-81 0 -151 16.5t-129.5 51.5t-99 94.5t-51.5 138.5h243q17 -70 61.5 -105.5t126.5 -35.5q98 0 147 54.5t49 150.5t-49 150t-147 54q-82 0 -126.5 -35.5
t-61.5 -105.5h-243q12 79 51.5 138.5t99 94.5t129.5 51.5t151 16.5zM533 905h190l-148 -148h-222l-148 148h190l69 -77z" />
    <glyph glyph-name="Dcaron" unicode="&#x10e;" horiz-adv-x="895" 
d="M424 700q72 0 130.5 -8t118.5 -31t100.5 -60.5t66 -101.5t25.5 -149t-25.5 -149t-66 -102t-100.5 -60.5t-118.5 -30.5t-130.5 -8h-374v700h374zM371 161q51 0 81.5 2t67.5 12.5t57 30t34 55.5t14 89q0 52 -14 88.5t-34 55.5t-57 29.5t-67.5 12.5t-81.5 2h-84v-377h84z
M476 905h190l-148 -148h-222l-148 148h190l69 -77z" />
    <glyph glyph-name="dcaron" unicode="&#x10f;" horiz-adv-x="895" 
d="M424 700q72 0 130.5 -8t118.5 -31t100.5 -60.5t66 -101.5t25.5 -149t-25.5 -149t-66 -102t-100.5 -60.5t-118.5 -30.5t-130.5 -8h-374v411h237v-250h84q51 0 81.5 2t67.5 12.5t57 30t34 55.5t14 89q0 52 -14 88.5t-34 55.5t-57 29.5t-67.5 12.5t-81.5 2h-321v162h374z
M476 905h190l-148 -148h-222l-148 148h190l69 -77z" />
    <glyph glyph-name="Dcroat" unicode="&#x110;" horiz-adv-x="951" 
d="M479 700q72 0 131 -8t118.5 -31t100.5 -60.5t66.5 -101.5t25.5 -149t-25.5 -149t-66 -102t-100.5 -60.5t-119 -30.5t-131 -8h-374v288h-85v123h85v289h374zM426 161q51 0 81.5 2t67.5 12.5t57 30t34 55.5t14 89q0 52 -14 88.5t-34 55.5t-57 29.5t-67.5 12.5t-81.5 2h-84
v-127h205v-123h-205v-127h84z" />
    <glyph glyph-name="dcroat" unicode="&#x111;" horiz-adv-x="951" 
d="M480 700q71 0 130 -8t119 -31t100.5 -60.5t66 -101.5t25.5 -149t-25.5 -149t-66 -102t-100.5 -60.5t-118.5 -30.5t-130.5 -8h-374v288h-86v123h527v-123h-204v-127h83q51 0 82 2t68 12.5t57 30t34 55.5t14 89q0 52 -14 88.5t-34 55.5t-57 29.5t-68 12.5t-82 2h-320v162
h374z" />
    <glyph glyph-name="Emacron" unicode="&#x112;" horiz-adv-x="790" 
d="M750 161v-161h-700v700h690v-162h-453v-98h425v-162h-425v-117h463zM169 879h463v-105h-463v105z" />
    <glyph glyph-name="emacron" unicode="&#x113;" horiz-adv-x="790" 
d="M712 440v-162h-662v162h662zM50 161h700v-161h-700v161zM741 700v-162h-691v162h691zM169 879h463v-105h-463v105z" />
    <glyph glyph-name="Ebreve" unicode="&#x114;" horiz-adv-x="790" 
d="M750 161v-161h-700v700h690v-162h-453v-98h425v-162h-425v-117h463zM478 905h117q0 -72 -48 -112.5t-147 -40.5q-98 0 -146 40.5t-48 112.5h117q6 -58 77 -58q72 0 78 58z" />
    <glyph glyph-name="ebreve" unicode="&#x115;" horiz-adv-x="790" 
d="M712 440v-162h-662v162h662zM50 161h700v-161h-700v161zM741 700v-162h-691v162h691zM478 905h117q0 -72 -48 -112.5t-147 -40.5q-98 0 -146 40.5t-48 112.5h117q6 -58 77 -58q72 0 78 58z" />
    <glyph glyph-name="Edotaccent" unicode="&#x116;" horiz-adv-x="790" 
d="M750 161v-161h-700v700h690v-162h-453v-98h425v-162h-425v-117h463zM399 923q35 0 60.5 -25.5t25.5 -60.5t-25.5 -60t-60.5 -25t-60 25t-25 60t25 60.5t60 25.5z" />
    <glyph glyph-name="edotaccent" unicode="&#x117;" horiz-adv-x="790" 
d="M712 440v-162h-662v162h662zM50 161h700v-161h-700v161zM741 700v-162h-691v162h691zM399 923q35 0 60.5 -25.5t25.5 -60.5t-25.5 -60t-60.5 -25t-60 25t-25 60t25 60.5t60 25.5z" />
    <glyph glyph-name="Eogonek" unicode="&#x118;" horiz-adv-x="790" 
d="M649 -76q0 -14 11 -21t28.5 -6t32.5 4t29 8v-90q-9 -4 -41 -10t-65 -6q-152 0 -152 87q0 68 89 110h-531v700h690v-162h-453v-98h425v-162h-425v-117h463v-161q-3 -1 -16.5 -6t-19.5 -8t-18 -8.5t-18.5 -10.5t-14 -12t-11 -14.5t-3.5 -16.5z" />
    <glyph glyph-name="eogonek" unicode="&#x119;" horiz-adv-x="790" 
d="M712 440v-162h-662v162h662zM750 161v-161q-3 -1 -14.5 -5.5l-16.5 -6.5t-16.5 -7t-17 -8.5t-13.5 -9.5t-12.5 -11.5t-7.5 -12.5t-3 -15q0 -27 34 -27t67 12v-90q-9 -4 -41 -10t-65 -6q-152 0 -152 87q0 66 89 110h-531v161h700zM740 700v-162h-690v162h690z" />
    <glyph glyph-name="Ecaron" unicode="&#x11a;" horiz-adv-x="790" 
d="M750 161v-161h-700v700h690v-162h-453v-98h425v-162h-425v-117h463zM469 905h190l-148 -148h-222l-148 148h190l69 -77z" />
    <glyph glyph-name="ecaron" unicode="&#x11b;" horiz-adv-x="790" 
d="M712 440v-162h-662v162h662zM50 161h700v-161h-700v161zM741 700v-162h-691v162h691zM469 905h190l-148 -148h-222l-148 148h190l69 -77z" />
    <glyph glyph-name="Gcircumflex" unicode="&#x11c;" horiz-adv-x="950" 
d="M917 416q19 -221 -95 -326t-328 -105q-96 0 -177 20t-146.5 61.5t-103 114t-37.5 169.5q0 96 37.5 168.5t102 114t141.5 61.5t165 20q106 0 191 -24.5t149 -81.5t86 -142h-244q-24 44 -67 66t-116 22q-102 0 -153.5 -52t-51.5 -152q0 -99 60.5 -152t164.5 -53
q142 0 180 100h-210v171h452zM734 757h-190l-69 77l-69 -77h-190l148 148h222z" />
    <glyph glyph-name="gcircumflex" unicode="&#x11d;" horiz-adv-x="953" 
d="M465 416h448v-416h-124l-17 101q-92 -116 -286 -116q-76 0 -142 12t-124.5 39.5t-100 69t-65.5 104t-24 140.5q0 96 37.5 168.5t102 114t141.5 61.5t165 20q164 0 279.5 -58.5t146.5 -179.5h-243q-25 40 -67.5 59t-115.5 19q-102 0 -154 -52t-52 -152q0 -99 61 -152
t165 -53q77 0 125.5 36.5t63.5 82.5h-220v152zM734 757h-190l-69 77l-69 -77h-190l148 148h222z" />
    <glyph glyph-name="Gbreve" unicode="&#x11e;" horiz-adv-x="950" 
d="M917 416q19 -221 -95 -326t-328 -105q-96 0 -177 20t-146.5 61.5t-103 114t-37.5 169.5q0 96 37.5 168.5t102 114t141.5 61.5t165 20q106 0 191 -24.5t149 -81.5t86 -142h-244q-24 44 -67 66t-116 22q-102 0 -153.5 -52t-51.5 -152q0 -99 60.5 -152t164.5 -53
q142 0 180 100h-210v171h452zM552 905h117q0 -72 -48 -112.5t-147 -40.5q-98 0 -146 40.5t-48 112.5h117q6 -58 77 -58q72 0 78 58z" />
    <glyph glyph-name="gbreve" unicode="&#x11f;" horiz-adv-x="953" 
d="M465 416h448v-416h-124l-17 101q-92 -116 -286 -116q-76 0 -142 12t-124.5 39.5t-100 69t-65.5 104t-24 140.5q0 96 37.5 168.5t102 114t141.5 61.5t165 20q164 0 279.5 -58.5t146.5 -179.5h-243q-25 40 -67.5 59t-115.5 19q-102 0 -154 -52t-52 -152q0 -99 61 -152
t165 -53q77 0 125.5 36.5t63.5 82.5h-220v152zM552 905h117q0 -72 -48 -112.5t-147 -40.5q-98 0 -146 40.5t-48 112.5h117q6 -58 77 -58q72 0 78 58z" />
    <glyph glyph-name="Gdotaccent" unicode="&#x120;" horiz-adv-x="950" 
d="M917 416q19 -221 -95 -326t-328 -105q-96 0 -177 20t-146.5 61.5t-103 114t-37.5 169.5q0 96 37.5 168.5t102 114t141.5 61.5t165 20q106 0 191 -24.5t149 -81.5t86 -142h-244q-24 44 -67 66t-116 22q-102 0 -153.5 -52t-51.5 -152q0 -99 60.5 -152t164.5 -53
q142 0 180 100h-210v171h452zM474 923q35 0 60.5 -25.5t25.5 -60.5t-25.5 -60t-60.5 -25t-60 25t-25 60t25 60.5t60 25.5z" />
    <glyph glyph-name="gdotaccent" unicode="&#x121;" horiz-adv-x="953" 
d="M465 416h448v-416h-124l-17 101q-92 -116 -286 -116q-76 0 -142 12t-124.5 39.5t-100 69t-65.5 104t-24 140.5q0 96 37.5 168.5t102 114t141.5 61.5t165 20q164 0 279.5 -58.5t146.5 -179.5h-243q-25 40 -67.5 59t-115.5 19q-102 0 -154 -52t-52 -152q0 -99 61 -152
t165 -53q77 0 125.5 36.5t63.5 82.5h-220v152zM474 923q35 0 60.5 -25.5t25.5 -60.5t-25.5 -60t-60.5 -25t-60 25t-25 60t25 60.5t60 25.5z" />
    <glyph glyph-name="Gcommaaccent" unicode="&#x122;" horiz-adv-x="950" 
d="M917 416q19 -221 -95 -326t-328 -105q-96 0 -177 20t-146.5 61.5t-103 114t-37.5 169.5q0 96 37.5 168.5t102 114t141.5 61.5t165 20q106 0 191 -24.5t149 -81.5t86 -142h-244q-24 44 -67 66t-116 22q-102 0 -153.5 -52t-51.5 -152q0 -99 60.5 -152t164.5 -53
q142 0 180 100h-210v171h452zM391 -66h208l-106 -167h-142z" />
    <glyph glyph-name="gcommaaccent" unicode="&#x123;" horiz-adv-x="953" 
d="M465 416h448v-416h-124l-17 101q-92 -116 -286 -116q-76 0 -142 12t-124.5 39.5t-100 69t-65.5 104t-24 140.5q0 96 37.5 168.5t102 114t141.5 61.5t165 20q164 0 279.5 -58.5t146.5 -179.5h-243q-25 40 -67.5 59t-115.5 19q-102 0 -154 -52t-52 -152q0 -99 61 -152
t165 -53q77 0 125.5 36.5t63.5 82.5h-220v152zM391 -66h208l-106 -167h-142z" />
    <glyph glyph-name="Hcircumflex" unicode="&#x124;" horiz-adv-x="925" 
d="M637 700h237v-700h-237v265h-350v-265h-237v700h237v-264h350v264zM721 757h-190l-69 77l-69 -77h-190l148 148h222z" />
    <glyph glyph-name="hcircumflex" unicode="&#x125;" horiz-adv-x="925" 
d="M638 700h237v-700h-237v264h-204v171h204v265zM50 0v700h237v-700h-237zM721 757h-190l-69 77l-69 -77h-190l148 148h222z" />
    <glyph glyph-name="Hbar" unicode="&#x126;" horiz-adv-x="1015" 
d="M1005 621v-123h-85v-498h-237v265h-351v-265h-237v498h-85v123h85v79h237v-79h351v79h237v-79h85zM683 436v62h-351v-62h351z" />
    <glyph glyph-name="hbar" unicode="&#x127;" horiz-adv-x="1016" 
d="M1006 620v-123h-86v-497h-237v264h-204v171h204v62h-351v-497h-237v497h-85v123h85v80h237v-80h351v80h237v-80h86z" />
    <glyph glyph-name="Itilde" unicode="&#x128;" horiz-adv-x="338" 
d="M50 700h238v-700h-238v700zM270 901h123q0 -155 -111 -155q-54 0 -116 27t-75 27q-24 0 -24 -39h-122q0 69 27.5 111.5t82.5 42.5q53 0 113.5 -27t77.5 -27q12 0 17.5 7t6 13t0.5 20z" />
    <glyph glyph-name="itilde" unicode="&#x129;" horiz-adv-x="338" 
d="M50 700h238v-700h-238v700zM270 901h123q0 -155 -111 -155q-54 0 -116 27t-75 27q-24 0 -24 -39h-122q0 69 27.5 111.5t82.5 42.5q53 0 113.5 -27t77.5 -27q12 0 17.5 7t6 13t0.5 20z" />
    <glyph glyph-name="Imacron" unicode="&#x12a;" horiz-adv-x="338" 
d="M50 700h238v-700h-238v700zM-62 879h463v-105h-463v105z" />
    <glyph glyph-name="imacron" unicode="&#x12b;" horiz-adv-x="338" 
d="M50 700h238v-700h-238v700zM-62 879h463v-105h-463v105z" />
    <glyph glyph-name="Ibreve" unicode="&#x12c;" horiz-adv-x="338" 
d="M50 700h238v-700h-238v700zM247 905h117q0 -72 -48 -112.5t-147 -40.5q-98 0 -146 40.5t-48 112.5h117q6 -58 77 -58q72 0 78 58z" />
    <glyph glyph-name="ibreve" unicode="&#x12d;" horiz-adv-x="338" 
d="M50 700h238v-700h-238v700zM247 905h117q0 -72 -48 -112.5t-147 -40.5q-98 0 -146 40.5t-48 112.5h117q6 -58 77 -58q72 0 78 58z" />
    <glyph glyph-name="Iogonek" unicode="&#x12e;" horiz-adv-x="338" 
d="M187 -76q0 -14 11 -21t28.5 -6t32.5 4t29 8v-90q-9 -4 -41 -10t-65 -6q-152 0 -152 87q0 68 89 110h-69v700h238v-700q-3 -1 -16.5 -6t-19.5 -8t-18 -8.5t-18.5 -10.5t-14 -12t-11 -14.5t-3.5 -16.5z" />
    <glyph glyph-name="iogonek" unicode="&#x12f;" horiz-adv-x="338" 
d="M187 -76q0 -14 11 -21t28.5 -6t32.5 4t29 8v-90q-9 -4 -41 -10t-65 -6q-152 0 -152 87q0 68 89 110h-69v700h238v-700q-3 -1 -16.5 -6t-19.5 -8t-18 -8.5t-18.5 -10.5t-14 -12t-11 -14.5t-3.5 -16.5z" />
    <glyph glyph-name="Idotaccent" unicode="&#x130;" horiz-adv-x="338" 
d="M50 700h238v-700h-238v700zM168 923q35 0 60.5 -25.5t25.5 -60.5t-25.5 -60t-60.5 -25t-60 25t-25 60t25 60.5t60 25.5z" />
    <glyph glyph-name="dotlessi" unicode="&#x131;" horiz-adv-x="338" 
d="M50 700h238v-700h-238v700z" />
    <glyph glyph-name="IJ" unicode="&#x132;" horiz-adv-x="1148" 
d="M50 700h238v-700h-238v700zM861 700h237v-386q0 -82 -19.5 -142.5t-50.5 -96t-80 -56t-98.5 -27.5t-114.5 -7q-84 0 -147.5 14t-114.5 46.5t-78 91.5t-27 144v78h227v-66q0 -77 33 -112.5t107 -35.5q69 0 97.5 41t28.5 128v386z" />
    <glyph glyph-name="ij" unicode="&#x133;" horiz-adv-x="1148" 
d="M50 700h238v-700h-238v700zM643 700h455v-387q0 -82 -19.5 -142t-50.5 -95.5t-80 -56t-98.5 -27.5t-114.5 -7q-84 0 -147.5 14t-114.5 46.5t-78 91.5t-27 144v78h227v-66q0 -77 33 -112.5t107 -35.5q69 0 97.5 40.5t28.5 127.5v225h-218v162z" />
    <glyph glyph-name="Jcircumflex" unicode="&#x134;" horiz-adv-x="810" 
d="M523 700h237v-386q0 -82 -19.5 -142.5t-50.5 -96t-80 -56t-98.5 -27.5t-114.5 -7q-84 0 -147.5 14t-114.5 46.5t-78 91.5t-27 144v78h227v-66q0 -77 33 -112.5t107 -35.5q69 0 97.5 41t28.5 128v386zM894 757h-190l-69 77l-69 -77h-190l148 148h222z" />
    <glyph glyph-name="jcircumflex" unicode="&#x135;" horiz-adv-x="810" 
d="M305 700h455v-387q0 -82 -19.5 -142t-50.5 -95.5t-80 -56t-98.5 -27.5t-114.5 -7q-84 0 -147.5 14t-114.5 46.5t-78 91.5t-27 144v78h227v-66q0 -77 33 -112.5t107 -35.5q69 0 97.5 40.5t28.5 127.5v225h-218v162zM894 757h-190l-69 77l-69 -77h-190l148 148h222z" />
    <glyph glyph-name="Kcommaaccent" unicode="&#x136;" horiz-adv-x="885" 
d="M598 0l-203 289l-108 -96v-193h-237v700h237v-256l281 256h293l-305 -270l319 -430h-277zM338 -66h208l-106 -167h-142z" />
    <glyph glyph-name="kcommaaccent" unicode="&#x137;" horiz-adv-x="885" 
d="M875 0h-306l-282 300v-300h-237v700h237v-297l290 297h284l-345 -333zM338 -66h208l-106 -167h-142z" />
    <glyph glyph-name="kgreenlandic" unicode="&#x138;" horiz-adv-x="885" 
d="M875 0h-306l-282 300v-300h-237v700h237v-297l290 297h284l-345 -333z" />
    <glyph glyph-name="Lacute" unicode="&#x139;" horiz-adv-x="771" 
d="M741 161v-161h-691v700h237v-539h454zM179 905h218l-142 -148h-161z" />
    <glyph glyph-name="lacute" unicode="&#x13a;" horiz-adv-x="771" 
d="M741 161v-161h-691v700h237v-539h454zM179 905h218l-142 -148h-161z" />
    <glyph glyph-name="Lcommaaccent" unicode="&#x13b;" horiz-adv-x="771" 
d="M741 161v-161h-691v700h237v-539h454zM311 -66h208l-106 -167h-142z" />
    <glyph glyph-name="lcommaaccent" unicode="&#x13c;" horiz-adv-x="771" 
d="M741 161v-161h-691v700h237v-539h454zM311 -66h208l-106 -167h-142z" />
    <glyph glyph-name="Lcaron" unicode="&#x13d;" horiz-adv-x="771" 
d="M741 161v-161h-691v700h237v-539h454zM500 700h170l-104 -243h-133z" />
    <glyph glyph-name="lcaron" unicode="&#x13e;" horiz-adv-x="771" 
d="M741 161v-161h-691v700h237v-539h454zM500 700h170l-104 -243h-133z" />
    <glyph glyph-name="Ldot" unicode="&#x13f;" horiz-adv-x="771" 
d="M528 490q45 0 77 -32t32 -76q0 -45 -32 -77t-77 -32t-76.5 32t-31.5 77q0 44 31.5 76t76.5 32zM741 161v-161h-691v700h237v-539h454z" />
    <glyph glyph-name="ldot" unicode="&#x140;" horiz-adv-x="771" 
d="M528 490q45 0 77 -32t32 -76q0 -45 -32 -77t-77 -32t-76.5 32t-31.5 77q0 44 31.5 76t76.5 32zM741 161v-161h-691v700h237v-539h454z" />
    <glyph glyph-name="Lslash" unicode="&#x141;" horiz-adv-x="826" 
d="M796 161v-161h-691v186l-85 -41v135l85 41v379h237v-264l195 95v-135l-195 -95v-140h454z" />
    <glyph glyph-name="lslash" unicode="&#x142;" horiz-adv-x="826" 
d="M796 161v-161h-691v186l-85 -41v135l85 41v379h237v-264l195 95v-135l-195 -95v-140h454z" />
    <glyph glyph-name="Nacute" unicode="&#x143;" horiz-adv-x="906" 
d="M619 700h237v-700h-251l-318 416v-416h-237v700h251l318 -417v417zM456 905h218l-142 -148h-161z" />
    <glyph glyph-name="nacute" unicode="&#x144;" horiz-adv-x="906" 
d="M619 700h237v-700h-251l-318 416v-416h-237v700h251l318 -417v417zM456 905h218l-142 -148h-161z" />
    <glyph glyph-name="Ncommaaccent" unicode="&#x145;" horiz-adv-x="906" 
d="M619 700h237v-700h-251l-318 416v-416h-237v700h251l318 -417v417zM369 -66h208l-106 -167h-142z" />
    <glyph glyph-name="ncommaaccent" unicode="&#x146;" horiz-adv-x="906" 
d="M619 700h237v-700h-251l-318 416v-416h-237v700h251l318 -417v417zM369 -66h208l-106 -167h-142z" />
    <glyph glyph-name="Ncaron" unicode="&#x147;" horiz-adv-x="906" 
d="M619 700h237v-700h-251l-318 416v-416h-237v700h251l318 -417v417zM522 905h190l-148 -148h-222l-148 148h190l69 -77z" />
    <glyph glyph-name="ncaron" unicode="&#x148;" horiz-adv-x="906" 
d="M619 700h237v-700h-251l-318 416v-416h-237v700h251l318 -417v417zM522 905h190l-148 -148h-222l-148 148h190l69 -77z" />
    <glyph glyph-name="napostrophe" unicode="&#x149;" horiz-adv-x="1125" 
d="M67 700h170l-104 -243h-133zM838 700h237v-700h-251l-318 416v-416h-237v700h251l318 -417v417z" />
    <glyph glyph-name="Eng" unicode="&#x14a;" horiz-adv-x="906" 
d="M619 700h237v-700q0 -104 -45 -159.5t-165 -55.5q-70 0 -122 5v156q61 -4 78 7.5t17 46.5l-332 423v-423h-237v700h252l317 -406v406z" />
    <glyph glyph-name="eng" unicode="&#x14b;" horiz-adv-x="906" 
d="M619 700h237v-700q0 -104 -45 -159.5t-165 -55.5q-70 0 -122 5v156q61 -4 78 7.5t17 46.5l-332 423v-423h-237v700h252l317 -406v406z" />
    <glyph glyph-name="Omacron" unicode="&#x14c;" horiz-adv-x="971" 
d="M485 714q71 0 135 -12t123.5 -39.5t102.5 -68.5t69 -103.5t26 -140.5q0 -97 -38.5 -169.5t-105 -114t-145 -61.5t-167.5 -20t-167.5 20t-144.5 61.5t-104.5 114t-38.5 169.5q0 78 25.5 140.5t69 103.5t102.5 68.5t123 39.5t135 12zM485 145q103 0 159 54t56 151
q0 96 -56 150t-159 54q-102 0 -158.5 -54t-56.5 -150t56.5 -150.5t158.5 -54.5zM254 879h463v-105h-463v105z" />
    <glyph glyph-name="omacron" unicode="&#x14d;" horiz-adv-x="971" 
d="M485 714q71 0 135 -12t123.5 -39.5t102.5 -68.5t69 -103.5t26 -140.5q0 -97 -38.5 -169.5t-105 -114t-145 -61.5t-167.5 -20t-167.5 20t-144.5 61.5t-104.5 114t-38.5 169.5q0 78 25.5 140.5t69 103.5t102.5 68.5t123 39.5t135 12zM485 145q103 0 159 54t56 151
q0 96 -56 150t-159 54q-102 0 -158.5 -54t-56.5 -150t56.5 -150.5t158.5 -54.5zM254 879h463v-105h-463v105z" />
    <glyph glyph-name="Obreve" unicode="&#x14e;" horiz-adv-x="971" 
d="M485 714q71 0 135 -12t123.5 -39.5t102.5 -68.5t69 -103.5t26 -140.5q0 -97 -38.5 -169.5t-105 -114t-145 -61.5t-167.5 -20t-167.5 20t-144.5 61.5t-104.5 114t-38.5 169.5q0 78 25.5 140.5t69 103.5t102.5 68.5t123 39.5t135 12zM485 145q103 0 159 54t56 151
q0 96 -56 150t-159 54q-102 0 -158.5 -54t-56.5 -150t56.5 -150.5t158.5 -54.5zM563 905h117q0 -72 -48 -112.5t-147 -40.5q-98 0 -146 40.5t-48 112.5h117q6 -58 77 -58q72 0 78 58z" />
    <glyph glyph-name="obreve" unicode="&#x14f;" horiz-adv-x="971" 
d="M485 714q71 0 135 -12t123.5 -39.5t102.5 -68.5t69 -103.5t26 -140.5q0 -97 -38.5 -169.5t-105 -114t-145 -61.5t-167.5 -20t-167.5 20t-144.5 61.5t-104.5 114t-38.5 169.5q0 78 25.5 140.5t69 103.5t102.5 68.5t123 39.5t135 12zM485 145q103 0 159 54t56 151
q0 96 -56 150t-159 54q-102 0 -158.5 -54t-56.5 -150t56.5 -150.5t158.5 -54.5zM563 905h117q0 -72 -48 -112.5t-147 -40.5q-98 0 -146 40.5t-48 112.5h117q6 -58 77 -58q72 0 78 58z" />
    <glyph glyph-name="Ohungarumlaut" unicode="&#x150;" horiz-adv-x="971" 
d="M485 714q71 0 135 -12t123.5 -39.5t102.5 -68.5t69 -103.5t26 -140.5q0 -97 -38.5 -169.5t-105 -114t-145 -61.5t-167.5 -20t-167.5 20t-144.5 61.5t-104.5 114t-38.5 169.5q0 78 25.5 140.5t69 103.5t102.5 68.5t123 39.5t135 12zM485 145q103 0 159 54t56 151
q0 96 -56 150t-159 54q-102 0 -158.5 -54t-56.5 -150t56.5 -150.5t158.5 -54.5zM619 905h218l-142 -148h-161zM360 905h218l-142 -148h-162z" />
    <glyph glyph-name="ohungarumlaut" unicode="&#x151;" horiz-adv-x="971" 
d="M485 714q71 0 135 -12t123.5 -39.5t102.5 -68.5t69 -103.5t26 -140.5q0 -97 -38.5 -169.5t-105 -114t-145 -61.5t-167.5 -20t-167.5 20t-144.5 61.5t-104.5 114t-38.5 169.5q0 78 25.5 140.5t69 103.5t102.5 68.5t123 39.5t135 12zM485 145q103 0 159 54t56 151
q0 96 -56 150t-159 54q-102 0 -158.5 -54t-56.5 -150t56.5 -150.5t158.5 -54.5zM619 905h218l-142 -148h-161zM360 905h218l-142 -148h-162z" />
    <glyph glyph-name="OE" unicode="&#x152;" horiz-adv-x="1320" 
d="M1280 161v-161h-780q-470 0 -470 350t470 350h771v-162h-454v-98h425v-161h-425v-118h463zM553 161h27v377h-27q-52 0 -84.5 -2t-74.5 -12.5t-66 -29.5t-41 -55.5t-17 -88.5t17 -89t41 -56t66 -29.5t74.5 -12.5t84.5 -2z" />
    <glyph glyph-name="oe" unicode="&#x153;" horiz-adv-x="1321" 
d="M1281 161v-161h-781q-470 0 -470 350t470 350h771v-162h-717q-52 0 -85 -2t-75 -12.5t-65.5 -29.5t-40.5 -55.5t-17 -88.5q0 -44 10.5 -77t32 -53t45 -32.5t60 -18t64.5 -7t71 -1.5h26v279h663v-162h-425v-117h463z" />
    <glyph glyph-name="Racute" unicode="&#x154;" horiz-adv-x="880" 
d="M615 0l-142 227h-186v-227h-237v700h498q143 0 221 -62t78 -170q0 -152 -143 -210l166 -258h-255zM287 538v-151h227q92 0 92 81q0 70 -92 70h-227zM403 905h218l-142 -148h-161z" />
    <glyph glyph-name="racute" unicode="&#x155;" horiz-adv-x="880" 
d="M829 155q0 -112 41 -155h-247q-15 23 -18.5 49.5t-3.5 91.5q0 61 -28.5 83t-97.5 22h-188v-246h-237v700h507q289 0 289 -208q0 -68 -40 -109.5t-97 -57.5q61 -17 90.5 -57t29.5 -113zM512 397q94 0 94 75q0 35 -22.5 50.5t-71.5 15.5h-225v-141h225zM403 905h218
l-142 -148h-161z" />
    <glyph glyph-name="Rcommaaccent" unicode="&#x156;" horiz-adv-x="880" 
d="M615 0l-142 227h-186v-227h-237v700h498q143 0 221 -62t78 -170q0 -152 -143 -210l166 -258h-255zM287 538v-151h227q92 0 92 81q0 70 -92 70h-227zM356 -66h208l-106 -167h-142z" />
    <glyph glyph-name="rcommaaccent" unicode="&#x157;" horiz-adv-x="880" 
d="M829 155q0 -112 41 -155h-247q-15 23 -18.5 49.5t-3.5 91.5q0 61 -28.5 83t-97.5 22h-188v-246h-237v700h507q289 0 289 -208q0 -68 -40 -109.5t-97 -57.5q61 -17 90.5 -57t29.5 -113zM512 397q94 0 94 75q0 35 -22.5 50.5t-71.5 15.5h-225v-141h225zM356 -66h208
l-106 -167h-142z" />
    <glyph glyph-name="Rcaron" unicode="&#x158;" horiz-adv-x="880" 
d="M615 0l-142 227h-186v-227h-237v700h498q143 0 221 -62t78 -170q0 -152 -143 -210l166 -258h-255zM287 538v-151h227q92 0 92 81q0 70 -92 70h-227zM499 905h190l-148 -148h-222l-148 148h190l69 -77z" />
    <glyph glyph-name="rcaron" unicode="&#x159;" horiz-adv-x="880" 
d="M829 155q0 -112 41 -155h-247q-15 23 -18.5 49.5t-3.5 91.5q0 61 -28.5 83t-97.5 22h-188v-246h-237v700h507q289 0 289 -208q0 -68 -40 -109.5t-97 -57.5q61 -17 90.5 -57t29.5 -113zM512 397q94 0 94 75q0 35 -22.5 50.5t-71.5 15.5h-225v-141h225zM499 905h190
l-148 -148h-222l-148 148h190l69 -77z" />
    <glyph glyph-name="Sacute" unicode="&#x15a;" horiz-adv-x="871" 
d="M479 437q49 -5 71 -7.5t63.5 -8.5t60 -11l49.5 -14t45.5 -19t34 -25.5t27.5 -34t14.5 -42.5t6.5 -53q0 -124 -104 -180.5t-314 -56.5q-413 0 -413 242h248q0 -83 178 -83q150 0 150 53q0 26 -30 35.5t-130 23.5l-109 16q-165 25 -228 70t-63 148q0 224 385 224
q207 0 296 -63t89 -165h-241q0 69 -147 69q-74 0 -110 -12.5t-36 -41.5q0 -35 74 -49q24 -4 133 -15zM409 905h218l-142 -148h-161z" />
    <glyph glyph-name="sacute" unicode="&#x15b;" horiz-adv-x="871" 
d="M479 437q49 -5 71 -7.5t63.5 -8.5t60 -11l49.5 -14t45.5 -19t34 -25.5t27.5 -34t14.5 -42.5t6.5 -53q0 -124 -104 -180.5t-314 -56.5q-413 0 -413 242h248q0 -83 178 -83q150 0 150 53q0 26 -30 35.5t-130 23.5l-109 16q-165 25 -228 70t-63 148q0 224 385 224
q207 0 296 -63t89 -165h-241q0 69 -147 69q-74 0 -110 -12.5t-36 -41.5q0 -35 74 -49q24 -4 133 -15zM409 905h218l-142 -148h-161z" />
    <glyph glyph-name="Scircumflex" unicode="&#x15c;" horiz-adv-x="871" 
d="M479 437q49 -5 71 -7.5t63.5 -8.5t60 -11l49.5 -14t45.5 -19t34 -25.5t27.5 -34t14.5 -42.5t6.5 -53q0 -124 -104 -180.5t-314 -56.5q-413 0 -413 242h248q0 -83 178 -83q150 0 150 53q0 26 -30 35.5t-130 23.5l-109 16q-165 25 -228 70t-63 148q0 224 385 224
q207 0 296 -63t89 -165h-241q0 69 -147 69q-74 0 -110 -12.5t-36 -41.5q0 -35 74 -49q24 -4 133 -15zM694 757h-190l-69 77l-69 -77h-190l148 148h222z" />
    <glyph glyph-name="scircumflex" unicode="&#x15d;" horiz-adv-x="871" 
d="M479 437q49 -5 71 -7.5t63.5 -8.5t60 -11l49.5 -14t45.5 -19t34 -25.5t27.5 -34t14.5 -42.5t6.5 -53q0 -124 -104 -180.5t-314 -56.5q-413 0 -413 242h248q0 -83 178 -83q150 0 150 53q0 26 -30 35.5t-130 23.5l-109 16q-165 25 -228 70t-63 148q0 224 385 224
q207 0 296 -63t89 -165h-241q0 69 -147 69q-74 0 -110 -12.5t-36 -41.5q0 -35 74 -49q24 -4 133 -15zM694 757h-190l-69 77l-69 -77h-190l148 148h222z" />
    <glyph glyph-name="Scedilla" unicode="&#x15e;" horiz-adv-x="871" 
d="M467 -45q34 6 70 6.5t64.5 -21.5t28.5 -64q0 -108 -170 -108q-66 0 -130 16v81q42 -17 90 -17q62 0 62 27q0 32 -124 15q-9 -1 -13 -2v54l32 44q-357 17 -357 241h248q0 -83 178 -83q150 0 150 53q0 26 -30 35.5t-130 23.5l-109 16q-165 25 -228 70t-63 148
q0 224 385 224q207 0 296 -63t89 -165h-241q0 69 -147 69q-74 0 -110 -12.5t-36 -41.5q0 -35 74 -49q24 -4 133 -15q49 -5 71 -7.5t63.5 -8.5t60 -11l49.5 -14t45.5 -19t34 -25.5t27.5 -34t14.5 -42.5t6.5 -53q0 -115 -89.5 -171.5t-271.5 -64.5z" />
    <glyph glyph-name="scedilla" unicode="&#x15f;" horiz-adv-x="871" 
d="M467 -45q34 6 70 6.5t64.5 -21.5t28.5 -64q0 -108 -170 -108q-66 0 -130 16v81q42 -17 90 -17q62 0 62 27q0 32 -124 15q-9 -1 -13 -2v54l32 44q-357 17 -357 241h248q0 -83 178 -83q150 0 150 53q0 26 -30 35.5t-130 23.5l-109 16q-165 25 -228 70t-63 148
q0 224 385 224q207 0 296 -63t89 -165h-241q0 69 -147 69q-74 0 -110 -12.5t-36 -41.5q0 -35 74 -49q24 -4 133 -15q49 -5 71 -7.5t63.5 -8.5t60 -11l49.5 -14t45.5 -19t34 -25.5t27.5 -34t14.5 -42.5t6.5 -53q0 -115 -89.5 -171.5t-271.5 -64.5z" />
    <glyph glyph-name="Scaron" unicode="&#x160;" horiz-adv-x="871" 
d="M479 437q49 -5 71 -7.5t63.5 -8.5t60 -11l49.5 -14t45.5 -19t34 -25.5t27.5 -34t14.5 -42.5t6.5 -53q0 -124 -104 -180.5t-314 -56.5q-413 0 -413 242h248q0 -83 178 -83q150 0 150 53q0 26 -30 35.5t-130 23.5l-109 16q-165 25 -228 70t-63 148q0 224 385 224
q207 0 296 -63t89 -165h-241q0 69 -147 69q-74 0 -110 -12.5t-36 -41.5q0 -35 74 -49q24 -4 133 -15zM504 905h190l-148 -148h-222l-148 148h190l69 -77z" />
    <glyph glyph-name="scaron" unicode="&#x161;" horiz-adv-x="871" 
d="M479 437q49 -5 71 -7.5t63.5 -8.5t60 -11l49.5 -14t45.5 -19t34 -25.5t27.5 -34t14.5 -42.5t6.5 -53q0 -124 -104 -180.5t-314 -56.5q-413 0 -413 242h248q0 -83 178 -83q150 0 150 53q0 26 -30 35.5t-130 23.5l-109 16q-165 25 -228 70t-63 148q0 224 385 224
q207 0 296 -63t89 -165h-241q0 69 -147 69q-74 0 -110 -12.5t-36 -41.5q0 -35 74 -49q24 -4 133 -15zM504 905h190l-148 -148h-222l-148 148h190l69 -77z" />
    <glyph glyph-name="Tcommaaccent" unicode="&#x162;" horiz-adv-x="827" 
d="M797 700v-162h-265v-538h-237v538h-265v162h767zM309 -66h208l-106 -167h-142z" />
    <glyph glyph-name="tcommaaccent" unicode="&#x163;" horiz-adv-x="827" 
d="M797 700v-162h-265v-538h-237v538h-265v162h767zM309 -66h208l-106 -167h-142z" />
    <glyph glyph-name="Tcaron" unicode="&#x164;" horiz-adv-x="827" 
d="M797 700v-162h-265v-538h-237v538h-265v162h767zM482 905h190l-148 -148h-222l-148 148h190l69 -77z" />
    <glyph glyph-name="tcaron" unicode="&#x165;" horiz-adv-x="827" 
d="M797 700v-162h-265v-538h-237v538h-265v162h767zM482 905h190l-148 -148h-222l-148 148h190l69 -77z" />
    <glyph glyph-name="Tbar" unicode="&#x166;" horiz-adv-x="827" 
d="M797 538h-265v-127h150v-123h-150v-288h-237v288h-150v123h150v127h-265v162h767v-162z" />
    <glyph glyph-name="tbar" unicode="&#x167;" horiz-adv-x="827" 
d="M797 538h-265v-127h150v-123h-150v-288h-237v288h-150v123h150v127h-265v162h767v-162z" />
    <glyph glyph-name="Utilde" unicode="&#x168;" horiz-adv-x="878" 
d="M591 700h237v-407q0 -79 -22 -136t-56.5 -89.5t-88.5 -51.5t-104.5 -25t-117.5 -6t-117.5 6t-104.5 25t-88.5 51.5t-56.5 89.5t-22 136v407h237v-388q0 -100 36.5 -133.5t115.5 -33.5q78 0 115 33.5t37 133.5v388zM540 901h123q0 -155 -111 -155q-54 0 -116 27t-75 27
q-24 0 -24 -39h-122q0 69 27.5 111.5t82.5 42.5q53 0 113.5 -27t77.5 -27q12 0 17.5 7t6 13t0.5 20z" />
    <glyph glyph-name="utilde" unicode="&#x169;" horiz-adv-x="878" 
d="M50 236v464h238v-464h-238zM591 700h237v-407q0 -79 -22 -136t-56.5 -89.5t-88.5 -51.5t-104.5 -25t-117.5 -6v160q79 0 115.5 33.5t36.5 133.5v388zM540 901h123q0 -155 -111 -155q-54 0 -116 27t-75 27q-24 0 -24 -39h-122q0 69 27.5 111.5t82.5 42.5q53 0 113.5 -27
t77.5 -27q12 0 17.5 7t6 13t0.5 20z" />
    <glyph glyph-name="Umacron" unicode="&#x16a;" horiz-adv-x="878" 
d="M591 700h237v-407q0 -79 -22 -136t-56.5 -89.5t-88.5 -51.5t-104.5 -25t-117.5 -6t-117.5 6t-104.5 25t-88.5 51.5t-56.5 89.5t-22 136v407h237v-388q0 -100 36.5 -133.5t115.5 -33.5q78 0 115 33.5t37 133.5v388zM208 879h463v-105h-463v105z" />
    <glyph glyph-name="umacron" unicode="&#x16b;" horiz-adv-x="878" 
d="M50 236v464h238v-464h-238zM591 700h237v-407q0 -79 -22 -136t-56.5 -89.5t-88.5 -51.5t-104.5 -25t-117.5 -6v160q79 0 115.5 33.5t36.5 133.5v388zM208 879h463v-105h-463v105z" />
    <glyph glyph-name="Ubreve" unicode="&#x16c;" horiz-adv-x="878" 
d="M591 700h237v-407q0 -79 -22 -136t-56.5 -89.5t-88.5 -51.5t-104.5 -25t-117.5 -6t-117.5 6t-104.5 25t-88.5 51.5t-56.5 89.5t-22 136v407h237v-388q0 -100 36.5 -133.5t115.5 -33.5q78 0 115 33.5t37 133.5v388zM517 905h117q0 -72 -48 -112.5t-147 -40.5
q-98 0 -146 40.5t-48 112.5h117q6 -58 77 -58q72 0 78 58z" />
    <glyph glyph-name="ubreve" unicode="&#x16d;" horiz-adv-x="878" 
d="M50 236v464h238v-464h-238zM591 700h237v-407q0 -79 -22 -136t-56.5 -89.5t-88.5 -51.5t-104.5 -25t-117.5 -6v160q79 0 115.5 33.5t36.5 133.5v388zM517 905h117q0 -72 -48 -112.5t-147 -40.5q-98 0 -146 40.5t-48 112.5h117q6 -58 77 -58q72 0 78 58z" />
    <glyph glyph-name="Uring" unicode="&#x16e;" horiz-adv-x="878" 
d="M591 700h237v-407q0 -79 -22 -136t-56.5 -89.5t-88.5 -51.5t-104.5 -25t-117.5 -6t-117.5 6t-104.5 25t-88.5 51.5t-56.5 89.5t-22 136v407h237v-388q0 -100 36.5 -133.5t115.5 -33.5q78 0 115 33.5t37 133.5v388zM440 1013q58 0 96.5 -38.5t38.5 -97.5
q0 -58 -38.5 -96.5t-96.5 -38.5t-97 38.5t-39 96.5q0 59 39 97.5t97 38.5zM440 827q22 0 36 14t14 36t-14 36t-36 14q-23 0 -36.5 -14t-13.5 -36t13.5 -36t36.5 -14z" />
    <glyph glyph-name="uring" unicode="&#x16f;" horiz-adv-x="878" 
d="M50 236v464h238v-464h-238zM591 700h237v-407q0 -79 -22 -136t-56.5 -89.5t-88.5 -51.5t-104.5 -25t-117.5 -6v160q79 0 115.5 33.5t36.5 133.5v388zM440 1013q58 0 96.5 -38.5t38.5 -97.5q0 -58 -38.5 -96.5t-96.5 -38.5t-97 38.5t-39 96.5q0 59 39 97.5t97 38.5z
M440 827q22 0 36 14t14 36t-14 36t-36 14q-23 0 -36.5 -14t-13.5 -36t13.5 -36t36.5 -14z" />
    <glyph glyph-name="Uhungarumlaut" unicode="&#x170;" horiz-adv-x="878" 
d="M591 700h237v-407q0 -79 -22 -136t-56.5 -89.5t-88.5 -51.5t-104.5 -25t-117.5 -6t-117.5 6t-104.5 25t-88.5 51.5t-56.5 89.5t-22 136v407h237v-388q0 -100 36.5 -133.5t115.5 -33.5q78 0 115 33.5t37 133.5v388zM572 905h218l-142 -148h-161zM313 905h218l-142 -148
h-162z" />
    <glyph glyph-name="uhungarumlaut" unicode="&#x171;" horiz-adv-x="878" 
d="M50 236v464h238v-464h-238zM591 700h237v-407q0 -79 -22 -136t-56.5 -89.5t-88.5 -51.5t-104.5 -25t-117.5 -6v160q79 0 115.5 33.5t36.5 133.5v388zM572 905h218l-142 -148h-161zM313 905h218l-142 -148h-162z" />
    <glyph glyph-name="Uogonek" unicode="&#x172;" horiz-adv-x="878" 
d="M591 700h237v-407q0 -132 -56 -199.5t-156 -91.5q-69 -27 -87 -46q-14 -15 -14 -32q0 -14 11 -21t28.5 -6t32.5 4t29 8v-90q-8 -4 -41 -10t-65 -6q-152 0 -152 87q0 56 63 95q-64 1 -113 8t-100 26.5t-83.5 52.5t-53.5 89t-21 132v407h237v-388q0 -100 36.5 -133.5
t115.5 -33.5q78 0 115 33.5t37 133.5v388z" />
    <glyph glyph-name="uogonek" unicode="&#x173;" horiz-adv-x="877" 
d="M50 236v464h237v-464h-237zM590 700h237v-407q0 -132 -56 -199.5t-156 -91.5q-1 0 -12.5 -4.5t-14.5 -6t-14 -6.5t-15.5 -7.5t-13 -8t-12.5 -10l-9 -10.5t-7 -12t-2 -13q0 -27 33.5 -27t66.5 12v-90q-9 -4 -41 -10t-64 -6q-152 0 -152 87q0 63 80 106v149
q79 0 115.5 33.5t36.5 133.5v388z" />
    <glyph glyph-name="Wcircumflex" unicode="&#x174;" horiz-adv-x="1216" 
d="M969 700h247l-229 -700h-265l-114 421l-115 -421h-265l-228 700h246l129 -471l128 471h209l128 -471zM867 757h-190l-69 77l-69 -77h-190l148 148h222z" />
    <glyph glyph-name="wcircumflex" unicode="&#x175;" horiz-adv-x="1216" 
d="M969 700h247l-229 -700h-265l-114 421l-115 -421h-265l-228 700h246l129 -471l128 471h209l128 -471zM867 757h-190l-69 77l-69 -77h-190l148 148h222z" />
    <glyph glyph-name="Ycircumflex" unicode="&#x176;" horiz-adv-x="885" 
d="M622 700h263l-324 -452v-248h-237v248l-324 452h263l179 -279zM701 757h-190l-69 77l-69 -77h-190l148 148h222z" />
    <glyph glyph-name="ycircumflex" unicode="&#x177;" horiz-adv-x="885" 
d="M623 700h262l-273 -381l-117 182zM263 700l298 -463v-237h-237v248l-324 452h263zM701 757h-190l-69 77l-69 -77h-190l148 148h222z" />
    <glyph glyph-name="Ydieresis" unicode="&#x178;" horiz-adv-x="885" 
d="M622 700h263l-324 -452v-248h-237v248l-324 452h263l179 -279zM314 923q35 0 60.5 -25.5t25.5 -60.5t-25.5 -60t-60.5 -25t-60 25t-25 60t25 60.5t60 25.5zM569 923q35 0 60.5 -25.5t25.5 -60.5t-25.5 -60t-60.5 -25t-60 25t-25 60t25 60.5t60 25.5z" />
    <glyph glyph-name="Zacute" unicode="&#x179;" horiz-adv-x="846" 
d="M374 161h442v-161h-786v142l433 396h-414v162h758v-143zM416 905h218l-142 -148h-161z" />
    <glyph glyph-name="zacute" unicode="&#x17a;" horiz-adv-x="845" 
d="M345 161h470v-161h-785v189l460 349h-441v162h757v-190zM416 905h218l-142 -148h-161z" />
    <glyph glyph-name="Zdotaccent" unicode="&#x17b;" horiz-adv-x="846" 
d="M374 161h442v-161h-786v142l433 396h-414v162h758v-143zM442 923q35 0 60.5 -25.5t25.5 -60.5t-25.5 -60t-60.5 -25t-60 25t-25 60t25 60.5t60 25.5z" />
    <glyph glyph-name="zdotaccent" unicode="&#x17c;" horiz-adv-x="845" 
d="M345 161h470v-161h-785v189l460 349h-441v162h757v-190zM442 923q35 0 60.5 -25.5t25.5 -60.5t-25.5 -60t-60.5 -25t-60 25t-25 60t25 60.5t60 25.5z" />
    <glyph glyph-name="Zcaron" unicode="&#x17d;" horiz-adv-x="846" 
d="M374 161h442v-161h-786v142l433 396h-414v162h758v-143zM512 905h190l-148 -148h-222l-148 148h190l69 -77z" />
    <glyph glyph-name="zcaron" unicode="&#x17e;" horiz-adv-x="845" 
d="M345 161h470v-161h-785v189l460 349h-441v162h757v-190zM512 905h190l-148 -148h-222l-148 148h190l69 -77z" />
    <glyph glyph-name="longs" unicode="&#x17f;" horiz-adv-x="474" 
d="M464 595q-68 12 -108 0t-40 -62v-533h-218v410h-88v123h88q0 100 50.5 152.5t186.5 52.5q38 0 129 -7v-136z" />
    <glyph glyph-name="AEacute" unicode="&#x1fc;" horiz-adv-x="1338" 
d="M1298 161v-161h-701v108h-285l-65 -108h-247l447 700h841v-162h-454v-98h426v-161h-426v-118h464zM409 270h188v268h-28zM742 905h218l-142 -148h-161z" />
    <glyph glyph-name="aeacute" unicode="&#x1fd;" horiz-adv-x="1337" 
d="M1297 161v-161h-700v108h-285l-65 -108h-247l447 700h840v-162h-718l-161 -268h189v170h662v-162h-425v-117h463zM742 905h218l-142 -148h-161z" />
    <glyph glyph-name="Oslashacute" unicode="&#x1fe;" horiz-adv-x="971" 
d="M840 599q101 -94 101 -249q0 -97 -38.5 -169.5t-105 -114t-145 -61.5t-167.5 -20q-145 0 -253 49l-77 -71l-80 86l55 52q-100 93 -100 249q0 78 25.5 140.5t69 103.5t102.5 68.5t123 39.5t135 12q144 0 254 -49l77 71l79 -86zM270 350q0 -58 21 -101l305 284
q-46 21 -111 21q-102 0 -158.5 -54t-56.5 -150zM485 145q103 0 159 54t56 151q0 57 -20 100l-306 -283q49 -22 111 -22zM479 905h218l-142 -148h-161z" />
    <glyph glyph-name="oslashacute" unicode="&#x1ff;" horiz-adv-x="970" 
d="M840 599q101 -94 101 -249q0 -97 -38.5 -169.5t-105 -114t-145 -61.5t-167.5 -20q-145 0 -253 49l-77 -71l-80 86l55 52q-100 93 -100 249q0 78 25.5 140.5t69 103.5t102.5 68.5t123 39.5t135 12q144 0 254 -49l77 71l79 -86zM270 350q0 -58 21 -101l305 284
q-46 21 -111 21q-102 0 -158.5 -54t-56.5 -150zM485 145q103 0 159 54t56 151q0 57 -20 100l-306 -283q49 -22 111 -22zM479 905h218l-142 -148h-161z" />
    <glyph glyph-name="Scommaaccent" unicode="&#x218;" horiz-adv-x="871" 
d="M479 437q49 -5 71 -7.5t63.5 -8.5t60 -11l49.5 -14t45.5 -19t34 -25.5t27.5 -34t14.5 -42.5t6.5 -53q0 -124 -104 -180.5t-314 -56.5q-413 0 -413 242h248q0 -83 178 -83q150 0 150 53q0 26 -30 35.5t-130 23.5l-109 16q-165 25 -228 70t-63 148q0 224 385 224
q207 0 296 -63t89 -165h-241q0 69 -147 69q-74 0 -110 -12.5t-36 -41.5q0 -35 74 -49q24 -4 133 -15zM341 -66h208l-106 -167h-142z" />
    <glyph glyph-name="scommaaccent" unicode="&#x219;" horiz-adv-x="871" 
d="M479 437q49 -5 71 -7.5t63.5 -8.5t60 -11l49.5 -14t45.5 -19t34 -25.5t27.5 -34t14.5 -42.5t6.5 -53q0 -124 -104 -180.5t-314 -56.5q-413 0 -413 242h248q0 -83 178 -83q150 0 150 53q0 26 -30 35.5t-130 23.5l-109 16q-165 25 -228 70t-63 148q0 224 385 224
q207 0 296 -63t89 -165h-241q0 69 -147 69q-74 0 -110 -12.5t-36 -41.5q0 -35 74 -49q24 -4 133 -15zM341 -66h208l-106 -167h-142z" />
    <glyph glyph-name="circumflex" unicode="&#x2c6;" horiz-adv-x="618" 
d="M568 557h-190l-69 77l-69 -77h-190l148 148h222z" />
    <glyph glyph-name="caron" unicode="&#x2c7;" horiz-adv-x="618" 
d="M378 705h190l-148 -148h-222l-148 148h190l69 -77z" />
    <glyph glyph-name="breve" unicode="&#x2d8;" horiz-adv-x="489" 
d="M322 705h117q0 -72 -48 -112.5t-147 -40.5q-98 0 -146 40.5t-48 112.5h117q6 -58 77 -58q72 0 78 58z" />
    <glyph glyph-name="dotaccent" unicode="&#x2d9;" horiz-adv-x="271" 
d="M135 723q35 0 60.5 -25.5t25.5 -60.5t-25.5 -60t-60.5 -25t-60 25t-25 60t25 60.5t60 25.5z" />
    <glyph glyph-name="ring" unicode="&#x2da;" horiz-adv-x="371" 
d="M186 813q58 0 96.5 -38.5t38.5 -97.5q0 -58 -38.5 -96.5t-96.5 -38.5t-97 38.5t-39 96.5q0 59 39 97.5t97 38.5zM186 627q22 0 36 14t14 36t-14 36t-36 14q-23 0 -36.5 -14t-13.5 -36t13.5 -36t36.5 -14z" />
    <glyph glyph-name="ogonek" unicode="&#x2db;" horiz-adv-x="358" 
d="M308 0q-3 -1 -16.5 -6t-19.5 -8t-18 -8.5t-18.5 -10.5t-14 -12t-11 -14.5t-3.5 -16.5q0 -14 11 -21t28.5 -6t32.5 4t29 8v-90q-9 -4 -41 -10t-65 -6q-152 0 -152 87q0 68 89 110h169z" />
    <glyph glyph-name="tilde" unicode="&#x2dc;" horiz-adv-x="548" 
d="M375 701h123q0 -155 -111 -155q-54 0 -116 27t-75 27q-24 0 -24 -39h-122q0 69 27.5 111.5t82.5 42.5q53 0 113.5 -27t77.5 -27q12 0 17.5 7t6 13t0.5 20z" />
    <glyph glyph-name="hungarumlaut" unicode="&#x2dd;" horiz-adv-x="663" 
d="M395 705h218l-142 -148h-161zM136 705h218l-142 -148h-162z" />
    <glyph glyph-name="Wgrave" unicode="&#x1e80;" horiz-adv-x="1216" 
d="M969 700h247l-229 -700h-265l-114 421l-115 -421h-265l-228 700h246l129 -471l128 471h209l128 -471zM604 905l86 -148h-161l-143 148h218z" />
    <glyph glyph-name="wgrave" unicode="&#x1e81;" horiz-adv-x="1216" 
d="M969 700h247l-229 -700h-265l-114 421l-115 -421h-265l-228 700h246l129 -471l128 471h209l128 -471zM604 905l86 -148h-161l-143 148h218z" />
    <glyph glyph-name="Wacute" unicode="&#x1e82;" horiz-adv-x="1216" 
d="M969 700h247l-229 -700h-265l-114 421l-115 -421h-265l-228 700h246l129 -471l128 471h209l128 -471zM611 905h218l-142 -148h-161z" />
    <glyph glyph-name="wacute" unicode="&#x1e83;" horiz-adv-x="1216" 
d="M969 700h247l-229 -700h-265l-114 421l-115 -421h-265l-228 700h246l129 -471l128 471h209l128 -471zM611 905h218l-142 -148h-161z" />
    <glyph glyph-name="Wdieresis" unicode="&#x1e84;" horiz-adv-x="1216" 
d="M969 700h247l-229 -700h-265l-114 421l-115 -421h-265l-228 700h246l129 -471l128 471h209l128 -471zM480 923q35 0 60.5 -25.5t25.5 -60.5t-25.5 -60t-60.5 -25t-60 25t-25 60t25 60.5t60 25.5zM735 923q35 0 60.5 -25.5t25.5 -60.5t-25.5 -60t-60.5 -25t-60 25t-25 60
t25 60.5t60 25.5z" />
    <glyph glyph-name="wdieresis" unicode="&#x1e85;" horiz-adv-x="1216" 
d="M969 700h247l-229 -700h-265l-114 421l-115 -421h-265l-228 700h246l129 -471l128 471h209l128 -471zM480 923q35 0 60.5 -25.5t25.5 -60.5t-25.5 -60t-60.5 -25t-60 25t-25 60t25 60.5t60 25.5zM735 923q35 0 60.5 -25.5t25.5 -60.5t-25.5 -60t-60.5 -25t-60 25t-25 60
t25 60.5t60 25.5z" />
    <glyph glyph-name="Ygrave" unicode="&#x1ef2;" horiz-adv-x="885" 
d="M622 700h263l-324 -452v-248h-237v248l-324 452h263l179 -279zM448 905l86 -148h-161l-143 148h218z" />
    <glyph glyph-name="ygrave" unicode="&#x1ef3;" horiz-adv-x="885" 
d="M623 700h262l-273 -381l-117 182zM263 700l298 -463v-237h-237v248l-324 452h263zM448 905l86 -148h-161l-143 148h218z" />
    <glyph glyph-name="endash" unicode="&#x2013;" horiz-adv-x="636" 
d="M50 353h536v-143h-536v143z" />
    <glyph glyph-name="emdash" unicode="&#x2014;" horiz-adv-x="740" 
d="M50 353h640v-143h-640v143z" />
    <glyph glyph-name="quoteleft" unicode="&#x2018;" horiz-adv-x="277" 
d="M124 700h133l-66 -243h-171z" />
    <glyph glyph-name="quoteright" unicode="&#x2019;" horiz-adv-x="277" 
d="M87 700h170l-104 -243h-133z" />
    <glyph glyph-name="quotesinglbase" unicode="&#x201a;" horiz-adv-x="277" 
d="M87 147h170l-104 -243h-133z" />
    <glyph glyph-name="quotedblleft" unicode="&#x201c;" horiz-adv-x="491" 
d="M338 700h133l-66 -243h-171zM125 700h132l-66 -243h-171z" />
    <glyph glyph-name="quotedblright" unicode="&#x201d;" horiz-adv-x="491" 
d="M87 700h171l-105 -243h-133zM301 700h170l-104 -243h-133z" />
    <glyph glyph-name="quotedblbase" unicode="&#x201e;" horiz-adv-x="491" 
d="M87 147h171l-105 -243h-133zM301 147h170l-104 -243h-133z" />
    <glyph glyph-name="dagger" unicode="&#x2020;" horiz-adv-x="663" 
d="M633 490v-152h-207v-524h-189v524h-207v152h207v210h189v-210h207z" />
    <glyph glyph-name="daggerdbl" unicode="&#x2021;" horiz-adv-x="663" 
d="M633 338h-207v-163h207v-151h-207v-210h-190v210h-206v151h206v163h-206v152h206v210h190v-210h207v-152z" />
    <glyph glyph-name="bullet" unicode="&#x2022;" horiz-adv-x="403" 
d="M202 203q-73 0 -117.5 39t-44.5 108t44.5 108.5t117.5 39.5q72 0 116.5 -39.5t44.5 -108.5t-44.5 -108t-116.5 -39z" />
    <glyph glyph-name="ellipsis" unicode="&#x2026;" horiz-adv-x="911" 
d="M138 202q45 0 77 -32t32 -76q0 -45 -32 -77t-77 -32t-76.5 32t-31.5 77q0 44 31.5 76t76.5 32zM455 202q45 0 77 -32t32 -76q0 -45 -32 -77t-77 -32t-76.5 32t-31.5 77q0 44 31.5 76t76.5 32zM772 202q45 0 77 -32t32 -76q0 -45 -32 -77t-77 -32t-76.5 32t-31.5 77
q0 44 31.5 76t76.5 32z" />
    <glyph glyph-name="perthousand" unicode="&#x2030;" horiz-adv-x="1628" 
d="M719 700h132l-446 -700h-131zM490 513q0 -98 -60.5 -149t-169.5 -51t-169.5 51t-60.5 149t60 149.5t170 51.5t170 -51.5t60 -149.5zM260 414q76 0 76 99q0 100 -76 100t-76 -100q0 -99 76 -99zM865 387q109 0 169.5 -51.5t60.5 -149.5t-60.5 -149.5t-169.5 -51.5
t-169.5 51.5t-60.5 149.5t60.5 149.5t169.5 51.5zM865 87q76 0 76 99t-76 99t-76 -99t76 -99zM1367 387q109 0 170 -51.5t61 -149.5t-61 -149.5t-170 -51.5t-169.5 51.5t-60.5 149.5t60.5 149.5t169.5 51.5zM1367 87q76 0 76 99t-76 99t-76 -99t76 -99z" />
    <glyph glyph-name="guilsinglleft" unicode="&#x2039;" horiz-adv-x="278" 
d="M30 199v165l208 158v-172l-101 -69l101 -68v-172z" />
    <glyph glyph-name="guilsinglright" unicode="&#x203a;" horiz-adv-x="279" 
d="M40 522l209 -158v-165l-209 -158v172l102 68l-102 69v172z" />
    <glyph glyph-name="fraction" unicode="&#x2044;" horiz-adv-x="520" 
d="M337 738h173l-327 -776h-173z" />
    <glyph glyph-name="Euro" unicode="&#x20ac;" horiz-adv-x="1006" 
d="M545 145q82 0 126.5 36t61.5 106h243q-12 -80 -51.5 -139.5t-99 -94.5t-129.5 -51.5t-151 -16.5q-101 0 -184.5 24.5t-149 83t-89.5 147.5h-102v95h89q0 3 -0.5 8t-0.5 7t0.5 7t0.5 7h-89v95h102q24 89 89.5 147.5t149 83t184.5 24.5q81 0 151 -16.5t129.5 -51.5
t99 -94.5t51.5 -138.5h-243q-17 70 -61.5 105.5t-126.5 35.5q-130 0 -174 -95h266v-95h-288v-14v-15h288v-95h-266q45 -95 174 -95z" />
    <glyph glyph-name="ruble" unicode="&#x20bd;" horiz-adv-x="946" 
d="M598 218h-232v-39h291v-94h-291v-85h-237v85h-89v94h89v39h-89v160h89v322h497q142 0 216 -63.5t74 -172.5q0 -246 -318 -246zM366 538v-160h204q105 0 105 86q0 40 -25.5 57t-79.5 17h-204z" />
    <glyph glyph-name="bitcoin" unicode="&#x20bf;" horiz-adv-x="897" 
d="M867 206q0 -106 -65.5 -152.5t-205.5 -52.5v-115h-95v114h-95v-114h-95v114h-261v700h261v113h95v-113h95v113h95v-114q120 -4 182 -44.5t62 -134.5q0 -112 -121 -151v-1q148 -37 148 -162zM535 538h-247v-113h247q75 0 75 58q0 55 -75 55zM547 161q45 0 62 17t17 48
q0 56 -79 56h-259v-121h259z" />
    <glyph glyph-name="afii61352" unicode="&#x2116;" horiz-adv-x="1412" 
d="M911 145v142h461v-142h-461zM1142 351q-108 0 -169.5 44.5t-61.5 136.5q0 93 61.5 137.5t169.5 44.5t169 -44.5t61 -137.5q0 -92 -61 -136.5t-169 -44.5zM1142 613q-76 0 -76 -81q0 -80 76 -80t76 80q0 81 -76 81zM619 700h237v-700h-251l-318 416v-416h-237v700h251
l318 -417v417z" />
    <glyph glyph-name="minus" unicode="&#x2212;" horiz-adv-x="580" 
d="M50 391h480v-143h-480v143z" />
    <glyph glyph-name="approxequal" unicode="&#x2248;" horiz-adv-x="580" 
d="M425 455q62 0 105 53v-147q-41 -50 -115 -50q-46 0 -127 39.5t-124 39.5q-61 0 -114 -61v147q21 20 34.5 30.5t37.5 20t52 9.5q52 0 130 -40.5t121 -40.5zM425 245q61 0 105 53v-147q-40 -49 -115 -49q-46 0 -127 39t-124 39q-62 0 -114 -60v147q22 20 34.5 30t37 20
t52.5 10q43 0 87 -20.5l85.5 -41t78.5 -20.5z" />
    <glyph glyph-name="notequal" unicode="&#x2260;" horiz-adv-x="580" 
d="M530 343h-171l-29 -47h200v-143h-288l-54 -88h-110l55 88h-83v143h170l30 47h-200v142h288l54 89h110l-55 -89h83v-142z" />
    <glyph glyph-name="lessequal" unicode="&#x2264;" horiz-adv-x="580" 
d="M50 0v132h480v-132h-480zM530 583v-143l-264 -79l264 -80v-143l-480 163v119z" />
    <glyph glyph-name="greaterequal" unicode="&#x2265;" horiz-adv-x="579" 
d="M50 0v132h479v-132h-479zM50 583l479 -163v-119l-479 -163v143l264 80l-264 79v143z" />
    <glyph glyph-name="commaaccent" unicode="&#xf6c3;" horiz-adv-x="348" 
d="M90 -66h208l-106 -167h-142z" />
    </font>
</defs>
</svg>
