<?xml version="1.0" standalone="no"?>
<!DOCTYPE svg PUBLIC "-//W3C//DTD SVG 1.1//EN" "http://www.w3.org/Graphics/SVG/1.1/DTD/svg11.dtd" >
<svg>
<metadata>
Created by FontForge 20090622 at Wed Jun 24 16:48:55 2020
 By deploy user
Copyright (c) 2019 by MadeType. All rights reserved.
</metadata>
<defs>
<font id="MADEOuterSans-Black" horiz-adv-x="725" >
  <font-face 
    font-family="MADE Outer Sans"
    font-weight="900"
    font-stretch="normal"
    units-per-em="1000"
    panose-1="2 0 5 5 0 0 0 2 0 4"
    ascent="800"
    descent="-200"
    x-height="533"
    cap-height="700"
    bbox="-130 -233 1607 1018"
    underline-thickness="50"
    underline-position="-50"
    unicode-range="U+0020-U+F6C3"
  />
<missing-glyph horiz-adv-x="260" 
 />
    <glyph glyph-name=".notdef" horiz-adv-x="260" 
 />
    <glyph glyph-name=".null" horiz-adv-x="0" 
 />
    <glyph glyph-name="nonmarkingreturn" horiz-adv-x="333" 
 />
    <glyph glyph-name="space" unicode=" " horiz-adv-x="260" 
 />
    <glyph glyph-name="exclam" unicode="!" horiz-adv-x="305" 
d="M152 223q49 0 84 -35t35 -84q0 -50 -34.5 -84.5t-84.5 -34.5q-49 0 -83.5 35t-34.5 84t34.5 84t83.5 35zM249 256h-193l-36 444h265z" />
    <glyph glyph-name="quotedbl" unicode="&#x22;" horiz-adv-x="493" 
d="M49 371l-29 329h209l-29 -329h-151zM264 700h209l-28 -329h-152z" />
    <glyph glyph-name="numbersign" unicode="#" horiz-adv-x="753" 
d="M733 402h-131l-30 -120h110v-123h-141l-39 -157h-146l39 157h-120l-39 -157h-145l39 157h-110v123h140l30 120h-119v123h150l39 157h146l-39 -157h120l39 157h146l-40 -157h101v-123zM426 282l30 120h-120l-30 -120h120z" />
    <glyph glyph-name="dollar" unicode="$" horiz-adv-x="889" 
d="M879 222q0 -124 -96.5 -177t-290.5 -59v-100h-95v100q-205 6 -296 67t-91 174h287q0 -33 23.5 -49.5t76.5 -21.5v103q-3 0 -25 3t-36 4q-169 22 -238 68.5t-69 151.5q0 111 90.5 167.5t277.5 60.5v99h95v-100q341 -18 341 -227h-278q0 44 -63 55v-98q186 -19 251 -39
q106 -35 129 -121q7 -27 7 -61zM301 498q0 -20 21.5 -29.5t74.5 -15.5v92q-96 -5 -96 -47zM492 155q94 4 94 46q0 20 -17.5 28.5t-76.5 16.5v-91z" />
    <glyph glyph-name="percent" unicode="%" horiz-adv-x="1124" 
d="M499 513q0 -200 -240 -200q-239 0 -239 200q0 201 239 201q240 0 240 -201zM259 424q67 0 67 89q0 90 -67 90q-66 0 -66 -90q0 -89 66 -89zM864 387q115 0 177.5 -49.5t62.5 -151.5t-62.5 -151.5t-177.5 -49.5q-114 0 -176.5 49.5t-62.5 151.5t62.5 151.5t176.5 49.5z
M864 96q67 0 67 90t-67 90q-66 0 -66 -90t66 -90zM719 700h131l-445 -700h-132z" />
    <glyph glyph-name="ampersand" unicode="&#x26;" horiz-adv-x="957" 
d="M967 0h-277q-22 16 -42 33q-104 -48 -238 -48q-199 0 -299.5 58t-100.5 164q0 125 185 184q-42 37 -61.5 68.5t-19.5 70.5q0 66 44.5 108.5t112.5 59t160 16.5q142 0 229.5 -42.5t87.5 -132.5q0 -42 -18 -74t-51.5 -51.5t-71.5 -31.5t-87 -19q13 -9 52 -39l78 -64
q16 41 16 89h195q0 -111 -70 -204zM431 573q-33 0 -51 -14.5t-18 -38.5q0 -28 48 -71q97 22 97 74q0 50 -76 50zM421 127q49 0 90 11l-178 141l-31 25q-43 -30 -43 -78q0 -46 41 -72.5t121 -26.5z" />
    <glyph glyph-name="quotesingle" unicode="'" horiz-adv-x="249" 
d="M20 700h209l-28 -329h-152z" />
    <glyph glyph-name="parenleft" unicode="(" horiz-adv-x="406" 
d="M396 753q-64 -68 -112 -186.5t-48 -268.5t48 -269t112 -187h-176q-37 34 -65.5 67t-65.5 90t-58 134t-21 165q0 71 15.5 137t36.5 111.5t53 89.5t54 67t51 50h176z" />
    <glyph glyph-name="parenright" unicode=")" horiz-adv-x="406" 
d="M186 753q29 -27 51 -50t54 -67t53 -89.5t36.5 -111.5t15.5 -137q0 -88 -21 -165t-58 -134t-65.5 -90t-65.5 -67h-176q64 68 112 187t48 269t-48 268.5t-112 186.5h176z" />
    <glyph glyph-name="asterisk" unicode="*" horiz-adv-x="442" 
d="M432 493l-115 -19l81 -84l-122 -89l-55 103l-54 -103l-123 89l81 84l-115 19l47 145l105 -52l-17 116h152l-17 -116l105 52z" />
    <glyph glyph-name="plus" unicode="+" horiz-adv-x="578" 
d="M538 400v-161h-168v-169h-162v169h-168v161h168v169h162v-169h168z" />
    <glyph glyph-name="comma" unicode="," horiz-adv-x="297" 
d="M59 147h218l-96 -239h-161z" />
    <glyph glyph-name="hyphen" unicode="-" horiz-adv-x="474" 
d="M40 362h394v-161h-394v161z" />
    <glyph glyph-name="period" unicode="." horiz-adv-x="297" 
d="M149 223q49 0 83.5 -35t34.5 -84t-34.5 -84t-83.5 -35t-84 34.5t-35 84.5q0 49 35 84t84 35z" />
    <glyph glyph-name="slash" unicode="/" horiz-adv-x="519" 
d="M326 738h193l-327 -776h-192z" />
    <glyph glyph-name="zero" unicode="0" horiz-adv-x="837" 
d="M419 714q83 0 151.5 -19t125.5 -59.5t89 -113.5t32 -172q0 -80 -21.5 -143.5t-58 -104.5t-88.5 -68t-108.5 -38t-121.5 -11q-83 0 -151.5 19t-126 59.5t-89.5 113.5t-32 173q0 99 32 172t89.5 113.5t126 59.5t151.5 19zM419 155q139 0 139 195t-139 195q-140 0 -140 -195
t140 -195z" />
    <glyph glyph-name="one" unicode="1" horiz-adv-x="476" 
d="M248 700h188v-700h-257v477l-159 -99v180z" />
    <glyph glyph-name="two" unicode="2" horiz-adv-x="795" 
d="M304 170h471v-170h-765q0 84 28 148.5t72.5 103t98.5 67t108 46.5t98.5 34.5t72.5 38.5t28 51q0 72 -105 72q-109 0 -116 -81h-255q21 234 373 234q356 0 356 -216q0 -58 -19.5 -101.5t-53 -69.5t-75 -43.5t-88 -29.5l-88 -22t-80.5 -25.5t-61 -36.5z" />
    <glyph glyph-name="three" unicode="3" horiz-adv-x="797" 
d="M631 376q156 -32 156 -163q0 -228 -392 -228q-184 0 -282.5 52.5t-102.5 173.5h249q9 -65 142 -65q126 0 126 75q0 18 -9 31t-20.5 19.5t-31.5 9.5t-32 3.5t-33 0.5h-117v161h118q51 0 75 13t24 46q0 56 -109 56q-25 0 -40 -1t-34.5 -5.5t-30.5 -16t-15 -30.5h-241
q8 112 100.5 159t263.5 47q76 0 135.5 -8.5t112 -28.5t81 -60t28.5 -97q0 -107 -121 -144z" />
    <glyph glyph-name="four" unicode="4" horiz-adv-x="831" 
d="M821 274v-161h-124v-113h-256v113h-431v170l374 417h313v-426h124zM245 274h196v229z" />
    <glyph glyph-name="five" unicode="5" horiz-adv-x="775" 
d="M452 464q313 0 313 -223q0 -72 -31.5 -124t-87 -79.5t-119 -40t-139.5 -12.5q-166 0 -269.5 55.5t-108.5 160.5h244q11 -26 44.5 -41t80.5 -15q131 0 131 97q0 89 -125 89q-61 0 -124 -33h-221l60 402h612v-171h-440l-18 -119q84 54 198 54z" />
    <glyph glyph-name="six" unicode="6" horiz-adv-x="817" 
d="M466 463q341 0 341 -227q0 -70 -30.5 -121t-85 -78.5t-119 -39.5t-144.5 -12q-408 0 -408 365q0 84 23 148.5t61 104.5t92 65.5t110 35.5t120 10q63 0 122 -10t113.5 -32t90 -62.5t40.5 -95.5h-257q-16 40 -107 40q-82 0 -117.5 -44t-40.5 -127q26 35 78 57.5t118 22.5z
M428 145q129 0 129 91q0 47 -35 66.5t-85 19.5q-30 0 -50 -2t-45 -9.5t-38 -26.5t-13 -48q0 -39 23 -60.5t49 -26t65 -4.5z" />
    <glyph glyph-name="seven" unicode="7" horiz-adv-x="766" 
d="M10 700h746v-171l-34 -23t-39 -29t-45 -37.5l-44.5 -45t-46 -56t-40.5 -65t-38 -78t-28 -90.5t-19 -105h-268q18 324 350 529h-494v171z" />
    <glyph glyph-name="eight" unicode="8" horiz-adv-x="843" 
d="M670 375q163 -36 163 -168q0 -48 -16 -85.5t-47 -61t-67.5 -39.5t-86.5 -23.5t-94 -10t-101 -2.5t-100.5 2.5t-94 10.5t-86.5 23.5t-67 39t-47 61t-16 85.5q0 132 162 168q-126 42 -126 145q1 101 95 147.5t280 46.5q187 0 281 -46.5t95 -147.5q0 -103 -127 -145z
M421 564q-60 0 -92 -14.5t-32 -55.5q0 -22 11.5 -36t33.5 -19t38 -6.5t41 -1.5t41 1.5t38 6.5t33.5 19t11.5 36q0 41 -32 55.5t-92 14.5zM421 145q44 0 72 4.5t49.5 22t21.5 49.5q0 45 -36.5 61t-106.5 16t-106.5 -16t-36.5 -61q0 -32 22 -49.5t50 -22t71 -4.5z" />
    <glyph glyph-name="nine" unicode="9" horiz-adv-x="818" 
d="M390 714q67 0 123.5 -10t110.5 -35.5t91.5 -65.5t60 -104.5t22.5 -148.5t-23.5 -149t-61.5 -105t-92 -65.5t-110 -35.5t-120 -10q-63 0 -122 10t-113.5 32t-90 63t-40.5 96h258q15 -41 107 -41q81 0 116.5 44t40.5 128q-26 -36 -77.5 -58.5t-117.5 -22.5q-342 0 -342 227
q0 70 30.5 121t85 78.5t119.5 39.5t145 12zM380 377q30 0 50.5 2t45 10t37.5 26.5t13 47.5q0 39 -23 60.5t-49 26t-64 4.5q-130 0 -130 -91q0 -47 35.5 -66.5t84.5 -19.5z" />
    <glyph glyph-name="colon" unicode=":" horiz-adv-x="297" 
d="M149 223q49 0 83.5 -35t34.5 -84t-34.5 -84t-83.5 -35t-84 34.5t-35 84.5q0 49 35 84t84 35zM149 310q-49 0 -84 35t-35 84t35 83.5t84 34.5t83.5 -34.5t34.5 -83.5t-34.5 -84t-83.5 -35z" />
    <glyph glyph-name="semicolon" unicode=";" horiz-adv-x="303" 
d="M20 -92l40 239h217l-96 -239h-161zM164 310q-49 0 -84 35t-35 84t35 83.5t84 34.5t84 -34.5t35 -83.5t-34.5 -84t-84.5 -35z" />
    <glyph glyph-name="less" unicode="&#x3c;" horiz-adv-x="560" 
d="M520 593v-162l-295 -112l295 -112v-161l-480 205v137z" />
    <glyph glyph-name="equal" unicode="=" horiz-adv-x="579" 
d="M40 485h499v-142h-499v142zM40 153v143h499v-143h-499z" />
    <glyph glyph-name="greater" unicode="&#x3e;" horiz-adv-x="560" 
d="M40 593l480 -205v-137l-480 -205v161l295 112l-295 112v162z" />
    <glyph glyph-name="question" unicode="?" horiz-adv-x="714" 
d="M347 714q82 0 142.5 -9t111 -30.5t77 -62.5t26.5 -101q0 -48 -19 -81.5t-47.5 -49t-62 -29t-62 -22t-47.5 -27t-19 -46.5h-217q0 53 23.5 88t57 50.5t67 28t57 31.5t23.5 49q0 58 -101 58q-106 0 -115 -79h-232q9 126 96 179t241 53zM341 223q49 0 84 -35t35 -84
q0 -50 -35 -84.5t-84 -34.5t-83.5 35t-34.5 84t34.5 84t83.5 35z" />
    <glyph glyph-name="at" unicode="@" horiz-adv-x="1125" 
d="M575 733q149 0 267.5 -47t190.5 -143t72 -227q0 -153 -69 -229.5t-166 -76.5q-155 0 -184 105q-50 -103 -187 -103q-103 0 -168.5 63t-65.5 175q0 113 64.5 176t169.5 63q102 0 158 -59v47h191v-276q0 -35 1.5 -48.5t10.5 -24t29 -10.5q34 0 55.5 48t21.5 141
q0 160 -107 234.5t-284 74.5q-189 0 -297.5 -94t-108.5 -266q0 -169 110 -266t304 -97q159 0 282 66v-126q-36 -18 -114 -37t-168 -19q-252 0 -407.5 130t-155.5 349q0 147 72 256t197 165t286 56zM563 145q55 0 82.5 28.5t27.5 77.5t-27.5 77t-82.5 28q-53 0 -79.5 -29.5
t-26.5 -76.5q0 -46 26.5 -75.5t79.5 -29.5z" />
    <glyph glyph-name="A" unicode="A" horiz-adv-x="960" 
d="M675 0l-39 99h-312l-39 -99h-285l324 700h312l324 -700h-285zM396 279h168l-84 214z" />
    <glyph glyph-name="B" unicode="B" horiz-adv-x="914" 
d="M743 366q151 -37 151 -161q0 -119 -79.5 -162t-258.5 -43h-516v700h538q146 0 218 -37t72 -142q0 -114 -125 -152v-3zM533 529h-218v-94h218q66 0 66 49q0 23 -14.5 34t-51.5 11zM545 170q40 0 55.5 13.5t15.5 40.5q0 26 -16 37.5t-55 11.5h-230v-103h230z" />
    <glyph glyph-name="C" unicode="C" horiz-adv-x="946" 
d="M475 164q146 0 170 132h281q-11 -84 -51.5 -145.5t-103 -97t-136 -52t-160.5 -16.5q-73 0 -137 11.5t-123 38.5t-101.5 67.5t-68 104t-25.5 143.5t25.5 143t68 104t101.5 67.5t123 38t137 11.5q87 0 160.5 -16.5t136 -52t103 -97t51.5 -145.5h-281q-23 132 -170 132
q-88 0 -132.5 -48t-44.5 -137t44.5 -137.5t132.5 -48.5z" />
    <glyph glyph-name="D" unicode="D" horiz-adv-x="913" 
d="M442 700q76 0 136 -7.5t121.5 -29.5t102 -59.5t66 -102t25.5 -151.5t-25.5 -151.5t-66 -102t-102 -60t-121 -29.5t-136.5 -7h-402v700h402zM360 180h7q34 0 51 0.5t45.5 2t43 6t35.5 12.5t31.5 20.5t21.5 30t15.5 42.5t4.5 56q0 36 -7 63t-17 44.5t-30.5 30t-36 18.5
t-47 9t-50.5 3.5t-58 0.5h-9h-45v-339h45z" />
    <glyph glyph-name="E" unicode="E" horiz-adv-x="808" 
d="M778 180v-180h-738v700h729v-181h-454v-79h426v-171h-426v-89h463z" />
    <glyph glyph-name="F" unicode="F" horiz-adv-x="789" 
d="M769 519h-454v-98h425v-171h-425v-250h-275v700h729v-181z" />
    <glyph glyph-name="G" unicode="G" horiz-adv-x="969" 
d="M946 416q17 -218 -104 -324.5t-342 -106.5q-75 0 -141.5 10.5t-129.5 37t-108.5 67t-73 105t-27.5 145.5t26.5 145t70.5 104.5t105 67t125.5 37t137.5 10.5q111 0 201.5 -25t156.5 -82t87 -141h-281q-47 69 -164 69q-187 0 -187 -185q0 -87 55.5 -136.5t149.5 -49.5
q73 0 113.5 24.5t52.5 56.5h-204v171h481z" />
    <glyph glyph-name="H" unicode="H" horiz-adv-x="943" 
d="M628 700h275v-700h-275v259h-313v-259h-275v700h275v-241h313v241z" />
    <glyph glyph-name="I" unicode="I" horiz-adv-x="355" 
d="M40 700h275v-700h-275v700z" />
    <glyph glyph-name="J" unicode="J" horiz-adv-x="821" 
d="M506 700h275v-397q0 -60 -10.5 -108t-28 -81t-46 -56.5t-58.5 -37.5t-72 -22t-80 -10.5t-88 -2.5q-71 0 -124 6.5t-103 25t-81.5 50t-50.5 83t-19 121.5v99l258 -1v-86q0 -59 26.5 -89t93.5 -30q64 0 86 36t22 103v397z" />
    <glyph glyph-name="K" unicode="K" horiz-adv-x="903" 
d="M579 0l-181 253l-83 -75v-178h-275v700h275v-222l233 222h341l-306 -279l320 -421h-324z" />
    <glyph glyph-name="L" unicode="L" horiz-adv-x="788" 
d="M768 180v-180h-728v700h275v-520h453z" />
    <glyph glyph-name="M" unicode="M" horiz-adv-x="1139" 
d="M724 700h375v-700h-275v378l-140 -378h-228l-141 378v-378h-275v700h375l155 -434z" />
    <glyph glyph-name="N" unicode="N" horiz-adv-x="924" 
d="M609 700h275v-700h-290l-279 380v-380h-275v700h289l280 -381v381z" />
    <glyph glyph-name="O" unicode="O" horiz-adv-x="989" 
d="M494 714q94 0 175 -19t150.5 -60t109.5 -114t40 -171q0 -80 -27 -143t-72 -104t-107 -68t-128.5 -38.5t-140.5 -11.5t-140.5 11.5t-128.5 38.5t-106.5 68t-71.5 104t-27 143q0 98 40 171t109 114t150 60t175 19zM494 164q94 0 145 50t51 136t-51 135.5t-145 49.5
t-145 -49.5t-51 -135.5t51 -136t145 -50z" />
    <glyph glyph-name="P" unicode="P" horiz-adv-x="881" 
d="M557 700q304 0 304 -242q0 -134 -84.5 -192t-238.5 -58h-223v-208h-275v700h517zM498 387q89 0 89 69q0 63 -89 63h-183v-132h183z" />
    <glyph glyph-name="Q" unicode="Q" horiz-adv-x="989" 
d="M969 350q0 -158 -105 -252l105 -108h-255l-20 20q-91 -25 -199 -25q-74 0 -140.5 11.5t-128.5 38.5t-107 68t-72 104t-27 143q0 98 40 171t109.5 114t150.5 60t175 19t175 -19t150 -60t109 -114t40 -171zM495 164q27 0 46 4l-130 134h255l16 -17q9 30 9 65
q0 86 -51 135.5t-145 49.5t-145 -49.5t-51 -135.5t51 -136t145 -50z" />
    <glyph glyph-name="R" unicode="R" horiz-adv-x="892" 
d="M602 0l-136 218h-151v-218h-275v700h526q305 0 305 -236q0 -153 -141 -212l162 -252h-290zM315 519v-122h192q89 0 89 64q0 31 -21.5 44.5t-67.5 13.5h-192z" />
    <glyph glyph-name="S" unicode="S" horiz-adv-x="889" 
d="M479 444q189 -19 252 -37q112 -33 138 -116q10 -30 10 -69q0 -132 -109.5 -184.5t-329.5 -52.5q-229 0 -329.5 61.5t-100.5 180.5h287q0 -40 36.5 -56.5t122.5 -16.5q69 0 99.5 11t30.5 36q0 24 -30 32.5t-165 25.5q-35 4 -55 7q-169 22 -238 68.5t-69 151.5
q0 116 99 172t302 56q403 0 403 -228h-278q0 31 -29.5 45.5t-97.5 14.5q-127 0 -127 -48q0 -25 31.5 -33.5t126.5 -18.5q13 -1 20 -2z" />
    <glyph glyph-name="T" unicode="T" horiz-adv-x="845" 
d="M825 700v-181h-265v-519h-275v519h-265v181h805z" />
    <glyph glyph-name="U" unicode="U" horiz-adv-x="896" 
d="M581 700h275v-412q0 -80 -22.5 -137t-57.5 -88.5t-92 -49.5t-109 -23t-127 -5q-52 0 -91 2.5t-84 10t-77 20.5t-63 35.5t-50.5 54t-31 77t-11.5 103.5v412h275v-399q0 -75 30.5 -106t102.5 -31t102.5 30.5t30.5 106.5v399z" />
    <glyph glyph-name="V" unicode="V" horiz-adv-x="959" 
d="M674 700h285l-323 -700h-312l-324 700h285l195 -494z" />
    <glyph glyph-name="W" unicode="W" horiz-adv-x="1254" 
d="M969 700h285l-229 -700h-293l-105 386l-105 -386h-293l-229 700h285l114 -419l114 419h228l114 -419z" />
    <glyph glyph-name="X" unicode="X" horiz-adv-x="897" 
d="M614 365l293 -365h-319l-139 205l-139 -205h-320l294 365l-268 335h319l114 -175l113 175h320z" />
    <glyph glyph-name="Y" unicode="Y" horiz-adv-x="904" 
d="M613 700h301l-324 -452v-248h-276v248l-324 452h301l161 -261z" />
    <glyph glyph-name="Z" unicode="Z" horiz-adv-x="864" 
d="M421 180h423v-180h-824v142l413 377h-394v181h795v-143z" />
    <glyph glyph-name="bracketleft" unicode="[" horiz-adv-x="401" 
d="M391 633h-153v-690h153v-152h-371v994h371v-152z" />
    <glyph glyph-name="backslash" unicode="\" horiz-adv-x="519" 
d="M193 738l326 -776h-192l-327 776h193z" />
    <glyph glyph-name="bracketright" unicode="]" horiz-adv-x="401" 
d="M10 785h371v-994h-371v152h153v690h-153v152z" />
    <glyph glyph-name="asciicircum" unicode="^" horiz-adv-x="559" 
d="M549 362h-161l-108 187l-109 -187h-161l188 318h163z" />
    <glyph glyph-name="underscore" unicode="_" horiz-adv-x="757" 
d="M10 -52h737v-114h-737v114z" />
    <glyph glyph-name="grave" unicode="`" horiz-adv-x="412" 
d="M287 705l85 -148h-190l-142 148h247z" />
    <glyph glyph-name="a" unicode="a" horiz-adv-x="723" 
d="M360 547q58 0 103 -4.5t90 -17.5t74 -35t47.5 -60t18.5 -89v-341h-246v53q-68 -68 -195 -68q-232 0 -232 162q0 50 17.5 83.5t63.5 59t131.5 35t214.5 3.5v13q0 39 -18.5 56.5t-68.5 17.5q-82 0 -91 -44h-220q14 94 92.5 135t218.5 41zM447 146v58q-62 3 -104.5 1
t-64.5 -14.5t-22 -39.5q0 -48 69 -48q76 0 122 43z" />
    <glyph glyph-name="b" unicode="b" horiz-adv-x="759" 
d="M452 547q127 0 207 -74.5t80 -206.5t-80 -206.5t-207 -74.5q-122 0 -185 69v-54h-247v700h247v-222q63 69 185 69zM377 142q62 0 93.5 34.5t31.5 89.5t-31.5 90t-93.5 35q-65 0 -97 -33.5t-32 -91.5t32 -91t97 -33z" />
    <glyph glyph-name="c" unicode="c" horiz-adv-x="752" 
d="M383 142q93 0 118 76h231q-9 -64 -42 -111t-83 -72.5t-105 -37.5t-119 -12q-70 0 -131 14t-115 45t-85.5 87.5t-31.5 134.5t31.5 135t85.5 87.5t115 44.5t131 14q87 0 157 -20t125 -74t67 -138h-231q-25 76 -118 76q-63 0 -94.5 -34t-31.5 -91t31.5 -90.5t94.5 -33.5z
" />
    <glyph glyph-name="d" unicode="d" horiz-adv-x="769" 
d="M20 266q0 132 79.5 206.5t206.5 74.5q122 0 186 -69v222h247v-700h-247v54q-64 -69 -186 -69q-127 0 -206.5 74.5t-79.5 206.5zM257 266q0 -55 31.5 -89.5t93.5 -34.5q64 0 96.5 33t32.5 91t-32.5 91.5t-96.5 33.5q-62 0 -93.5 -35t-31.5 -90z" />
    <glyph glyph-name="e" unicode="e" horiz-adv-x="736" 
d="M715 217h-461q22 -85 124 -85q71 0 104 48h225q-24 -102 -114.5 -148.5t-214.5 -46.5q-69 0 -130.5 15.5t-114 47.5t-83 88t-30.5 130t30.5 130t82 88t112 47.5t128.5 15.5q51 0 99 -10t94.5 -35t80.5 -61.5t53 -94t15 -129.5zM373 400q-94 0 -118 -79h228
q-23 79 -110 79z" />
    <glyph glyph-name="f" unicode="f" horiz-adv-x="502" 
d="M492 589q-86 3 -108 -2q-40 -11 -40 -54h139v-133h-139v-400h-246v400h-88v133h88q0 114 60.5 159.5t209.5 45.5q35 0 124 -7v-142z" />
    <glyph glyph-name="g" unicode="g" horiz-adv-x="769" 
d="M493 533h246v-493q0 -50 -13.5 -88.5t-41.5 -62.5t-60 -39.5t-79.5 -23t-88.5 -10t-98 -2.5q-317 0 -324 181h225q11 -39 99 -39q26 0 37.5 0.5t34 4.5t33.5 12t20.5 25t9.5 42v46q-58 -53 -167 -53q-134 0 -220 62t-86 190q0 130 78.5 196t208.5 66q122 0 186 -62v48z
M383 180q129 0 129 105q0 106 -129 106q-61 0 -93 -28t-32 -78q0 -105 125 -105z" />
    <glyph glyph-name="h" unicode="h" 
d="M465 547q230 0 230 -218v-329h-246v279q0 51 -17.5 77t-67.5 26t-69 -26.5t-19 -76.5v-279h-246v700h246v-233q59 80 189 80z" />
    <glyph glyph-name="i" unicode="i" horiz-adv-x="306" 
d="M153 573q-57 0 -91.5 30.5t-34.5 84.5t34.5 85t91.5 31t91.5 -31t34.5 -85t-34.5 -84.5t-91.5 -30.5zM30 0v533h246v-533h-246z" />
    <glyph glyph-name="j" unicode="j" horiz-adv-x="306" 
d="M153 573q-57 0 -91.5 30.5t-34.5 84.5t34.5 85t91.5 31t91.5 -31t34.5 -85t-34.5 -84.5t-91.5 -30.5zM30 38v495h246v-495q0 -63 -9.5 -102t-35.5 -68t-74 -41.5t-124 -12.5q-46 0 -94 4v165q55 -1 73 8t18 47z" />
    <glyph glyph-name="k" unicode="k" horiz-adv-x="728" 
d="M434 0l-110 166l-47 -45v-121h-247v700h247v-311l133 144h297l-225 -215l236 -318h-284z" />
    <glyph glyph-name="l" unicode="l" horiz-adv-x="306" 
d="M30 738h246v-738h-246v738z" />
    <glyph glyph-name="m" unicode="m" horiz-adv-x="1069" 
d="M818 547q114 0 167.5 -54t53.5 -164v-329h-247v279q0 23 -0.5 33t-3.5 26.5t-9.5 24t-19.5 13.5t-32 6q-45 0 -57.5 -25t-12.5 -78v-279h-246v279q0 23 -0.5 33t-3.5 26.5t-9.5 24t-19.5 13.5t-32 6q-20 0 -33 -5.5t-20.5 -13.5t-11 -23t-4.5 -27.5t-1 -33.5v-279h-246
v533h246v-72q56 86 170 86q138 0 185 -84q65 84 187 84z" />
    <glyph glyph-name="n" unicode="n" 
d="M465 547q230 0 230 -218v-329h-246v279q0 51 -17.5 77t-67.5 26t-69 -26.5t-19 -76.5v-279h-246v533h246v-66q59 80 189 80z" />
    <glyph glyph-name="o" unicode="o" horiz-adv-x="765" 
d="M383 547q70 0 131 -14t114.5 -44.5t85 -87.5t31.5 -135q0 -77 -31.5 -134t-85 -88t-114.5 -45t-131 -14t-131 14t-115 45t-85.5 88t-31.5 134q0 63 21.5 112.5t56 80.5t82.5 51.5t98 28.5t105 8zM383 142q62 0 93.5 33.5t31.5 90.5t-31.5 91t-93.5 34q-63 0 -94.5 -34
t-31.5 -91t31.5 -90.5t94.5 -33.5z" />
    <glyph glyph-name="p" unicode="p" horiz-adv-x="769" 
d="M749 266q0 -132 -80 -206.5t-207 -74.5q-122 0 -186 69v-221h-246v700h246v-55q64 69 186 69q127 0 207 -74.5t80 -206.5zM512 266q0 55 -31.5 90t-94.5 35q-64 0 -96.5 -33.5t-32.5 -91.5t32.5 -91t96.5 -33q63 0 94.5 34.5t31.5 89.5z" />
    <glyph glyph-name="q" unicode="q" horiz-adv-x="768" 
d="M306 -15q-127 0 -206.5 74.5t-79.5 206.5t79.5 206.5t206.5 74.5q122 0 186 -69v55h246v-700h-246v221q-64 -69 -186 -69zM382 391q-62 0 -93.5 -35t-31.5 -90t31.5 -89.5t93.5 -34.5q64 0 96.5 33t32.5 91t-32.5 91.5t-96.5 33.5z" />
    <glyph glyph-name="r" unicode="r" horiz-adv-x="568" 
d="M471 547q29 0 77 -4v-198h-22q-67 20 -109 20q-81 0 -111 -37.5t-30 -110.5v-217h-246v533h246v-82q54 96 195 96z" />
    <glyph glyph-name="s" unicode="s" horiz-adv-x="727" 
d="M401 343q154 -18 198 -31q95 -27 113 -99q5 -20 5 -43q0 -53 -25 -90t-74 -57.5t-110 -29t-144 -8.5q-354 0 -354 188h253q0 -19 9 -31t27 -17t34 -6.5t41 -1.5q91 0 91 38q0 6 -2 11t-6.5 9t-10 6.5t-16 5t-20 4t-25 3t-29.5 3l-35.5 4t-40.5 4.5q-131 17 -190 50
t-59 115q0 177 323 177q166 0 249 -46.5t83 -129.5h-240q0 45 -94 45q-89 0 -89 -34q0 -7 2.5 -11.5t9 -8t13.5 -5.5t20.5 -4t24.5 -3l31.5 -3t36.5 -4z" />
    <glyph glyph-name="t" unicode="t" horiz-adv-x="541" 
d="M511 400h-156v-178q0 -49 27 -59t129 -5v-159q-66 -8 -111 -8q-168 0 -229.5 45.5t-61.5 185.5v178h-99v133h99v138h246v-138h156v-133z" />
    <glyph glyph-name="u" unicode="u" 
d="M260 -14q-230 0 -230 218v329h246v-279q0 -51 17.5 -77t67.5 -26t69 26.5t19 76.5v279h246v-533h-246v66q-59 -80 -189 -80z" />
    <glyph glyph-name="v" unicode="v" horiz-adv-x="720" 
d="M467 533h253l-248 -533h-234l-248 533h253l112 -291z" />
    <glyph glyph-name="w" unicode="w" horiz-adv-x="1065" 
d="M812 533h253l-220 -533h-220l-98 273l-98 -273h-219l-220 533h253l87 -263l95 263h205l94 -263z" />
    <glyph glyph-name="x" unicode="x" 
d="M504 270l231 -270h-275l-98 136l-97 -136h-275l230 270l-215 263h275l82 -129l83 129h275z" />
    <glyph glyph-name="y" unicode="y" horiz-adv-x="720" 
d="M467 533h253l-320 -700h-250l95 171l-255 529h253l116 -288z" />
    <glyph glyph-name="z" unicode="z" horiz-adv-x="721" 
d="M370 151h321v-151h-661v142l312 239h-292v152h631v-142z" />
    <glyph glyph-name="braceleft" unicode="{" horiz-adv-x="443" 
d="M320 396q0 -94 -91 -107v-2q91 -12 91 -106v-192q0 -32 10.5 -44t36.5 -12h66v-142h-188q-138 0 -138 142v204q0 51 -20.5 64.5t-66.5 13.5v146q46 0 66.5 13.5t20.5 64.5v204q0 142 138 142h188v-142h-66q-26 0 -36.5 -11.5t-10.5 -43.5v-192z" />
    <glyph glyph-name="bar" unicode="|" horiz-adv-x="289" 
d="M40 785h209v-994h-209v994z" />
    <glyph glyph-name="braceright" unicode="}" horiz-adv-x="443" 
d="M336 439q0 -51 20.5 -64.5t66.5 -13.5v-146q-46 0 -66.5 -13.5t-20.5 -64.5v-204q0 -142 -138 -142h-188v142h66q26 0 36.5 12t10.5 44v192q0 94 91 106v2q-91 13 -91 107v192q0 32 -10.5 43.5t-36.5 11.5h-66v142h188q138 0 138 -142v-204z" />
    <glyph glyph-name="asciitilde" unicode="~" horiz-adv-x="560" 
d="M415 360q35 0 58.5 12t46.5 40v-165q-39 -50 -115 -50q-46 0 -127 39.5t-124 39.5q-61 0 -114 -61v166q22 20 34.5 30t37 20t52.5 10q53 0 130.5 -40.5t120.5 -40.5z" />
    <glyph glyph-name="exclamdown" unicode="&#xa1;" horiz-adv-x="305" 
d="M152 310q-49 0 -83.5 35t-34.5 84t34.5 83.5t83.5 34.5t84 -34.5t35 -83.5t-34.5 -84t-84.5 -35zM20 -167l36 444h193l36 -444h-265z" />
    <glyph glyph-name="cent" unicode="&#xa2;" horiz-adv-x="752" 
d="M433 233q50 16 68 68h231q-17 -111 -98.5 -166t-200.5 -64v-71h-95v70q-64 4 -118 21t-100.5 48.5t-73 85.5t-26.5 125t26.5 125t73 85.5t100.5 48t118 20.5v71h95v-71q119 -9 200.5 -64.5t98.5 -166.5h-231q-17 52 -68 69v-234zM257 350q0 -97 81 -119v238
q-81 -24 -81 -119z" />
    <glyph glyph-name="sterling" unicode="&#xa3;" horiz-adv-x="771" 
d="M696 210l65 -163q-22 -20 -73.5 -40t-118.5 -20q-62 0 -161 22.5t-156 22.5q-82 0 -159 -49l-73 128q49 30 70.5 62t21.5 76q0 19 -3 36h-89v95h50q-24 54 -24 105q0 63 28.5 109.5t79 72t110 37.5t129.5 12q349 0 349 -253h-249q0 100 -95 100q-106 0 -106 -83
q0 -22 3.5 -37.5t12 -36t10.5 -26.5h214v-95h-201q-5 -59 -74 -117l2 -4q49 18 88 18q46 0 109.5 -10t99.5 -10q85 0 140 48z" />
    <glyph glyph-name="currency" unicode="&#xa4;" horiz-adv-x="626" 
d="M585 352q0 -85 -48 -154l59 -58l-66 -68l-62 61q-69 -44 -155 -44t-154 44l-62 -61l-67 68l60 58q-49 68 -49 154q0 87 49 153l-60 59l67 67l62 -61q68 44 154 44t155 -44l62 61l66 -67l-59 -59q48 -67 48 -153zM313 241q49 0 80 32.5t31 78.5q0 45 -31 78t-80 33
q-48 0 -79.5 -33t-31.5 -78t31.5 -78t79.5 -33z" />
    <glyph glyph-name="yen" unicode="&#xa5;" horiz-adv-x="903" 
d="M913 700l-263 -367h119v-95h-180v-29h180v-95h-180v-114h-275v114h-181v95h181v29h-181v95h120l-263 367h300l161 -260l161 260h301z" />
    <glyph glyph-name="brokenbar" unicode="&#xa6;" horiz-adv-x="289" 
d="M40 -209v426h209v-426h-209zM40 785h209v-425h-209v425z" />
    <glyph glyph-name="section" unicode="&#xa7;" horiz-adv-x="849" 
d="M749 103q38 -38 38 -93q0 -205 -366 -205q-347 0 -347 218h251q0 -35 23 -51.5t76 -16.5q98 0 98 50q0 6 -1.5 10.5t-5.5 8.5t-8 7t-13 6t-16.5 5t-21.5 4.5l-26 4.5t-31.5 6t-36.5 7q-179 35 -237 59q-99 40 -113 119q-2 15 -2 31q0 79 90 143q-38 38 -38 93
q0 205 366 205q347 0 347 -218h-251q0 35 -23 51.5t-76 16.5q-98 0 -98 -49q0 -24 32 -34q8 -3 127 -26q179 -35 237 -58q99 -40 113 -119q3 -15 3 -32q0 -79 -90 -143zM496 207q71 -16 116 -31q10 13 10 29q0 31 -30.5 44.5t-149.5 41.5l-89 21q-86 21 -116 31
q-10 -13 -10 -29q0 -31 30.5 -44.5t149.5 -41.5z" />
    <glyph glyph-name="dieresis" unicode="&#xa8;" horiz-adv-x="522" 
d="M134 739q38 0 65.5 -27.5t27.5 -65.5q0 -39 -27.5 -66t-65.5 -27q-39 0 -66.5 27t-27.5 66q0 38 27.5 65.5t66.5 27.5zM389 739q38 0 65.5 -27.5t27.5 -65.5q0 -39 -27.5 -66t-65.5 -27q-39 0 -66.5 27t-27.5 66q0 38 27.5 65.5t66.5 27.5z" />
    <glyph glyph-name="copyright" unicode="&#xa9;" horiz-adv-x="806" 
d="M404 257q73 0 85 66h141q-11 -82 -72.5 -119t-153.5 -37q-99 0 -163.5 43.5t-64.5 139.5q0 95 64.5 138.5t163.5 43.5q92 0 153.5 -37t72.5 -118h-141q-12 66 -85 66q-89 0 -89 -93t89 -93zM403 714q160 0 271.5 -104.5t111.5 -259.5t-111.5 -260t-271.5 -105t-271.5 105
t-111.5 260t111.5 259.5t271.5 104.5zM403 52q128 0 217.5 85.5t89.5 212.5q0 126 -89.5 212t-217.5 86t-217.5 -86t-89.5 -212q0 -127 89.5 -212.5t217.5 -85.5z" />
    <glyph glyph-name="guillemotleft" unicode="&#xab;" horiz-adv-x="504" 
d="M20 180v203l208 158v-191l-101 -69l101 -68v-191zM474 541v-191l-101 -69l101 -68v-191l-208 158v203z" />
    <glyph glyph-name="registered" unicode="&#xae;" horiz-adv-x="805" 
d="M622 411q0 -77 -69 -104l80 -124h-143l-66 107h-84v-107h-135v343h268q149 0 149 -115zM340 437v-60h104q43 0 43 32q0 28 -43 28h-104zM402 714q160 0 271.5 -104.5t111.5 -259.5t-111.5 -260t-271.5 -105q-159 0 -270.5 105t-111.5 260t111.5 259.5t270.5 104.5z
M402 52q128 0 217.5 85.5t89.5 212.5q0 126 -89.5 212t-217.5 86t-217.5 -86t-89.5 -212t89.5 -212t217.5 -86z" />
    <glyph glyph-name="macron" unicode="&#xaf;" horiz-adv-x="563" 
d="M40 691h483v-123h-483v123z" />
    <glyph glyph-name="degree" unicode="&#xb0;" horiz-adv-x="356" 
d="M178 702q76 0 122 -49t46 -120q0 -70 -46 -119t-122 -49t-122 49t-46 119q0 71 46 120t122 49zM178 460q34 0 54 20t20 53t-20 53.5t-54 20.5t-54 -20.5t-20 -53.5t20 -53t54 -20z" />
    <glyph glyph-name="plusminus" unicode="&#xb1;" horiz-adv-x="559" 
d="M40 0v133h479v-133h-479zM350 432h169v-142h-169v-131h-142v131h-168v142h168v130h142v-130z" />
    <glyph glyph-name="acute" unicode="&#xb4;" horiz-adv-x="412" 
d="M126 705h246l-142 -148h-190z" />
    <glyph glyph-name="paragraph" unicode="&#xb6;" horiz-adv-x="700" 
d="M281 700h389v-877h-171v734h-57v-734h-170v402q-128 5 -195 64.5t-67 172.5q0 116 70 176t201 62z" />
    <glyph glyph-name="cedilla" unicode="&#xb8;" horiz-adv-x="399" 
d="M187 -45q37 6 75 7.5t67.5 -20.5t29.5 -66q0 -108 -189 -108q-66 0 -130 16v81q42 -17 90 -17q62 0 62 27q0 6 -2.5 10t-8 6.5t-12 4t-15.5 1.5t-17 -0.5t-19 -1.5t-18.5 -2l-18.5 -2.5t-16 -2.5v54l56 76h114z" />
    <glyph glyph-name="guillemotright" unicode="&#xbb;" horiz-adv-x="504" 
d="M275 541l209 -158v-203l-209 -158v191l102 68l-102 69v191zM30 350v191l208 -158v-203l-208 -158v191l101 68z" />
    <glyph glyph-name="questiondown" unicode="&#xbf;" horiz-adv-x="714" 
d="M472 51h232q-9 -126 -96 -179t-241 -53q-82 0 -142.5 9t-111 30.5t-77 62.5t-26.5 101q0 48 19 81.5t47.5 49t62 29t62 22t47.5 27t19 46.5h217q0 -53 -23.5 -88t-57 -51t-67 -28.5t-57 -31.5t-23.5 -49q0 -58 101 -58q106 0 115 80zM372 310q-49 0 -83.5 35t-34.5 84
t34.5 83.5t83.5 34.5t84 -34.5t35 -83.5t-34.5 -84t-84.5 -35z" />
    <glyph glyph-name="Agrave" unicode="&#xc0;" horiz-adv-x="960" 
d="M675 0l-39 99h-312l-39 -99h-285l324 700h312l324 -700h-285zM396 279h168l-84 214zM491 905l85 -148h-190l-142 148h247z" />
    <glyph glyph-name="Aacute" unicode="&#xc1;" horiz-adv-x="960" 
d="M675 0l-39 99h-312l-39 -99h-285l324 700h312l324 -700h-285zM396 279h168l-84 214zM470 905h246l-142 -148h-190z" />
    <glyph glyph-name="Acircumflex" unicode="&#xc2;" horiz-adv-x="960" 
d="M675 0l-39 99h-312l-39 -99h-285l324 700h312l324 -700h-285zM396 279h168l-84 214zM610 905l149 -148h-210l-68 77l-69 -77h-210l149 148h259z" />
    <glyph glyph-name="Atilde" unicode="&#xc3;" horiz-adv-x="960" 
d="M675 0l-39 99h-312l-39 -99h-285l324 700h312l324 -700h-285zM396 279h168l-84 214zM572 910h141q0 -164 -111 -164q-54 0 -114 22t-74 22q-26 0 -26 -38h-142q0 163 111 163q53 0 113.5 -22t77.5 -22q12 0 17.5 7t6 13t0.5 19z" />
    <glyph glyph-name="Adieresis" unicode="&#xc4;" horiz-adv-x="960" 
d="M675 0l-39 99h-312l-39 -99h-285l324 700h312l324 -700h-285zM396 279h168l-84 214zM353 939q38 0 65.5 -27.5t27.5 -65.5q0 -39 -27.5 -66t-65.5 -27q-39 0 -66.5 27t-27.5 66q0 38 27.5 65.5t66.5 27.5zM608 939q38 0 65.5 -27.5t27.5 -65.5q0 -39 -27.5 -66t-65.5 -27
q-39 0 -66.5 27t-27.5 66q0 38 27.5 65.5t66.5 27.5z" />
    <glyph glyph-name="Aring" unicode="&#xc5;" horiz-adv-x="960" 
d="M675 0l-39 99h-312l-39 -99h-285l324 700h312l324 -700h-285zM396 279h168l-84 214zM480 1018q61 0 100.5 -40.5t39.5 -100.5t-39.5 -100t-100.5 -40q-60 0 -100 40t-40 100t40 100.5t100 40.5zM480 832q21 0 33.5 12.5t12.5 32.5q0 21 -12.5 33.5t-33.5 12.5t-33 -12.5
t-12 -33.5q0 -20 12 -32.5t33 -12.5z" />
    <glyph glyph-name="AE" unicode="&#xc6;" horiz-adv-x="1365" 
d="M1335 180v-180h-738v99h-255l-57 -99h-285l447 700h879v-180h-454v-80h425v-171h-425v-89h463zM582 520l-137 -241h152v241h-15z" />
    <glyph glyph-name="Ccedilla" unicode="&#xc7;" horiz-adv-x="946" 
d="M475 164q148 0 170 132h281q-20 -148 -125.5 -223t-265.5 -86l-25 -32q37 6 75 7.5t67.5 -21t29.5 -66.5q0 -107 -189 -107q-61 0 -130 15v82q43 -17 90 -17q62 0 62 27q0 6 -2.5 10t-8 6.5t-12 4t-15.5 1.5t-17 -0.5t-19 -1.5t-18.5 -2l-18.5 -2.5t-16 -2.5v54l33 45
q-66 4 -123.5 18t-109 42.5t-88.5 69t-58.5 100t-21.5 133.5q0 80 25.5 143t68 104t101.5 67.5t123 38t137 11.5q87 0 160 -16.5t136 -51.5t103.5 -97t51.5 -146h-281q-22 132 -170 132q-88 0 -132.5 -48t-44.5 -137t44.5 -137.5t132.5 -48.5z" />
    <glyph glyph-name="Egrave" unicode="&#xc8;" horiz-adv-x="808" 
d="M778 180v-180h-738v700h729v-181h-454v-79h426v-171h-426v-89h463zM440 905l85 -148h-190l-142 148h247z" />
    <glyph glyph-name="Eacute" unicode="&#xc9;" horiz-adv-x="808" 
d="M778 180v-180h-738v700h729v-181h-454v-79h426v-171h-426v-89h463zM389 905h246l-142 -148h-190z" />
    <glyph glyph-name="Ecircumflex" unicode="&#xca;" horiz-adv-x="808" 
d="M778 180v-180h-738v700h729v-181h-454v-79h426v-171h-426v-89h463zM539 905l149 -148h-210l-68 77l-69 -77h-210l149 148h259z" />
    <glyph glyph-name="Edieresis" unicode="&#xcb;" horiz-adv-x="808" 
d="M778 180v-180h-738v700h729v-181h-454v-79h426v-171h-426v-89h463zM282 939q38 0 65.5 -27.5t27.5 -65.5q0 -39 -27.5 -66t-65.5 -27q-39 0 -66.5 27t-27.5 66q0 38 27.5 65.5t66.5 27.5zM537 939q38 0 65.5 -27.5t27.5 -65.5q0 -39 -27.5 -66t-65.5 -27q-39 0 -66.5 27
t-27.5 66q0 38 27.5 65.5t66.5 27.5z" />
    <glyph glyph-name="Igrave" unicode="&#xcc;" horiz-adv-x="355" 
d="M40 700h275v-700h-275v700zM199 905l85 -148h-190l-142 148h247z" />
    <glyph glyph-name="Iacute" unicode="&#xcd;" horiz-adv-x="355" 
d="M40 700h275v-700h-275v700zM158 905h246l-142 -148h-190z" />
    <glyph glyph-name="Icircumflex" unicode="&#xce;" horiz-adv-x="355" 
d="M40 700h275v-700h-275v700zM307 905l149 -148h-210l-68 77l-69 -77h-210l149 148h259z" />
    <glyph glyph-name="Idieresis" unicode="&#xcf;" horiz-adv-x="355" 
d="M40 700h275v-700h-275v700zM51 939q38 0 65.5 -27.5t27.5 -65.5q0 -39 -27.5 -66t-65.5 -27q-39 0 -66.5 27t-27.5 66q0 38 27.5 65.5t66.5 27.5zM306 939q38 0 65.5 -27.5t27.5 -65.5q0 -39 -27.5 -66t-65.5 -27q-39 0 -66.5 27t-27.5 66q0 38 27.5 65.5t66.5 27.5z" />
    <glyph glyph-name="Eth" unicode="&#xd0;" horiz-adv-x="959" 
d="M489 700q63 0 114 -5.5t104.5 -18.5t93.5 -38.5t72 -63t49 -94.5t17 -130q0 -87 -25.5 -151.5t-65.5 -102t-101.5 -60t-121 -29.5t-136.5 -7h-403v283h-76v133h76v284h403zM407 180h7q39 0 58 0.5t50.5 3.5t47.5 9.5t36.5 18.5t30.5 30t17 45t7 63t-7 63t-17 45t-30.5 30
t-36.5 18.5t-47.5 9.5t-50.5 3.5t-58 0.5h-7h-46v-104h186v-133h-186v-103h46z" />
    <glyph glyph-name="Ntilde" unicode="&#xd1;" horiz-adv-x="924" 
d="M609 700h275v-700h-290l-279 380v-380h-275v700h289l280 -381v381zM555 910h141q0 -164 -111 -164q-54 0 -114 22t-74 22q-26 0 -26 -38h-142q0 163 111 163q53 0 113.5 -22t77.5 -22q12 0 17.5 7t6 13t0.5 19z" />
    <glyph glyph-name="Ograve" unicode="&#xd2;" horiz-adv-x="989" 
d="M494 714q94 0 175 -19t150.5 -60t109.5 -114t40 -171q0 -80 -27 -143t-72 -104t-107 -68t-128.5 -38.5t-140.5 -11.5t-140.5 11.5t-128.5 38.5t-106.5 68t-71.5 104t-27 143q0 98 40 171t109 114t150 60t175 19zM494 164q94 0 145 50t51 136t-51 135.5t-145 49.5
t-145 -49.5t-51 -135.5t51 -136t145 -50zM515 905l85 -148h-190l-142 148h247z" />
    <glyph glyph-name="Oacute" unicode="&#xd3;" horiz-adv-x="989" 
d="M494 714q94 0 175 -19t150.5 -60t109.5 -114t40 -171q0 -80 -27 -143t-72 -104t-107 -68t-128.5 -38.5t-140.5 -11.5t-140.5 11.5t-128.5 38.5t-106.5 68t-71.5 104t-27 143q0 98 40 171t109 114t150 60t175 19zM494 164q94 0 145 50t51 136t-51 135.5t-145 49.5
t-145 -49.5t-51 -135.5t51 -136t145 -50zM474 905h246l-142 -148h-190z" />
    <glyph glyph-name="Ocircumflex" unicode="&#xd4;" horiz-adv-x="989" 
d="M494 714q94 0 175 -19t150.5 -60t109.5 -114t40 -171q0 -80 -27 -143t-72 -104t-107 -68t-128.5 -38.5t-140.5 -11.5t-140.5 11.5t-128.5 38.5t-106.5 68t-71.5 104t-27 143q0 98 40 171t109 114t150 60t175 19zM494 164q94 0 145 50t51 136t-51 135.5t-145 49.5
t-145 -49.5t-51 -135.5t51 -136t145 -50zM624 905l149 -148h-210l-68 77l-69 -77h-210l149 148h259z" />
    <glyph glyph-name="Otilde" unicode="&#xd5;" horiz-adv-x="989" 
d="M494 714q94 0 175 -19t150.5 -60t109.5 -114t40 -171q0 -80 -27 -143t-72 -104t-107 -68t-128.5 -38.5t-140.5 -11.5t-140.5 11.5t-128.5 38.5t-106.5 68t-71.5 104t-27 143q0 98 40 171t109 114t150 60t175 19zM494 164q94 0 145 50t51 136t-51 135.5t-145 49.5
t-145 -49.5t-51 -135.5t51 -136t145 -50zM587 910h141q0 -164 -111 -164q-54 0 -114 22t-74 22q-26 0 -26 -38h-142q0 163 111 163q53 0 113.5 -22t77.5 -22q12 0 17.5 7t6 13t0.5 19z" />
    <glyph glyph-name="Odieresis" unicode="&#xd6;" horiz-adv-x="989" 
d="M494 714q94 0 175 -19t150.5 -60t109.5 -114t40 -171q0 -80 -27 -143t-72 -104t-107 -68t-128.5 -38.5t-140.5 -11.5t-140.5 11.5t-128.5 38.5t-106.5 68t-71.5 104t-27 143q0 98 40 171t109 114t150 60t175 19zM494 164q94 0 145 50t51 136t-51 135.5t-145 49.5
t-145 -49.5t-51 -135.5t51 -136t145 -50zM367 939q38 0 65.5 -27.5t27.5 -65.5q0 -39 -27.5 -66t-65.5 -27q-39 0 -66.5 27t-27.5 66q0 38 27.5 65.5t66.5 27.5zM622 939q38 0 65.5 -27.5t27.5 -65.5q0 -39 -27.5 -66t-65.5 -27q-39 0 -66.5 27t-27.5 66q0 38 27.5 65.5
t66.5 27.5z" />
    <glyph glyph-name="multiply" unicode="&#xd7;" horiz-adv-x="547" 
d="M507 439l-120 -120l120 -119l-114 -114l-120 119l-119 -119l-114 114l119 119l-119 120l114 114l119 -120l120 120z" />
    <glyph glyph-name="Oslash" unicode="&#xd8;" horiz-adv-x="988" 
d="M860 605q108 -95 108 -255q0 -80 -27 -143t-71.5 -104t-106.5 -68t-128.5 -38.5t-140.5 -11.5q-146 0 -255 44l-73 -68l-84 90l46 44q-108 93 -108 255q0 98 40 171t109 114t150 60t175 19q145 0 255 -43l73 68l84 -91zM298 350q0 -47 15 -83l273 252q-38 16 -92 16
q-94 0 -145 -49.5t-51 -135.5zM494 164q94 0 145 50t51 136q0 47 -15 83l-273 -253q42 -16 92 -16z" />
    <glyph glyph-name="Ugrave" unicode="&#xd9;" horiz-adv-x="896" 
d="M581 700h275v-412q0 -80 -22.5 -137t-57.5 -88.5t-92 -49.5t-109 -23t-127 -5q-52 0 -91 2.5t-84 10t-77 20.5t-63 35.5t-50.5 54t-31 77t-11.5 103.5v412h275v-399q0 -75 30.5 -106t102.5 -31t102.5 30.5t30.5 106.5v399zM479 905l85 -148h-190l-142 148h247z" />
    <glyph glyph-name="Uacute" unicode="&#xda;" horiz-adv-x="896" 
d="M581 700h275v-412q0 -80 -22.5 -137t-57.5 -88.5t-92 -49.5t-109 -23t-127 -5q-52 0 -91 2.5t-84 10t-77 20.5t-63 35.5t-50.5 54t-31 77t-11.5 103.5v412h275v-399q0 -75 30.5 -106t102.5 -31t102.5 30.5t30.5 106.5v399zM438 905h246l-142 -148h-190z" />
    <glyph glyph-name="Ucircumflex" unicode="&#xdb;" horiz-adv-x="896" 
d="M581 700h275v-412q0 -80 -22.5 -137t-57.5 -88.5t-92 -49.5t-109 -23t-127 -5q-52 0 -91 2.5t-84 10t-77 20.5t-63 35.5t-50.5 54t-31 77t-11.5 103.5v412h275v-399q0 -75 30.5 -106t102.5 -31t102.5 30.5t30.5 106.5v399zM578 905l149 -148h-210l-68 77l-69 -77h-210
l149 148h259z" />
    <glyph glyph-name="Udieresis" unicode="&#xdc;" horiz-adv-x="896" 
d="M581 700h275v-412q0 -80 -22.5 -137t-57.5 -88.5t-92 -49.5t-109 -23t-127 -5q-52 0 -91 2.5t-84 10t-77 20.5t-63 35.5t-50.5 54t-31 77t-11.5 103.5v412h275v-399q0 -75 30.5 -106t102.5 -31t102.5 30.5t30.5 106.5v399zM321 939q38 0 65.5 -27.5t27.5 -65.5
q0 -39 -27.5 -66t-65.5 -27q-39 0 -66.5 27t-27.5 66q0 38 27.5 65.5t66.5 27.5zM576 939q38 0 65.5 -27.5t27.5 -65.5q0 -39 -27.5 -66t-65.5 -27q-39 0 -66.5 27t-27.5 66q0 38 27.5 65.5t66.5 27.5z" />
    <glyph glyph-name="Yacute" unicode="&#xdd;" horiz-adv-x="904" 
d="M613 700h301l-324 -452v-248h-276v248l-324 452h301l161 -261zM442 905h246l-142 -148h-190z" />
    <glyph glyph-name="Thorn" unicode="&#xde;" horiz-adv-x="881" 
d="M557 614q304 0 304 -242q0 -133 -84 -191t-239 -58h-223v-123h-275v700h275v-86h242zM498 302q89 0 89 69q0 63 -89 63h-183v-132h183z" />
    <glyph glyph-name="germandbls" unicode="&#xdf;" horiz-adv-x="842" 
d="M658 384q164 -31 164 -171q0 -58 -18.5 -100t-48.5 -66t-76.5 -38.5t-93 -19t-107.5 -4.5q-52 0 -148 15v150q52 -13 110 -13q64 0 99 17.5t35 64.5q0 40 -32 53t-96 13h-116v161h107q47 0 68.5 13.5t21.5 43.5q0 36 -32 52t-96 16q-65 0 -93.5 -25t-28.5 -94v-452h-247
v461q0 59 19 103.5t51 72.5t80.5 45.5t101.5 24.5t120 7q64 0 113 -4.5t97 -17t79 -33.5t50 -56t19 -83q0 -96 -102 -136z" />
    <glyph glyph-name="agrave" unicode="&#xe0;" horiz-adv-x="723" 
d="M360 547q58 0 103 -4.5t90 -17.5t74 -35t47.5 -60t18.5 -89v-341h-246v53q-68 -68 -195 -68q-232 0 -232 162q0 50 17.5 83.5t63.5 59t131.5 35t214.5 3.5v13q0 39 -18.5 56.5t-68.5 17.5q-82 0 -91 -44h-220q14 94 92.5 135t218.5 41zM447 146v58q-62 3 -104.5 1
t-64.5 -14.5t-22 -39.5q0 -48 69 -48q76 0 122 43zM398 735l85 -148h-190l-142 148h247z" />
    <glyph glyph-name="aacute" unicode="&#xe1;" horiz-adv-x="723" 
d="M360 547q58 0 103 -4.5t90 -17.5t74 -35t47.5 -60t18.5 -89v-341h-246v53q-68 -68 -195 -68q-232 0 -232 162q0 50 17.5 83.5t63.5 59t131.5 35t214.5 3.5v13q0 39 -18.5 56.5t-68.5 17.5q-82 0 -91 -44h-220q14 94 92.5 135t218.5 41zM447 146v58q-62 3 -104.5 1
t-64.5 -14.5t-22 -39.5q0 -48 69 -48q76 0 122 43zM357 735h246l-142 -148h-190z" />
    <glyph glyph-name="acircumflex" unicode="&#xe2;" horiz-adv-x="723" 
d="M360 547q58 0 103 -4.5t90 -17.5t74 -35t47.5 -60t18.5 -89v-341h-246v53q-68 -68 -195 -68q-232 0 -232 162q0 50 17.5 83.5t63.5 59t131.5 35t214.5 3.5v13q0 39 -18.5 56.5t-68.5 17.5q-82 0 -91 -44h-220q14 94 92.5 135t218.5 41zM447 146v58q-62 3 -104.5 1
t-64.5 -14.5t-22 -39.5q0 -48 69 -48q76 0 122 43zM506 735l149 -148h-210l-68 77l-69 -77h-210l149 148h259z" />
    <glyph glyph-name="atilde" unicode="&#xe3;" horiz-adv-x="723" 
d="M360 547q58 0 103 -4.5t90 -17.5t74 -35t47.5 -60t18.5 -89v-341h-246v53q-68 -68 -195 -68q-232 0 -232 162q0 50 17.5 83.5t63.5 59t131.5 35t214.5 3.5v13q0 39 -18.5 56.5t-68.5 17.5q-82 0 -91 -44h-220q14 94 92.5 135t218.5 41zM447 146v58q-62 3 -104.5 1
t-64.5 -14.5t-22 -39.5q0 -48 69 -48q76 0 122 43zM469 740h141q0 -164 -111 -164q-54 0 -114 22t-74 22q-26 0 -26 -38h-142q0 163 111 163q53 0 113.5 -22t77.5 -22q12 0 17.5 7t6 13t0.5 19z" />
    <glyph glyph-name="adieresis" unicode="&#xe4;" horiz-adv-x="723" 
d="M360 547q58 0 103 -4.5t90 -17.5t74 -35t47.5 -60t18.5 -89v-341h-246v53q-68 -68 -195 -68q-232 0 -232 162q0 50 17.5 83.5t63.5 59t131.5 35t214.5 3.5v13q0 39 -18.5 56.5t-68.5 17.5q-82 0 -91 -44h-220q14 94 92.5 135t218.5 41zM447 146v58q-62 3 -104.5 1
t-64.5 -14.5t-22 -39.5q0 -48 69 -48q76 0 122 43zM250 769q38 0 65.5 -27.5t27.5 -65.5q0 -39 -27.5 -66t-65.5 -27q-39 0 -66.5 27t-27.5 66q0 38 27.5 65.5t66.5 27.5zM505 769q38 0 65.5 -27.5t27.5 -65.5q0 -39 -27.5 -66t-65.5 -27q-39 0 -66.5 27t-27.5 66
q0 38 27.5 65.5t66.5 27.5z" />
    <glyph glyph-name="aring" unicode="&#xe5;" horiz-adv-x="723" 
d="M360 547q58 0 103 -4.5t90 -17.5t74 -35t47.5 -60t18.5 -89v-341h-246v53q-68 -68 -195 -68q-232 0 -232 162q0 50 17.5 83.5t63.5 59t131.5 35t214.5 3.5v13q0 39 -18.5 56.5t-68.5 17.5q-82 0 -91 -44h-220q14 94 92.5 135t218.5 41zM447 146v58q-62 3 -104.5 1
t-64.5 -14.5t-22 -39.5q0 -48 69 -48q76 0 122 43zM377 858q61 0 100.5 -40.5t39.5 -100.5t-39.5 -100t-100.5 -40q-60 0 -100 40t-40 100t40 100.5t100 40.5zM377 672q21 0 33.5 12.5t12.5 32.5q0 21 -12.5 33.5t-33.5 12.5t-33 -12.5t-12 -33.5q0 -20 12 -32.5t33 -12.5z
" />
    <glyph glyph-name="ae" unicode="&#xe6;" horiz-adv-x="1181" 
d="M1160 217h-460q22 -85 124 -85q70 0 104 49h224q-16 -70 -67.5 -115.5t-116 -63t-144.5 -17.5q-181 0 -281 91q-45 -44 -117.5 -67.5t-154.5 -23.5q-116 0 -183.5 41t-67.5 121q0 50 17.5 83.5t63.5 59.5t132 35t215 3v14q0 38 -18.5 55.5t-69.5 17.5q-82 0 -91 -44h-220
q14 94 92.5 135t218.5 41q172 0 243 -48q88 48 216 48q65 0 124 -17.5t111.5 -54t81.5 -103t24 -155.5zM448 146v58q-103 5 -147.5 -4.5t-44.5 -48.5q0 -48 70 -48q72 0 122 43zM701 322h228q-22 78 -110 78q-95 0 -118 -78z" />
    <glyph glyph-name="ccedilla" unicode="&#xe7;" horiz-adv-x="752" 
d="M382 142q94 0 119 76h231q-12 -78 -60 -130.5t-111 -75t-142 -26.5l-24 -31q37 6 75 7.5t67.5 -20.5t29.5 -66q0 -108 -188 -108q-66 0 -130 16v81q43 -17 90 -17q61 0 61 27q0 6 -2.5 10t-8 6.5t-12 4t-15.5 1.5t-17 -0.5t-19 -1.5t-18.5 -2l-18.5 -2.5t-16 -2.5v54
l35 47q-59 7 -108.5 25t-91 50t-65 83.5t-23.5 118.5q0 78 31.5 135t85 87.5t114.5 44.5t131 14q64 0 119.5 -12t105 -37.5t82.5 -72t43 -110.5h-231q-25 76 -119 76q-62 0 -93.5 -34t-31.5 -91t31.5 -90.5t93.5 -33.5z" />
    <glyph glyph-name="egrave" unicode="&#xe8;" horiz-adv-x="736" 
d="M715 217h-461q22 -85 124 -85q71 0 104 48h225q-24 -102 -114.5 -148.5t-214.5 -46.5q-69 0 -130.5 15.5t-114 47.5t-83 88t-30.5 130t30.5 130t82 88t112 47.5t128.5 15.5q51 0 99 -10t94.5 -35t80.5 -61.5t53 -94t15 -129.5zM373 400q-94 0 -118 -79h228
q-23 79 -110 79zM399 735l85 -148h-190l-142 148h247z" />
    <glyph glyph-name="eacute" unicode="&#xe9;" horiz-adv-x="736" 
d="M715 217h-461q22 -85 124 -85q71 0 104 48h225q-24 -102 -114.5 -148.5t-214.5 -46.5q-69 0 -130.5 15.5t-114 47.5t-83 88t-30.5 130t30.5 130t82 88t112 47.5t128.5 15.5q51 0 99 -10t94.5 -35t80.5 -61.5t53 -94t15 -129.5zM373 400q-94 0 -118 -79h228
q-23 79 -110 79zM348 735h246l-142 -148h-190z" />
    <glyph glyph-name="ecircumflex" unicode="&#xea;" horiz-adv-x="736" 
d="M715 217h-461q22 -85 124 -85q71 0 104 48h225q-24 -102 -114.5 -148.5t-214.5 -46.5q-69 0 -130.5 15.5t-114 47.5t-83 88t-30.5 130t30.5 130t82 88t112 47.5t128.5 15.5q51 0 99 -10t94.5 -35t80.5 -61.5t53 -94t15 -129.5zM373 400q-94 0 -118 -79h228
q-23 79 -110 79zM501 735l149 -148h-210l-68 77l-69 -77h-210l149 148h259z" />
    <glyph glyph-name="edieresis" unicode="&#xeb;" horiz-adv-x="736" 
d="M715 217h-461q22 -85 124 -85q71 0 104 48h225q-24 -102 -114.5 -148.5t-214.5 -46.5q-69 0 -130.5 15.5t-114 47.5t-83 88t-30.5 130t30.5 130t82 88t112 47.5t128.5 15.5q51 0 99 -10t94.5 -35t80.5 -61.5t53 -94t15 -129.5zM373 400q-94 0 -118 -79h228
q-23 79 -110 79zM245 769q38 0 65.5 -27.5t27.5 -65.5q0 -39 -27.5 -66t-65.5 -27q-39 0 -66.5 27t-27.5 66q0 38 27.5 65.5t66.5 27.5zM500 769q38 0 65.5 -27.5t27.5 -65.5q0 -39 -27.5 -66t-65.5 -27q-39 0 -66.5 27t-27.5 66q0 38 27.5 65.5t66.5 27.5z" />
    <glyph glyph-name="igrave" unicode="&#xec;" horiz-adv-x="306" 
d="M30 0v533h246v-533h-246zM167 735l85 -148h-190l-142 148h247z" />
    <glyph glyph-name="iacute" unicode="&#xed;" horiz-adv-x="306" 
d="M30 0v533h246v-533h-246zM143 735h246l-142 -148h-190z" />
    <glyph glyph-name="icircumflex" unicode="&#xee;" horiz-adv-x="306" 
d="M30 0v533h246v-533h-246zM283 735l149 -148h-210l-68 77l-69 -77h-210l149 148h259z" />
    <glyph glyph-name="idieresis" unicode="&#xef;" horiz-adv-x="306" 
d="M30 0v533h246v-533h-246zM26 769q38 0 65.5 -27.5t27.5 -65.5q0 -39 -27.5 -66t-65.5 -27q-39 0 -66.5 27t-27.5 66q0 38 27.5 65.5t66.5 27.5zM281 769q38 0 65.5 -27.5t27.5 -65.5q0 -39 -27.5 -66t-65.5 -27q-39 0 -66.5 27t-27.5 66q0 38 27.5 65.5t66.5 27.5z" />
    <glyph glyph-name="eth" unicode="&#xf0;" horiz-adv-x="775" 
d="M502 662q253 -111 253 -369q0 -308 -382 -308q-353 0 -353 256q0 64 26 110.5t70.5 72t96 37t111.5 11.5q79 0 133 -22.5t71 -42.5q-30 107 -171 155l-119 -81l-52 76l49 33q-63 8 -139 8l23 135q149 0 276 -34l124 85l52 -75zM376 150q25 0 43.5 2.5t39.5 10.5
t32.5 26.5t11.5 46.5t-11.5 45.5t-34 24.5t-39 9t-42.5 2q-116 0 -116 -81q0 -86 116 -86z" />
    <glyph glyph-name="ntilde" unicode="&#xf1;" 
d="M465 547q230 0 230 -218v-329h-246v279q0 51 -17.5 77t-67.5 26t-69 -26.5t-19 -76.5v-279h-246v533h246v-66q59 80 189 80zM455 740h141q0 -164 -111 -164q-54 0 -114 22t-74 22q-26 0 -26 -38h-142q0 163 111 163q53 0 113.5 -22t77.5 -22q12 0 17.5 7t6 13t0.5 19z
" />
    <glyph glyph-name="ograve" unicode="&#xf2;" horiz-adv-x="765" 
d="M383 547q70 0 131 -14t114.5 -44.5t85 -87.5t31.5 -135q0 -77 -31.5 -134t-85 -88t-114.5 -45t-131 -14t-131 14t-115 45t-85.5 88t-31.5 134q0 63 21.5 112.5t56 80.5t82.5 51.5t98 28.5t105 8zM383 142q62 0 93.5 33.5t31.5 90.5t-31.5 91t-93.5 34q-63 0 -94.5 -34
t-31.5 -91t31.5 -90.5t94.5 -33.5zM423 735l85 -148h-190l-142 148h247z" />
    <glyph glyph-name="oacute" unicode="&#xf3;" horiz-adv-x="765" 
d="M383 547q70 0 131 -14t114.5 -44.5t85 -87.5t31.5 -135q0 -77 -31.5 -134t-85 -88t-114.5 -45t-131 -14t-131 14t-115 45t-85.5 88t-31.5 134q0 63 21.5 112.5t56 80.5t82.5 51.5t98 28.5t105 8zM383 142q62 0 93.5 33.5t31.5 90.5t-31.5 91t-93.5 34q-63 0 -94.5 -34
t-31.5 -91t31.5 -90.5t94.5 -33.5zM362 735h246l-142 -148h-190z" />
    <glyph glyph-name="ocircumflex" unicode="&#xf4;" horiz-adv-x="765" 
d="M383 547q70 0 131 -14t114.5 -44.5t85 -87.5t31.5 -135q0 -77 -31.5 -134t-85 -88t-114.5 -45t-131 -14t-131 14t-115 45t-85.5 88t-31.5 134q0 63 21.5 112.5t56 80.5t82.5 51.5t98 28.5t105 8zM383 142q62 0 93.5 33.5t31.5 90.5t-31.5 91t-93.5 34q-63 0 -94.5 -34
t-31.5 -91t31.5 -90.5t94.5 -33.5zM512 735l149 -148h-210l-68 77l-69 -77h-210l149 148h259z" />
    <glyph glyph-name="otilde" unicode="&#xf5;" horiz-adv-x="765" 
d="M383 547q70 0 131 -14t114.5 -44.5t85 -87.5t31.5 -135q0 -77 -31.5 -134t-85 -88t-114.5 -45t-131 -14t-131 14t-115 45t-85.5 88t-31.5 134q0 63 21.5 112.5t56 80.5t82.5 51.5t98 28.5t105 8zM383 142q62 0 93.5 33.5t31.5 90.5t-31.5 91t-93.5 34q-63 0 -94.5 -34
t-31.5 -91t31.5 -90.5t94.5 -33.5zM475 740h141q0 -164 -111 -164q-54 0 -114 22t-74 22q-26 0 -26 -38h-142q0 163 111 163q53 0 113.5 -22t77.5 -22q12 0 17.5 7t6 13t0.5 19z" />
    <glyph glyph-name="odieresis" unicode="&#xf6;" horiz-adv-x="765" 
d="M383 547q70 0 131 -14t114.5 -44.5t85 -87.5t31.5 -135q0 -77 -31.5 -134t-85 -88t-114.5 -45t-131 -14t-131 14t-115 45t-85.5 88t-31.5 134q0 63 21.5 112.5t56 80.5t82.5 51.5t98 28.5t105 8zM383 142q62 0 93.5 33.5t31.5 90.5t-31.5 91t-93.5 34q-63 0 -94.5 -34
t-31.5 -91t31.5 -90.5t94.5 -33.5zM255 769q38 0 65.5 -27.5t27.5 -65.5q0 -39 -27.5 -66t-65.5 -27q-39 0 -66.5 27t-27.5 66q0 38 27.5 65.5t66.5 27.5zM510 769q38 0 65.5 -27.5t27.5 -65.5q0 -39 -27.5 -66t-65.5 -27q-39 0 -66.5 27t-27.5 66q0 38 27.5 65.5t66.5 27.5
z" />
    <glyph glyph-name="divide" unicode="&#xf7;" horiz-adv-x="578" 
d="M289 210q38 0 65.5 -27.5t27.5 -65.5q0 -39 -27.5 -66t-65.5 -27q-39 0 -66 27t-27 66q0 38 27 65.5t66 27.5zM289 429q-39 0 -66 27t-27 66q0 38 27 65.5t66 27.5q38 0 65.5 -27.5t27.5 -65.5q0 -39 -27.5 -66t-65.5 -27zM40 391h498v-143h-498v143z" />
    <glyph glyph-name="oslash" unicode="&#xf8;" horiz-adv-x="764" 
d="M661 464q83 -72 83 -198q0 -77 -31.5 -134t-85 -88t-114.5 -45t-131 -14q-116 0 -200 36l-66 -61l-60 65l47 44q-83 72 -83 197q0 78 31.5 135t85 87.5t114.5 44.5t131 14q116 0 200 -35l66 61l61 -65zM257 266q0 -28 7 -48l176 163q-27 10 -58 10q-62 0 -93.5 -34
t-31.5 -91zM382 142q63 0 94 33.5t31 90.5q0 28 -7 49l-176 -163q23 -10 58 -10z" />
    <glyph glyph-name="ugrave" unicode="&#xf9;" 
d="M260 -14q-230 0 -230 218v329h246v-279q0 -51 17.5 -77t67.5 -26t69 26.5t19 76.5v279h246v-533h-246v66q-59 -80 -189 -80zM384 735l85 -148h-190l-142 148h247z" />
    <glyph glyph-name="uacute" unicode="&#xfa;" 
d="M260 -14q-230 0 -230 218v329h246v-279q0 -51 17.5 -77t67.5 -26t69 26.5t19 76.5v279h246v-533h-246v66q-59 -80 -189 -80zM353 735h246l-142 -148h-190z" />
    <glyph glyph-name="ucircumflex" unicode="&#xfb;" 
d="M260 -14q-230 0 -230 218v329h246v-279q0 -51 17.5 -77t67.5 -26t69 26.5t19 76.5v279h246v-533h-246v66q-59 -80 -189 -80zM493 735l149 -148h-210l-68 77l-69 -77h-210l149 148h259z" />
    <glyph glyph-name="udieresis" unicode="&#xfc;" 
d="M260 -14q-230 0 -230 218v329h246v-279q0 -51 17.5 -77t67.5 -26t69 26.5t19 76.5v279h246v-533h-246v66q-59 -80 -189 -80zM236 769q38 0 65.5 -27.5t27.5 -65.5q0 -39 -27.5 -66t-65.5 -27q-39 0 -66.5 27t-27.5 66q0 38 27.5 65.5t66.5 27.5zM491 769q38 0 65.5 -27.5
t27.5 -65.5q0 -39 -27.5 -66t-65.5 -27q-39 0 -66.5 27t-27.5 66q0 38 27.5 65.5t66.5 27.5z" />
    <glyph glyph-name="yacute" unicode="&#xfd;" horiz-adv-x="720" 
d="M467 533h253l-320 -700h-250l95 171l-255 529h253l116 -288zM335 735h246l-142 -148h-190z" />
    <glyph glyph-name="thorn" unicode="&#xfe;" horiz-adv-x="768" 
d="M462 547q127 0 206.5 -74.5t79.5 -206.5t-79.5 -206.5t-206.5 -74.5q-121 0 -186 70v-222h-246v867h246v-222q64 69 186 69zM386 142q62 0 93.5 34.5t31.5 89.5t-31.5 90t-93.5 35q-64 0 -96.5 -33t-32.5 -91t32.5 -91.5t96.5 -33.5z" />
    <glyph glyph-name="ydieresis" unicode="&#xff;" horiz-adv-x="720" 
d="M467 533h253l-320 -700h-250l95 171l-255 529h253l116 -288zM232 769q38 0 65.5 -27.5t27.5 -65.5q0 -39 -27.5 -66t-65.5 -27q-39 0 -66.5 27t-27.5 66q0 38 27.5 65.5t66.5 27.5zM487 769q38 0 65.5 -27.5t27.5 -65.5q0 -39 -27.5 -66t-65.5 -27q-39 0 -66.5 27
t-27.5 66q0 38 27.5 65.5t66.5 27.5z" />
    <glyph glyph-name="Amacron" unicode="&#x100;" horiz-adv-x="960" 
d="M675 0l-39 99h-312l-39 -99h-285l324 700h312l324 -700h-285zM396 279h168l-84 214zM239 891h483v-123h-483v123z" />
    <glyph glyph-name="amacron" unicode="&#x101;" horiz-adv-x="723" 
d="M360 547q58 0 103 -4.5t90 -17.5t74 -35t47.5 -60t18.5 -89v-341h-246v53q-68 -68 -195 -68q-232 0 -232 162q0 50 17.5 83.5t63.5 59t131.5 35t214.5 3.5v13q0 39 -18.5 56.5t-68.5 17.5q-82 0 -91 -44h-220q14 94 92.5 135t218.5 41zM447 146v58q-62 3 -104.5 1
t-64.5 -14.5t-22 -39.5q0 -48 69 -48q76 0 122 43zM135 721h483v-123h-483v123z" />
    <glyph glyph-name="Abreve" unicode="&#x102;" horiz-adv-x="960" 
d="M675 0l-39 99h-312l-39 -99h-285l324 700h312l324 -700h-285zM396 279h168l-84 214zM549 905h145q0 -153 -213 -153q-214 0 -214 153h145q6 -49 69 -49q62 0 68 49z" />
    <glyph glyph-name="abreve" unicode="&#x103;" horiz-adv-x="723" 
d="M360 547q58 0 103 -4.5t90 -17.5t74 -35t47.5 -60t18.5 -89v-341h-246v53q-68 -68 -195 -68q-232 0 -232 162q0 50 17.5 83.5t63.5 59t131.5 35t214.5 3.5v13q0 39 -18.5 56.5t-68.5 17.5q-82 0 -91 -44h-220q14 94 92.5 135t218.5 41zM447 146v58q-62 3 -104.5 1
t-64.5 -14.5t-22 -39.5q0 -48 69 -48q76 0 122 43zM445 735h145q0 -153 -213 -153q-214 0 -214 153h145q6 -49 69 -49q62 0 68 49z" />
    <glyph glyph-name="Aogonek" unicode="&#x104;" horiz-adv-x="960" 
d="M675 0l-39 99h-312l-39 -99h-285l324 700h312l324 -700q-93 -28 -93 -66q0 -24 34 -25.5t59 10.5v-100q-51 -16 -115 -16q-167 0 -167 87q0 65 98 110h-101zM396 279h168l-84 214z" />
    <glyph glyph-name="aogonek" unicode="&#x105;" horiz-adv-x="723" 
d="M693 0q-92 -28 -92 -66q0 -24 34 -25.5t58 10.5v-100q-51 -16 -114 -16q-167 0 -167 87q0 65 98 110h-63v53q-70 -68 -195 -68q-232 0 -232 162q0 50 17.5 83.5t63.5 59t131.5 35t214.5 3.5v14q0 38 -18.5 55.5t-68.5 17.5q-82 0 -91 -44h-220q14 94 92.5 135t218.5 41
q58 0 103 -4.5t90 -17.5t74 -35t47.5 -59.5t18.5 -88.5v-342zM447 146v58q-62 3 -104.5 1t-64.5 -14.5t-22 -39.5q0 -48 69 -48q74 0 122 43z" />
    <glyph glyph-name="Cacute" unicode="&#x106;" horiz-adv-x="946" 
d="M475 164q146 0 170 132h281q-11 -84 -51.5 -145.5t-103 -97t-136 -52t-160.5 -16.5q-73 0 -137 11.5t-123 38.5t-101.5 67.5t-68 104t-25.5 143.5t25.5 143t68 104t101.5 67.5t123 38t137 11.5q87 0 160.5 -16.5t136 -52t103 -97t51.5 -145.5h-281q-23 132 -170 132
q-88 0 -132.5 -48t-44.5 -137t44.5 -137.5t132.5 -48.5zM463 905h246l-142 -148h-190z" />
    <glyph glyph-name="cacute" unicode="&#x107;" horiz-adv-x="752" 
d="M383 142q93 0 118 76h231q-9 -64 -42 -111t-83 -72.5t-105 -37.5t-119 -12q-70 0 -131 14t-115 45t-85.5 87.5t-31.5 134.5t31.5 135t85.5 87.5t115 44.5t131 14q87 0 157 -20t125 -74t67 -138h-231q-25 76 -118 76q-63 0 -94.5 -34t-31.5 -91t31.5 -90.5t94.5 -33.5z
M366 735h246l-142 -148h-190z" />
    <glyph glyph-name="Ccircumflex" unicode="&#x108;" horiz-adv-x="946" 
d="M475 164q146 0 170 132h281q-11 -84 -51.5 -145.5t-103 -97t-136 -52t-160.5 -16.5q-73 0 -137 11.5t-123 38.5t-101.5 67.5t-68 104t-25.5 143.5t25.5 143t68 104t101.5 67.5t123 38t137 11.5q87 0 160.5 -16.5t136 -52t103 -97t51.5 -145.5h-281q-23 132 -170 132
q-88 0 -132.5 -48t-44.5 -137t44.5 -137.5t132.5 -48.5zM602 905l149 -148h-210l-68 77l-69 -77h-210l149 148h259z" />
    <glyph glyph-name="ccircumflex" unicode="&#x109;" horiz-adv-x="752" 
d="M383 142q93 0 118 76h231q-9 -64 -42 -111t-83 -72.5t-105 -37.5t-119 -12q-70 0 -131 14t-115 45t-85.5 87.5t-31.5 134.5t31.5 135t85.5 87.5t115 44.5t131 14q87 0 157 -20t125 -74t67 -138h-231q-25 76 -118 76q-63 0 -94.5 -34t-31.5 -91t31.5 -90.5t94.5 -33.5z
M506 735l149 -148h-210l-68 77l-69 -77h-210l149 148h259z" />
    <glyph glyph-name="Cdotaccent" unicode="&#x10a;" horiz-adv-x="946" 
d="M475 164q146 0 170 132h281q-11 -84 -51.5 -145.5t-103 -97t-136 -52t-160.5 -16.5q-73 0 -137 11.5t-123 38.5t-101.5 67.5t-68 104t-25.5 143.5t25.5 143t68 104t101.5 67.5t123 38t137 11.5q87 0 160.5 -16.5t136 -52t103 -97t51.5 -145.5h-281q-23 132 -170 132
q-88 0 -132.5 -48t-44.5 -137t44.5 -137.5t132.5 -48.5zM472 939q39 0 66.5 -27.5t27.5 -65.5q0 -39 -27.5 -66t-66.5 -27q-38 0 -65.5 27t-27.5 66q0 38 27.5 65.5t65.5 27.5z" />
    <glyph glyph-name="cdotaccent" unicode="&#x10b;" horiz-adv-x="752" 
d="M383 142q93 0 118 76h231q-9 -64 -42 -111t-83 -72.5t-105 -37.5t-119 -12q-70 0 -131 14t-115 45t-85.5 87.5t-31.5 134.5t31.5 135t85.5 87.5t115 44.5t131 14q87 0 157 -20t125 -74t67 -138h-231q-25 76 -118 76q-63 0 -94.5 -34t-31.5 -91t31.5 -90.5t94.5 -33.5z
M376 769q39 0 66.5 -27.5t27.5 -65.5q0 -39 -27.5 -66t-66.5 -27q-38 0 -65.5 27t-27.5 66q0 38 27.5 65.5t65.5 27.5z" />
    <glyph glyph-name="Ccaron" unicode="&#x10c;" horiz-adv-x="946" 
d="M475 164q146 0 170 132h281q-11 -84 -51.5 -145.5t-103 -97t-136 -52t-160.5 -16.5q-73 0 -137 11.5t-123 38.5t-101.5 67.5t-68 104t-25.5 143.5t25.5 143t68 104t101.5 67.5t123 38t137 11.5q87 0 160.5 -16.5t136 -52t103 -97t51.5 -145.5h-281q-23 132 -170 132
q-88 0 -132.5 -48t-44.5 -137t44.5 -137.5t132.5 -48.5zM542 905h209l-148 -148h-260l-148 148h209l69 -77z" />
    <glyph glyph-name="ccaron" unicode="&#x10d;" horiz-adv-x="752" 
d="M383 142q93 0 118 76h231q-9 -64 -42 -111t-83 -72.5t-105 -37.5t-119 -12q-70 0 -131 14t-115 45t-85.5 87.5t-31.5 134.5t31.5 135t85.5 87.5t115 44.5t131 14q87 0 157 -20t125 -74t67 -138h-231q-25 76 -118 76q-63 0 -94.5 -34t-31.5 -91t31.5 -90.5t94.5 -33.5z
M445 735h209l-148 -148h-260l-148 148h209l69 -77z" />
    <glyph glyph-name="Dcaron" unicode="&#x10e;" horiz-adv-x="913" 
d="M442 700q76 0 136 -7.5t121.5 -29.5t102 -59.5t66 -102t25.5 -151.5t-25.5 -151.5t-66 -102t-102 -60t-121 -29.5t-136.5 -7h-402v700h402zM360 180h7q34 0 51 0.5t45.5 2t43 6t35.5 12.5t31.5 20.5t21.5 30t15.5 42.5t4.5 56q0 36 -7 63t-17 44.5t-30.5 30t-36 18.5
t-47 9t-50.5 3.5t-58 0.5h-9h-45v-339h45zM505 905h209l-148 -148h-260l-148 148h209l69 -77z" />
    <glyph glyph-name="dcaron" unicode="&#x10f;" horiz-adv-x="985" 
d="M20 266q0 132 79.5 206.5t206.5 74.5q122 0 186 -69v222h247v-700h-247v54q-64 -69 -186 -69q-127 0 -206.5 74.5t-79.5 206.5zM257 266q0 -55 31.5 -89.5t93.5 -34.5q64 0 96.5 33t32.5 91t-32.5 91.5t-96.5 33.5q-62 0 -93.5 -35t-31.5 -90zM845 700h190l-105 -243
h-151z" />
    <glyph glyph-name="Dcroat" unicode="&#x110;" horiz-adv-x="959" 
d="M489 700q63 0 114 -5.5t104.5 -18.5t93.5 -38.5t72 -63t49 -94.5t17 -130q0 -87 -25.5 -151.5t-65.5 -102t-101.5 -60t-121 -29.5t-136.5 -7h-403v283h-76v133h76v284h403zM407 180h7q39 0 58 0.5t50.5 3.5t47.5 9.5t36.5 18.5t30.5 30t17 45t7 63t-7 63t-17 45t-30.5 30
t-36.5 18.5t-47.5 9.5t-50.5 3.5t-58 0.5h-7h-46v-104h186v-133h-186v-103h46z" />
    <glyph glyph-name="dcroat" unicode="&#x111;" horiz-adv-x="800" 
d="M738 640h72v-95h-72v-545h-246v55q-65 -70 -186 -70q-127 0 -206.5 74.5t-79.5 206.5q0 131 78.5 199t207.5 68q123 0 186 -63v75h-124v95h124v60h246v-60zM382 142q64 0 96.5 33t32.5 91t-32.5 91.5t-96.5 33.5q-62 0 -93.5 -35t-31.5 -90t31.5 -89.5t93.5 -34.5z" />
    <glyph glyph-name="Emacron" unicode="&#x112;" horiz-adv-x="808" 
d="M778 180v-180h-738v700h729v-181h-454v-79h426v-171h-426v-89h463zM167 891h483v-123h-483v123z" />
    <glyph glyph-name="emacron" unicode="&#x113;" horiz-adv-x="736" 
d="M715 217h-461q22 -85 124 -85q71 0 104 48h225q-24 -102 -114.5 -148.5t-214.5 -46.5q-69 0 -130.5 15.5t-114 47.5t-83 88t-30.5 130t30.5 130t82 88t112 47.5t128.5 15.5q51 0 99 -10t94.5 -35t80.5 -61.5t53 -94t15 -129.5zM373 400q-94 0 -118 -79h228
q-23 79 -110 79zM130 721h483v-123h-483v123z" />
    <glyph glyph-name="Ebreve" unicode="&#x114;" horiz-adv-x="808" 
d="M778 180v-180h-738v700h729v-181h-454v-79h426v-171h-426v-89h463zM477 905h145q0 -153 -213 -153q-214 0 -214 153h145q6 -49 69 -49q62 0 68 49z" />
    <glyph glyph-name="ebreve" unicode="&#x115;" horiz-adv-x="736" 
d="M715 217h-461q22 -85 124 -85q71 0 104 48h225q-24 -102 -114.5 -148.5t-214.5 -46.5q-69 0 -130.5 15.5t-114 47.5t-83 88t-30.5 130t30.5 130t82 88t112 47.5t128.5 15.5q51 0 99 -10t94.5 -35t80.5 -61.5t53 -94t15 -129.5zM373 400q-94 0 -118 -79h228
q-23 79 -110 79zM442 735h145q0 -153 -213 -153q-214 0 -214 153h145q6 -49 69 -49q62 0 68 49z" />
    <glyph glyph-name="Edotaccent" unicode="&#x116;" horiz-adv-x="808" 
d="M778 180v-180h-738v700h729v-181h-454v-79h426v-171h-426v-89h463zM408 939q39 0 66.5 -27.5t27.5 -65.5q0 -39 -27.5 -66t-66.5 -27q-38 0 -65.5 27t-27.5 66q0 38 27.5 65.5t65.5 27.5z" />
    <glyph glyph-name="edotaccent" unicode="&#x117;" horiz-adv-x="736" 
d="M715 217h-461q22 -85 124 -85q71 0 104 48h225q-24 -102 -114.5 -148.5t-214.5 -46.5q-69 0 -130.5 15.5t-114 47.5t-83 88t-30.5 130t30.5 130t82 88t112 47.5t128.5 15.5q51 0 99 -10t94.5 -35t80.5 -61.5t53 -94t15 -129.5zM373 400q-94 0 -118 -79h228
q-23 79 -110 79zM372 769q39 0 66.5 -27.5t27.5 -65.5q0 -39 -27.5 -66t-66.5 -27q-38 0 -65.5 27t-27.5 66q0 38 27.5 65.5t65.5 27.5z" />
    <glyph glyph-name="Eogonek" unicode="&#x118;" horiz-adv-x="808" 
d="M685 -66q0 -24 34 -25.5t59 10.5v-100q-51 -16 -115 -16q-167 0 -167 87q0 65 98 110h-554v700h729v-181h-454v-79h426v-171h-426v-89h463v-180q-93 -28 -93 -66z" />
    <glyph glyph-name="eogonek" unicode="&#x119;" horiz-adv-x="736" 
d="M715 217h-461q22 -85 124 -85q71 0 104 48h225q-33 -142 -204 -182q-30 -9 -55.5 -25.5t-25.5 -38.5q0 -24 34.5 -25.5t58.5 10.5v-100q-48 -16 -115 -16q-167 0 -167 87q0 58 76 99q-59 7 -109 26t-91.5 51.5t-65 83.5t-23.5 116q0 74 30.5 130t82 88t112 47.5
t128.5 15.5q51 0 99 -10t94.5 -35t80.5 -61.5t53 -94t15 -129.5zM373 400q-94 0 -118 -79h228q-23 79 -110 79z" />
    <glyph glyph-name="Ecaron" unicode="&#x11a;" horiz-adv-x="808" 
d="M778 180v-180h-738v700h729v-181h-454v-79h426v-171h-426v-89h463zM478 905h209l-148 -148h-260l-148 148h209l69 -77z" />
    <glyph glyph-name="ecaron" unicode="&#x11b;" horiz-adv-x="736" 
d="M715 217h-461q22 -85 124 -85q71 0 104 48h225q-24 -102 -114.5 -148.5t-214.5 -46.5q-69 0 -130.5 15.5t-114 47.5t-83 88t-30.5 130t30.5 130t82 88t112 47.5t128.5 15.5q51 0 99 -10t94.5 -35t80.5 -61.5t53 -94t15 -129.5zM373 400q-94 0 -118 -79h228
q-23 79 -110 79zM442 735h209l-148 -148h-260l-148 148h209l69 -77z" />
    <glyph glyph-name="Gcircumflex" unicode="&#x11c;" horiz-adv-x="969" 
d="M946 416q17 -218 -104 -324.5t-342 -106.5q-75 0 -141.5 10.5t-129.5 37t-108.5 67t-73 105t-27.5 145.5t26.5 145t70.5 104.5t105 67t125.5 37t137.5 10.5q111 0 201.5 -25t156.5 -82t87 -141h-281q-47 69 -164 69q-187 0 -187 -185q0 -87 55.5 -136.5t149.5 -49.5
q73 0 113.5 24.5t52.5 56.5h-204v171h481zM614 905l149 -148h-210l-68 77l-69 -77h-210l149 148h259z" />
    <glyph glyph-name="gcircumflex" unicode="&#x11d;" horiz-adv-x="769" 
d="M493 533h246v-493q0 -50 -13.5 -88.5t-41.5 -62.5t-60 -39.5t-79.5 -23t-88.5 -10t-98 -2.5q-317 0 -324 181h225q11 -39 99 -39q26 0 37.5 0.5t34 4.5t33.5 12t20.5 25t9.5 42v46q-58 -53 -167 -53q-134 0 -220 62t-86 190q0 130 78.5 196t208.5 66q122 0 186 -62v48z
M383 180q129 0 129 105q0 106 -129 106q-61 0 -93 -28t-32 -78q0 -105 125 -105zM529 735l149 -148h-210l-68 77l-69 -77h-210l149 148h259z" />
    <glyph glyph-name="Gbreve" unicode="&#x11e;" horiz-adv-x="969" 
d="M946 416q17 -218 -104 -324.5t-342 -106.5q-75 0 -141.5 10.5t-129.5 37t-108.5 67t-73 105t-27.5 145.5t26.5 145t70.5 104.5t105 67t125.5 37t137.5 10.5q111 0 201.5 -25t156.5 -82t87 -141h-281q-47 69 -164 69q-187 0 -187 -185q0 -87 55.5 -136.5t149.5 -49.5
q73 0 113.5 24.5t52.5 56.5h-204v171h481zM553 905h145q0 -153 -213 -153q-214 0 -214 153h145q6 -49 69 -49q62 0 68 49z" />
    <glyph glyph-name="gbreve" unicode="&#x11f;" horiz-adv-x="769" 
d="M493 533h246v-493q0 -50 -13.5 -88.5t-41.5 -62.5t-60 -39.5t-79.5 -23t-88.5 -10t-98 -2.5q-317 0 -324 181h225q11 -39 99 -39q26 0 37.5 0.5t34 4.5t33.5 12t20.5 25t9.5 42v46q-58 -53 -167 -53q-134 0 -220 62t-86 190q0 130 78.5 196t208.5 66q122 0 186 -62v48z
M383 180q129 0 129 105q0 106 -129 106q-61 0 -93 -28t-32 -78q0 -105 125 -105zM468 735h145q0 -153 -213 -153q-214 0 -214 153h145q6 -49 69 -49q62 0 68 49z" />
    <glyph glyph-name="Gdotaccent" unicode="&#x120;" horiz-adv-x="969" 
d="M946 416q17 -218 -104 -324.5t-342 -106.5q-75 0 -141.5 10.5t-129.5 37t-108.5 67t-73 105t-27.5 145.5t26.5 145t70.5 104.5t105 67t125.5 37t137.5 10.5q111 0 201.5 -25t156.5 -82t87 -141h-281q-47 69 -164 69q-187 0 -187 -185q0 -87 55.5 -136.5t149.5 -49.5
q73 0 113.5 24.5t52.5 56.5h-204v171h481zM484 939q39 0 66.5 -27.5t27.5 -65.5q0 -39 -27.5 -66t-66.5 -27q-38 0 -65.5 27t-27.5 66q0 38 27.5 65.5t65.5 27.5z" />
    <glyph glyph-name="gdotaccent" unicode="&#x121;" horiz-adv-x="769" 
d="M493 533h246v-493q0 -50 -13.5 -88.5t-41.5 -62.5t-60 -39.5t-79.5 -23t-88.5 -10t-98 -2.5q-317 0 -324 181h225q11 -39 99 -39q26 0 37.5 0.5t34 4.5t33.5 12t20.5 25t9.5 42v46q-58 -53 -167 -53q-134 0 -220 62t-86 190q0 130 78.5 196t208.5 66q122 0 186 -62v48z
M383 180q129 0 129 105q0 106 -129 106q-61 0 -93 -28t-32 -78q0 -105 125 -105zM399 769q39 0 66.5 -27.5t27.5 -65.5q0 -39 -27.5 -66t-66.5 -27q-38 0 -65.5 27t-27.5 66q0 38 27.5 65.5t65.5 27.5z" />
    <glyph glyph-name="Gcommaaccent" unicode="&#x122;" horiz-adv-x="969" 
d="M946 416q17 -218 -104 -324.5t-342 -106.5q-75 0 -141.5 10.5t-129.5 37t-108.5 67t-73 105t-27.5 145.5t26.5 145t70.5 104.5t105 67t125.5 37t137.5 10.5q111 0 201.5 -25t156.5 -82t87 -141h-281q-47 69 -164 69q-187 0 -187 -185q0 -87 55.5 -136.5t149.5 -49.5
q73 0 113.5 24.5t52.5 56.5h-204v171h481zM385 -66h237l-106 -167h-170z" />
    <glyph glyph-name="gcommaaccent" unicode="&#x123;" horiz-adv-x="769" 
d="M493 533h246v-493q0 -50 -13.5 -88.5t-41.5 -62.5t-60 -39.5t-79.5 -23t-88.5 -10t-98 -2.5q-317 0 -324 181h225q11 -39 99 -39q26 0 37.5 0.5t34 4.5t33.5 12t20.5 25t9.5 42v46q-58 -53 -167 -53q-134 0 -220 62t-86 190q0 130 78.5 196t208.5 66q122 0 186 -62v48z
M383 180q129 0 129 105q0 106 -129 106q-61 0 -93 -28t-32 -78q0 -105 125 -105zM396 830h151l-66 -243h-190z" />
    <glyph glyph-name="Hcircumflex" unicode="&#x124;" horiz-adv-x="943" 
d="M628 700h275v-700h-275v259h-313v-259h-275v700h275v-241h313v241zM601 905l149 -148h-210l-68 77l-69 -77h-210l149 148h259z" />
    <glyph glyph-name="hcircumflex" unicode="&#x125;" 
d="M465 547q230 0 230 -218v-329h-246v279q0 51 -17.5 77t-67.5 26t-69 -26.5t-19 -76.5v-279h-246v700h246v-233q59 80 189 80zM287 905l149 -148h-210l-68 77l-69 -77h-210l149 148h259z" />
    <glyph glyph-name="Hbar" unicode="&#x126;" horiz-adv-x="1034" 
d="M1024 630v-133h-75v-497h-275v260h-313v-260h-275v497h-76v133h76v70h275v-70h313v70h275v-70h75zM674 459v38h-313v-38h313z" />
    <glyph glyph-name="hbar" unicode="&#x127;" horiz-adv-x="767" 
d="M507 533q116 0 173 -48.5t57 -155.5v-329h-247v279q0 51 -17 77t-67 26q-51 0 -70 -26.5t-19 -76.5v-279h-246v545h-71v95h71v60h246v-60h124v-95h-124v-82q59 70 190 70z" />
    <glyph glyph-name="Itilde" unicode="&#x128;" horiz-adv-x="355" 
d="M40 700h275v-700h-275v700zM270 910h141q0 -164 -111 -164q-54 0 -114 22t-74 22q-26 0 -26 -38h-142q0 163 111 163q53 0 113.5 -22t77.5 -22q12 0 17.5 7t6 13t0.5 19z" />
    <glyph glyph-name="itilde" unicode="&#x129;" horiz-adv-x="306" 
d="M30 0v533h246v-533h-246zM246 740h141q0 -164 -111 -164q-54 0 -114 22t-74 22q-26 0 -26 -38h-142q0 163 111 163q53 0 113.5 -22t77.5 -22q12 0 17.5 7t6 13t0.5 19z" />
    <glyph glyph-name="Imacron" unicode="&#x12a;" horiz-adv-x="355" 
d="M40 700h275v-700h-275v700zM-64 891h483v-123h-483v123z" />
    <glyph glyph-name="imacron" unicode="&#x12b;" horiz-adv-x="306" 
d="M30 0v533h246v-533h-246zM-88 721h483v-123h-483v123z" />
    <glyph glyph-name="Ibreve" unicode="&#x12c;" horiz-adv-x="355" 
d="M40 700h275v-700h-275v700zM246 905h145q0 -153 -213 -153q-214 0 -214 153h145q6 -49 69 -49q62 0 68 49z" />
    <glyph glyph-name="ibreve" unicode="&#x12d;" horiz-adv-x="306" 
d="M30 0v533h246v-533h-246zM222 735h145q0 -153 -213 -153q-214 0 -214 153h145q6 -49 69 -49q62 0 68 49z" />
    <glyph glyph-name="Iogonek" unicode="&#x12e;" horiz-adv-x="355" 
d="M315 0q-93 -28 -93 -66q0 -24 34.5 -25.5t58.5 10.5v-100q-48 -16 -115 -16q-167 0 -167 87q0 65 98 110h-91v700h275v-700z" />
    <glyph glyph-name="iogonek" unicode="&#x12f;" horiz-adv-x="306" 
d="M28 0v533h246v-533q-93 -28 -93 -66q0 -24 34 -25.5t59 10.5v-100q-51 -16 -115 -16q-167 0 -167 87q0 65 98 110h-62zM151 573q-57 0 -91.5 30.5t-34.5 84.5t34.5 85t91.5 31t91.5 -31t34.5 -85t-34.5 -84.5t-91.5 -30.5z" />
    <glyph glyph-name="Idotaccent" unicode="&#x130;" horiz-adv-x="355" 
d="M40 700h275v-700h-275v700zM177 939q39 0 66.5 -27.5t27.5 -65.5q0 -39 -27.5 -66t-66.5 -27q-38 0 -65.5 27t-27.5 66q0 38 27.5 65.5t65.5 27.5z" />
    <glyph glyph-name="dotlessi" unicode="&#x131;" horiz-adv-x="306" 
d="M30 0v533h246v-533h-246z" />
    <glyph glyph-name="IJ" unicode="&#x132;" horiz-adv-x="1186" 
d="M40 700h275v-700h-275v700zM871 700h275v-397q0 -60 -10.5 -108t-28 -81t-46 -56.5t-58.5 -37.5t-72 -22t-80 -10.5t-88 -2.5q-71 0 -124 6.5t-103 25t-81.5 50t-50.5 83t-19 121.5v99l258 -1v-86q0 -59 26.5 -89t93.5 -30q64 0 86 36t22 103v397z" />
    <glyph glyph-name="ij" unicode="&#x133;" horiz-adv-x="626" 
d="M153 573q-57 0 -91.5 30.5t-34.5 84.5t34.5 85t91.5 31t91.5 -31t34.5 -85t-34.5 -84.5t-91.5 -30.5zM30 0v533h246v-533h-246zM473 573q-57 0 -91.5 30.5t-34.5 84.5t34.5 85t91.5 31t91.5 -31t34.5 -85t-34.5 -84.5t-91.5 -30.5zM350 38v495h246v-495q0 -63 -9.5 -102
t-35.5 -68t-74 -41.5t-124 -12.5q-46 0 -94 4v165q55 -1 73 8t18 47z" />
    <glyph glyph-name="Jcircumflex" unicode="&#x134;" horiz-adv-x="821" 
d="M506 700h275v-397q0 -60 -10.5 -108t-28 -81t-46 -56.5t-58.5 -37.5t-72 -22t-80 -10.5t-88 -2.5q-71 0 -124 6.5t-103 25t-81.5 50t-50.5 83t-19 121.5v99l258 -1v-86q0 -59 26.5 -89t93.5 -30q64 0 86 36t22 103v397zM775 905l149 -148h-210l-68 77l-69 -77h-210
l149 148h259z" />
    <glyph glyph-name="jcircumflex" unicode="&#x135;" horiz-adv-x="306" 
d="M29 38v495h246v-495q0 -63 -9.5 -102t-35.5 -68t-74 -41.5t-124 -12.5q-46 0 -94 4v165q55 -1 73 8t18 47zM278 735l149 -148h-210l-68 77l-69 -77h-210l149 148h259z" />
    <glyph glyph-name="Kcommaaccent" unicode="&#x136;" horiz-adv-x="903" 
d="M579 0l-181 253l-83 -75v-178h-275v700h275v-222l233 222h341l-306 -279l320 -421h-324zM330 -66h237l-106 -167h-170z" />
    <glyph glyph-name="kcommaaccent" unicode="&#x137;" horiz-adv-x="728" 
d="M434 0l-110 166l-47 -45v-121h-247v700h247v-311l133 144h297l-225 -215l236 -318h-284zM245 -66h237l-106 -167h-170z" />
    <glyph glyph-name="kgreenlandic" unicode="&#x138;" horiz-adv-x="728" 
d="M434 0l-110 166l-47 -45v-121h-247v533h247v-144l133 144h297l-225 -215l236 -318h-284z" />
    <glyph glyph-name="Lacute" unicode="&#x139;" horiz-adv-x="788" 
d="M768 180v-180h-728v700h275v-520h453zM184 905h246l-142 -148h-190z" />
    <glyph glyph-name="lacute" unicode="&#x13a;" horiz-adv-x="306" 
d="M30 738h246v-738h-246v738zM148 943h246l-142 -148h-190z" />
    <glyph glyph-name="Lcommaaccent" unicode="&#x13b;" horiz-adv-x="788" 
d="M768 180v-180h-728v700h275v-520h453zM305 -66h237l-106 -167h-170z" />
    <glyph glyph-name="lcommaaccent" unicode="&#x13c;" horiz-adv-x="306" 
d="M29 738h246v-738h-246v738zM34 -66h237l-106 -167h-170z" />
    <glyph glyph-name="Lcaron" unicode="&#x13d;" horiz-adv-x="788" 
d="M768 180v-180h-728v700h275v-520h453zM499 700h190l-105 -243h-151z" />
    <glyph glyph-name="lcaron" unicode="&#x13e;" horiz-adv-x="523" 
d="M30 738h246v-738h-246v738zM383 700h190l-105 -243h-151z" />
    <glyph glyph-name="Ldot" unicode="&#x13f;" horiz-adv-x="788" 
d="M538 500q49 0 83.5 -35t34.5 -84t-34.5 -84t-83.5 -35q-50 0 -84.5 35t-34.5 84t35 84t84 35zM768 180v-180h-728v700h275v-520h453z" />
    <glyph glyph-name="ldot" unicode="&#x140;" horiz-adv-x="576" 
d="M438 460q49 0 83.5 -35t34.5 -84t-34.5 -84t-83.5 -35q-50 0 -84.5 35t-34.5 84t35 84t84 35zM30 738h246v-738h-246v738z" />
    <glyph glyph-name="Lslash" unicode="&#x141;" horiz-adv-x="835" 
d="M815 180v-180h-729v172l-76 -37v145l76 37v383h275v-250l186 91v-145l-186 -90v-126h454z" />
    <glyph glyph-name="lslash" unicode="&#x142;" horiz-adv-x="419" 
d="M409 561v-135l-76 -36v-390h-247v270l-76 -37v135l76 37v333h247v-213z" />
    <glyph glyph-name="Nacute" unicode="&#x143;" horiz-adv-x="924" 
d="M609 700h275v-700h-290l-279 380v-380h-275v700h289l280 -381v381zM442 905h246l-142 -148h-190z" />
    <glyph glyph-name="nacute" unicode="&#x144;" 
d="M465 547q230 0 230 -218v-329h-246v279q0 51 -17.5 77t-67.5 26t-69 -26.5t-19 -76.5v-279h-246v533h246v-66q59 80 189 80zM343 735h246l-142 -148h-190z" />
    <glyph glyph-name="Ncommaaccent" unicode="&#x145;" horiz-adv-x="924" 
d="M609 700h275v-700h-290l-279 380v-380h-275v700h289l280 -381v381zM363 -66h237l-106 -167h-170z" />
    <glyph glyph-name="ncommaaccent" unicode="&#x146;" 
d="M465 547q230 0 230 -218v-329h-246v279q0 51 -17.5 77t-67.5 26t-69 -26.5t-19 -76.5v-279h-246v533h246v-66q59 80 189 80zM264 -66h237l-106 -167h-170z" />
    <glyph glyph-name="Ncaron" unicode="&#x147;" horiz-adv-x="924" 
d="M609 700h275v-700h-290l-279 380v-380h-275v700h289l280 -381v381zM531 905h209l-148 -148h-260l-148 148h209l69 -77z" />
    <glyph glyph-name="ncaron" unicode="&#x148;" 
d="M465 547q230 0 230 -218v-329h-246v279q0 51 -17.5 77t-67.5 26t-69 -26.5t-19 -76.5v-279h-246v533h246v-66q59 80 189 80zM432 735h209l-148 -148h-260l-148 148h209l69 -77z" />
    <glyph glyph-name="napostrophe" unicode="&#x149;" horiz-adv-x="920" 
d="M67 700h190l-105 -243h-152zM660 547q230 0 230 -218v-329h-247v279q0 51 -17 77t-67 26q-51 0 -70 -26.5t-19 -76.5v-279h-246v533h246v-67q58 81 190 81z" />
    <glyph glyph-name="Eng" unicode="&#x14a;" horiz-adv-x="924" 
d="M609 700h275v-700q0 -126 -56.5 -170.5t-191.5 -44.5q-38 0 -113 5v165q50 -3 68 4.5t18 40.5l-294 388v-388h-275v700h289l280 -370v370z" />
    <glyph glyph-name="eng" unicode="&#x14b;" horiz-adv-x="726" 
d="M466 547q230 0 230 -218v-291q0 -62 -9.5 -101.5t-35.5 -68.5t-74 -41.5t-124 -12.5q-46 0 -94 4v165q55 -1 73 8t18 47v241q0 51 -17.5 77t-67.5 26q-51 0 -69.5 -26.5t-18.5 -76.5v-279h-247v533h247v-67q59 81 189 81z" />
    <glyph glyph-name="Omacron" unicode="&#x14c;" horiz-adv-x="989" 
d="M494 714q94 0 175 -19t150.5 -60t109.5 -114t40 -171q0 -80 -27 -143t-72 -104t-107 -68t-128.5 -38.5t-140.5 -11.5t-140.5 11.5t-128.5 38.5t-106.5 68t-71.5 104t-27 143q0 98 40 171t109 114t150 60t175 19zM494 164q94 0 145 50t51 136t-51 135.5t-145 49.5
t-145 -49.5t-51 -135.5t51 -136t145 -50zM253 891h483v-123h-483v123z" />
    <glyph glyph-name="omacron" unicode="&#x14d;" horiz-adv-x="765" 
d="M383 547q70 0 131 -14t114.5 -44.5t85 -87.5t31.5 -135q0 -77 -31.5 -134t-85 -88t-114.5 -45t-131 -14t-131 14t-115 45t-85.5 88t-31.5 134q0 63 21.5 112.5t56 80.5t82.5 51.5t98 28.5t105 8zM383 142q62 0 93.5 33.5t31.5 90.5t-31.5 91t-93.5 34q-63 0 -94.5 -34
t-31.5 -91t31.5 -90.5t94.5 -33.5zM141 721h483v-123h-483v123z" />
    <glyph glyph-name="Obreve" unicode="&#x14e;" horiz-adv-x="989" 
d="M494 714q94 0 175 -19t150.5 -60t109.5 -114t40 -171q0 -80 -27 -143t-72 -104t-107 -68t-128.5 -38.5t-140.5 -11.5t-140.5 11.5t-128.5 38.5t-106.5 68t-71.5 104t-27 143q0 98 40 171t109 114t150 60t175 19zM494 164q94 0 145 50t51 136t-51 135.5t-145 49.5
t-145 -49.5t-51 -135.5t51 -136t145 -50zM563 905h145q0 -153 -213 -153q-214 0 -214 153h145q6 -49 69 -49q62 0 68 49z" />
    <glyph glyph-name="obreve" unicode="&#x14f;" horiz-adv-x="765" 
d="M383 547q70 0 131 -14t114.5 -44.5t85 -87.5t31.5 -135q0 -77 -31.5 -134t-85 -88t-114.5 -45t-131 -14t-131 14t-115 45t-85.5 88t-31.5 134q0 63 21.5 112.5t56 80.5t82.5 51.5t98 28.5t105 8zM383 142q62 0 93.5 33.5t31.5 90.5t-31.5 91t-93.5 34q-63 0 -94.5 -34
t-31.5 -91t31.5 -90.5t94.5 -33.5zM451 735h145q0 -153 -213 -153q-214 0 -214 153h145q6 -49 69 -49q62 0 68 49z" />
    <glyph glyph-name="Ohungarumlaut" unicode="&#x150;" horiz-adv-x="989" 
d="M494 714q94 0 175 -19t150.5 -60t109.5 -114t40 -171q0 -80 -27 -143t-72 -104t-107 -68t-128.5 -38.5t-140.5 -11.5t-140.5 11.5t-128.5 38.5t-106.5 68t-71.5 104t-27 143q0 98 40 171t109 114t150 60t175 19zM494 164q94 0 145 50t51 136t-51 135.5t-145 49.5
t-145 -49.5t-51 -135.5t51 -136t145 -50zM340 905h246l-142 -148h-190zM627 905h247l-142 -148h-190z" />
    <glyph glyph-name="ohungarumlaut" unicode="&#x151;" horiz-adv-x="765" 
d="M383 547q70 0 131 -14t114.5 -44.5t85 -87.5t31.5 -135q0 -77 -31.5 -134t-85 -88t-114.5 -45t-131 -14t-131 14t-115 45t-85.5 88t-31.5 134q0 63 21.5 112.5t56 80.5t82.5 51.5t98 28.5t105 8zM383 142q62 0 93.5 33.5t31.5 90.5t-31.5 91t-93.5 34q-63 0 -94.5 -34
t-31.5 -91t31.5 -90.5t94.5 -33.5zM208 735h246l-142 -148h-190zM495 735h247l-142 -148h-190z" />
    <glyph glyph-name="OE" unicode="&#x152;" horiz-adv-x="1338" 
d="M845 180h463v-180h-819q-77 0 -138 7t-125.5 29.5t-107.5 60t-70.5 102t-27.5 151.5t27.5 151.5t70.5 101.5t107.5 59.5t126 30t137.5 7.5h810v-180h-454v-80h425v-171h-425v-89zM570 180v340q-127 0 -174 -15q-97 -35 -98 -155q0 -36 8 -63t19.5 -45t34 -30.5t40 -18.5
t51 -9t53.5 -3.5t59 -0.5h7z" />
    <glyph glyph-name="oe" unicode="&#x153;" horiz-adv-x="1233" 
d="M1212 217h-461q22 -85 124 -85q70 0 104 49h225q-17 -70 -68.5 -115.5t-116 -63t-144.5 -17.5q-150 0 -245 64q-93 -64 -248 -64q-70 0 -131 14t-114.5 45t-85 88t-31.5 134q0 78 31.5 135t85 87.5t114.5 44.5t131 14q155 0 247 -63q94 63 241 63q51 0 99 -10t94.5 -35
t80.5 -61.5t53 -94t15 -129.5zM870 400q-94 0 -118 -78h228q-22 78 -110 78zM382 142q63 0 94 33.5t31 90.5t-31 91t-94 34q-62 0 -93.5 -34t-31.5 -91t31.5 -90.5t93.5 -33.5z" />
    <glyph glyph-name="Racute" unicode="&#x154;" horiz-adv-x="892" 
d="M602 0l-136 218h-151v-218h-275v700h526q305 0 305 -236q0 -153 -141 -212l162 -252h-290zM315 519v-122h192q89 0 89 64q0 31 -21.5 44.5t-67.5 13.5h-192zM406 905h246l-142 -148h-190z" />
    <glyph glyph-name="racute" unicode="&#x155;" horiz-adv-x="568" 
d="M471 547q29 0 77 -4v-198h-22q-67 20 -109 20q-81 0 -111 -37.5t-30 -110.5v-217h-246v533h246v-82q54 96 195 96zM259 735h246l-142 -148h-190z" />
    <glyph glyph-name="Rcommaaccent" unicode="&#x156;" horiz-adv-x="892" 
d="M602 0l-136 218h-151v-218h-275v700h526q305 0 305 -236q0 -153 -141 -212l162 -252h-290zM315 519v-122h192q89 0 89 64q0 31 -21.5 44.5t-67.5 13.5h-192zM357 -66h237l-106 -167h-170z" />
    <glyph glyph-name="rcommaaccent" unicode="&#x157;" horiz-adv-x="568" 
d="M471 547q29 0 77 -4v-198h-22q-67 20 -109 20q-81 0 -111 -37.5t-30 -110.5v-217h-246v533h246v-82q54 96 195 96zM34 -66h237l-106 -167h-170z" />
    <glyph glyph-name="Rcaron" unicode="&#x158;" horiz-adv-x="892" 
d="M602 0l-136 218h-151v-218h-275v700h526q305 0 305 -236q0 -153 -141 -212l162 -252h-290zM315 519v-122h192q89 0 89 64q0 31 -21.5 44.5t-67.5 13.5h-192zM505 905h209l-148 -148h-260l-148 148h209l69 -77z" />
    <glyph glyph-name="rcaron" unicode="&#x159;" horiz-adv-x="568" 
d="M470 547q29 0 77 -4v-198h-22q-68 20 -109 20q-81 0 -111 -37.5t-30 -110.5v-217h-246v533h246v-82q54 96 195 96zM357 735h209l-148 -148h-260l-148 148h209l69 -77z" />
    <glyph glyph-name="Sacute" unicode="&#x15a;" horiz-adv-x="889" 
d="M479 444q189 -19 252 -37q112 -33 138 -116q10 -30 10 -69q0 -132 -109.5 -184.5t-329.5 -52.5q-229 0 -329.5 61.5t-100.5 180.5h287q0 -40 36.5 -56.5t122.5 -16.5q69 0 99.5 11t30.5 36q0 24 -30 32.5t-165 25.5q-35 4 -55 7q-169 22 -238 68.5t-69 151.5
q0 116 99 172t302 56q403 0 403 -228h-278q0 31 -29.5 45.5t-97.5 14.5q-127 0 -127 -48q0 -25 31.5 -33.5t126.5 -18.5q13 -1 20 -2zM414 905h246l-142 -148h-190z" />
    <glyph glyph-name="sacute" unicode="&#x15b;" horiz-adv-x="727" 
d="M401 343q154 -18 198 -31q95 -27 113 -99q5 -20 5 -43q0 -53 -25 -90t-74 -57.5t-110 -29t-144 -8.5q-354 0 -354 188h253q0 -19 9 -31t27 -17t34 -6.5t41 -1.5q91 0 91 38q0 6 -2 11t-6.5 9t-10 6.5t-16 5t-20 4t-25 3t-29.5 3l-35.5 4t-40.5 4.5q-131 17 -190 50
t-59 115q0 177 323 177q166 0 249 -46.5t83 -129.5h-240q0 45 -94 45q-89 0 -89 -34q0 -7 2.5 -11.5t9 -8t13.5 -5.5t20.5 -4t24.5 -3l31.5 -3t36.5 -4zM343 735h246l-142 -148h-190z" />
    <glyph glyph-name="Scircumflex" unicode="&#x15c;" horiz-adv-x="889" 
d="M479 444q189 -19 252 -37q112 -33 138 -116q10 -30 10 -69q0 -132 -109.5 -184.5t-329.5 -52.5q-229 0 -329.5 61.5t-100.5 180.5h287q0 -40 36.5 -56.5t122.5 -16.5q69 0 99.5 11t30.5 36q0 24 -30 32.5t-165 25.5q-35 4 -55 7q-169 22 -238 68.5t-69 151.5
q0 116 99 172t302 56q403 0 403 -228h-278q0 31 -29.5 45.5t-97.5 14.5q-127 0 -127 -48q0 -25 31.5 -33.5t126.5 -18.5q13 -1 20 -2zM574 905l149 -148h-210l-68 77l-69 -77h-210l149 148h259z" />
    <glyph glyph-name="scircumflex" unicode="&#x15d;" horiz-adv-x="727" 
d="M401 343q154 -18 198 -31q95 -27 113 -99q5 -20 5 -43q0 -53 -25 -90t-74 -57.5t-110 -29t-144 -8.5q-354 0 -354 188h253q0 -19 9 -31t27 -17t34 -6.5t41 -1.5q91 0 91 38q0 6 -2 11t-6.5 9t-10 6.5t-16 5t-20 4t-25 3t-29.5 3l-35.5 4t-40.5 4.5q-131 17 -190 50
t-59 115q0 177 323 177q166 0 249 -46.5t83 -129.5h-240q0 45 -94 45q-89 0 -89 -34q0 -7 2.5 -11.5t9 -8t13.5 -5.5t20.5 -4t24.5 -3l31.5 -3t36.5 -4zM493 735l149 -148h-210l-68 77l-69 -77h-210l149 148h259z" />
    <glyph glyph-name="Scedilla" unicode="&#x15e;" horiz-adv-x="889" 
d="M879 222q0 -123 -94.5 -176.5t-284.5 -59.5l-24 -31q37 6 75 7.5t67.5 -21t29.5 -66.5q0 -107 -189 -107q-61 0 -130 15v82q43 -17 90 -17q62 0 62 27q0 6 -2.5 10t-8 6.5t-12 4t-15.5 1.5t-17 -0.5t-19 -1.5t-18.5 -2l-18.5 -2.5t-16 -2.5v54l33 44q-200 7 -288.5 68
t-88.5 173h287q0 -40 36.5 -56.5t121.5 -16.5q70 0 100.5 11t30.5 36q0 13 -6.5 20.5t-25 13t-56.5 11t-96 12.5l-66 8q-169 22 -238 68.5t-69 151.5q0 116 98.5 172t302.5 56q403 0 403 -228h-278q0 31 -30 45.5t-98 14.5q-126 0 -126 -48q0 -26 34 -34.5t144 -19.5
q188 -19 250 -37q113 -32 140 -114q10 -31 10 -71z" />
    <glyph glyph-name="scedilla" unicode="&#x15f;" horiz-adv-x="727" 
d="M717 170q0 -96 -80 -138t-231 -46l-23 -31q37 6 75 7.5t67.5 -20.5t29.5 -66q0 -108 -189 -108q-64 0 -130 16v81q42 -17 90 -17q62 0 62 27q0 6 -2.5 10t-8 6.5t-12 4t-15.5 1.5t-17 -0.5t-19 -1.5t-18.5 -2l-18.5 -2.5t-16 -2.5v54l33 45q-284 17 -284 186h253
q0 -19 9 -31t27 -17t34 -6.5t41 -1.5q91 0 91 38q0 8 -3 14t-11.5 10t-17 7t-26.5 5.5t-33.5 4t-43 4.5t-50.5 6q-131 16 -190 49t-59 115q0 177 323 177q166 0 249.5 -46.5t83.5 -129.5h-241q0 45 -94 45q-89 0 -89 -33q0 -7 2.5 -12t9 -8.5t13.5 -5.5t20.5 -4t24.5 -3
l31.5 -3t36.5 -4l27 -3q41 -4 61 -6.5t53.5 -8t50.5 -11t41 -14.5t36 -20.5t24.5 -27t17.5 -36t5 -46.5z" />
    <glyph glyph-name="Scaron" unicode="&#x160;" horiz-adv-x="889" 
d="M479 444q189 -19 252 -37q112 -33 138 -116q10 -30 10 -69q0 -132 -109.5 -184.5t-329.5 -52.5q-229 0 -329.5 61.5t-100.5 180.5h287q0 -40 36.5 -56.5t122.5 -16.5q69 0 99.5 11t30.5 36q0 24 -30 32.5t-165 25.5q-35 4 -55 7q-169 22 -238 68.5t-69 151.5
q0 116 99 172t302 56q403 0 403 -228h-278q0 31 -29.5 45.5t-97.5 14.5q-127 0 -127 -48q0 -25 31.5 -33.5t126.5 -18.5q13 -1 20 -2zM513 905h209l-148 -148h-260l-148 148h209l69 -77z" />
    <glyph glyph-name="scaron" unicode="&#x161;" horiz-adv-x="727" 
d="M401 343q154 -18 198 -31q95 -27 113 -99q5 -20 5 -43q0 -53 -25 -90t-74 -57.5t-110 -29t-144 -8.5q-354 0 -354 188h253q0 -19 9 -31t27 -17t34 -6.5t41 -1.5q91 0 91 38q0 6 -2 11t-6.5 9t-10 6.5t-16 5t-20 4t-25 3t-29.5 3l-35.5 4t-40.5 4.5q-131 17 -190 50
t-59 115q0 177 323 177q166 0 249 -46.5t83 -129.5h-240q0 45 -94 45q-89 0 -89 -34q0 -7 2.5 -11.5t9 -8t13.5 -5.5t20.5 -4t24.5 -3l31.5 -3t36.5 -4zM432 735h209l-148 -148h-260l-148 148h209l69 -77z" />
    <glyph glyph-name="Tcommaaccent" unicode="&#x162;" horiz-adv-x="845" 
d="M825 700v-181h-265v-519h-275v519h-265v181h805zM303 -66h237l-106 -167h-170z" />
    <glyph glyph-name="tcommaaccent" unicode="&#x163;" horiz-adv-x="541" 
d="M511 400h-156v-178q0 -49 27 -59t129 -5v-159q-66 -8 -111 -8q-168 0 -229.5 45.5t-61.5 185.5v178h-99v133h99v138h246v-138h156v-133zM181 -66h237l-106 -167h-170z" />
    <glyph glyph-name="Tcaron" unicode="&#x164;" horiz-adv-x="845" 
d="M825 700v-181h-265v-519h-275v519h-265v181h805zM491 905h209l-148 -148h-260l-148 148h209l69 -77z" />
    <glyph glyph-name="tcaron" unicode="&#x165;" horiz-adv-x="541" 
d="M511 400h-156v-178q0 -49 27 -59t129 -5v-159q-66 -8 -111 -8q-168 0 -229.5 45.5t-61.5 185.5v178h-99v133h99v138h246v-138h156v-133zM495 830h190l-105 -243h-151z" />
    <glyph glyph-name="Tbar" unicode="&#x166;" horiz-adv-x="845" 
d="M825 520h-265v-104h140v-133h-140v-283h-275v283h-140v133h140v104h-265v180h805v-180z" />
    <glyph glyph-name="tbar" unicode="&#x167;" horiz-adv-x="541" 
d="M511 400h-156v-38h129v-95h-129v-45q0 -48 27.5 -58.5t128.5 -5.5v-159q-66 -8 -111 -8q-168 0 -229.5 45.5t-61.5 185.5v45h-99v95h99v38h-99v133h99v138h246v-138h156v-133z" />
    <glyph glyph-name="Utilde" unicode="&#x168;" horiz-adv-x="896" 
d="M581 700h275v-412q0 -80 -22.5 -137t-57.5 -88.5t-92 -49.5t-109 -23t-127 -5q-52 0 -91 2.5t-84 10t-77 20.5t-63 35.5t-50.5 54t-31 77t-11.5 103.5v412h275v-399q0 -75 30.5 -106t102.5 -31t102.5 30.5t30.5 106.5v399zM541 910h141q0 -164 -111 -164q-54 0 -114 22
t-74 22q-26 0 -26 -38h-142q0 163 111 163q53 0 113.5 -22t77.5 -22q12 0 17.5 7t6 13t0.5 19z" />
    <glyph glyph-name="utilde" unicode="&#x169;" 
d="M260 -14q-230 0 -230 218v329h246v-279q0 -51 17.5 -77t67.5 -26t69 26.5t19 76.5v279h246v-533h-246v66q-59 -80 -189 -80zM456 740h141q0 -164 -111 -164q-54 0 -114 22t-74 22q-26 0 -26 -38h-142q0 163 111 163q53 0 113.5 -22t77.5 -22q12 0 17.5 7t6 13t0.5 19z
" />
    <glyph glyph-name="Umacron" unicode="&#x16a;" horiz-adv-x="896" 
d="M581 700h275v-412q0 -80 -22.5 -137t-57.5 -88.5t-92 -49.5t-109 -23t-127 -5q-52 0 -91 2.5t-84 10t-77 20.5t-63 35.5t-50.5 54t-31 77t-11.5 103.5v412h275v-399q0 -75 30.5 -106t102.5 -31t102.5 30.5t30.5 106.5v399zM207 891h483v-123h-483v123z" />
    <glyph glyph-name="umacron" unicode="&#x16b;" 
d="M260 -14q-230 0 -230 218v329h246v-279q0 -51 17.5 -77t67.5 -26t69 26.5t19 76.5v279h246v-533h-246v66q-59 -80 -189 -80zM122 721h483v-123h-483v123z" />
    <glyph glyph-name="Ubreve" unicode="&#x16c;" horiz-adv-x="896" 
d="M581 700h275v-412q0 -80 -22.5 -137t-57.5 -88.5t-92 -49.5t-109 -23t-127 -5q-52 0 -91 2.5t-84 10t-77 20.5t-63 35.5t-50.5 54t-31 77t-11.5 103.5v412h275v-399q0 -75 30.5 -106t102.5 -31t102.5 30.5t30.5 106.5v399zM517 905h145q0 -153 -213 -153q-214 0 -214 153
h145q6 -49 69 -49q62 0 68 49z" />
    <glyph glyph-name="ubreve" unicode="&#x16d;" 
d="M260 -14q-230 0 -230 218v329h246v-279q0 -51 17.5 -77t67.5 -26t69 26.5t19 76.5v279h246v-533h-246v66q-59 -80 -189 -80zM432 735h145q0 -153 -213 -153q-214 0 -214 153h145q6 -49 69 -49q62 0 68 49z" />
    <glyph glyph-name="Uring" unicode="&#x16e;" horiz-adv-x="896" 
d="M581 700h275v-412q0 -80 -22.5 -137t-57.5 -88.5t-92 -49.5t-109 -23t-127 -5q-52 0 -91 2.5t-84 10t-77 20.5t-63 35.5t-50.5 54t-31 77t-11.5 103.5v412h275v-399q0 -75 30.5 -106t102.5 -31t102.5 30.5t30.5 106.5v399zM448 1018q61 0 100.5 -40.5t39.5 -100.5
t-39.5 -100t-100.5 -40q-60 0 -100 40t-40 100t40 100.5t100 40.5zM448 832q21 0 33.5 12.5t12.5 32.5q0 21 -12.5 33.5t-33.5 12.5t-33 -12.5t-12 -33.5q0 -20 12 -32.5t33 -12.5z" />
    <glyph glyph-name="uring" unicode="&#x16f;" 
d="M260 -14q-230 0 -230 218v329h246v-279q0 -51 17.5 -77t67.5 -26t69 26.5t19 76.5v279h246v-533h-246v66q-59 -80 -189 -80zM363 848q61 0 100.5 -40.5t39.5 -100.5t-39.5 -100t-100.5 -40q-60 0 -100 40t-40 100t40 100.5t100 40.5zM363 662q21 0 33.5 12.5t12.5 32.5
q0 21 -12.5 33.5t-33.5 12.5t-33 -12.5t-12 -33.5q0 -20 12 -32.5t33 -12.5z" />
    <glyph glyph-name="Uhungarumlaut" unicode="&#x170;" horiz-adv-x="896" 
d="M581 700h275v-412q0 -80 -22.5 -137t-57.5 -88.5t-92 -49.5t-109 -23t-127 -5q-52 0 -91 2.5t-84 10t-77 20.5t-63 35.5t-50.5 54t-31 77t-11.5 103.5v412h275v-399q0 -75 30.5 -106t102.5 -31t102.5 30.5t30.5 106.5v399zM284 905h246l-142 -148h-190zM571 905h247
l-142 -148h-190z" />
    <glyph glyph-name="uhungarumlaut" unicode="&#x171;" 
d="M260 -14q-230 0 -230 218v329h246v-279q0 -51 17.5 -77t67.5 -26t69 26.5t19 76.5v279h246v-533h-246v66q-59 -80 -189 -80zM189 735h246l-142 -148h-190zM476 735h247l-142 -148h-190z" />
    <glyph glyph-name="Uogonek" unicode="&#x172;" horiz-adv-x="896" 
d="M581 700h275v-412q0 -135 -58 -201.5t-164 -87.5q-87 -26 -87 -65q0 -24 34.5 -25.5t58.5 10.5v-100q-51 -16 -115 -16q-167 0 -167 87q0 56 70 95q-58 1 -101.5 5t-91 15t-80.5 32.5t-60.5 54t-41 82t-13.5 114.5v412h275v-399q0 -75 30.5 -106t102.5 -31t102.5 30.5
t30.5 106.5v399z" />
    <glyph glyph-name="uogonek" unicode="&#x173;" 
d="M602 -66q0 -24 34 -25.5t59 10.5v-100q-51 -16 -115 -16q-167 0 -167 87q0 65 98 110h-62v66q-59 -80 -189 -80q-230 0 -230 218v329h246v-279q0 -51 17.5 -77t67.5 -26t69 26.5t19 76.5v279h246v-533q-93 -28 -93 -66z" />
    <glyph glyph-name="Wcircumflex" unicode="&#x174;" horiz-adv-x="1254" 
d="M969 700h285l-229 -700h-293l-105 386l-105 -386h-293l-229 700h285l114 -419l114 419h228l114 -419zM757 905l149 -148h-210l-68 77l-69 -77h-210l149 148h259z" />
    <glyph glyph-name="wcircumflex" unicode="&#x175;" horiz-adv-x="1065" 
d="M812 533h253l-220 -533h-220l-98 273l-98 -273h-219l-220 533h253l87 -263l95 263h205l94 -263zM657 735l149 -148h-210l-68 77l-69 -77h-210l149 148h259z" />
    <glyph glyph-name="Ycircumflex" unicode="&#x176;" horiz-adv-x="904" 
d="M613 700h301l-324 -452v-248h-276v248l-324 452h301l161 -261zM582 905l149 -148h-210l-68 77l-69 -77h-210l149 148h259z" />
    <glyph glyph-name="ycircumflex" unicode="&#x177;" horiz-adv-x="720" 
d="M467 533h253l-320 -700h-250l95 171l-255 529h253l116 -288zM489 735l149 -148h-210l-68 77l-69 -77h-210l149 148h259z" />
    <glyph glyph-name="Ydieresis" unicode="&#x178;" horiz-adv-x="904" 
d="M613 700h301l-324 -452v-248h-276v248l-324 452h301l161 -261zM325 939q38 0 65.5 -27.5t27.5 -65.5q0 -39 -27.5 -66t-65.5 -27q-39 0 -66.5 27t-27.5 66q0 38 27.5 65.5t66.5 27.5zM580 939q38 0 65.5 -27.5t27.5 -65.5q0 -39 -27.5 -66t-65.5 -27q-39 0 -66.5 27
t-27.5 66q0 38 27.5 65.5t66.5 27.5z" />
    <glyph glyph-name="Zacute" unicode="&#x179;" horiz-adv-x="864" 
d="M421 180h423v-180h-824v142l413 377h-394v181h795v-143zM412 905h246l-142 -148h-190z" />
    <glyph glyph-name="zacute" unicode="&#x17a;" horiz-adv-x="721" 
d="M370 151h321v-151h-661v142l312 239h-292v152h631v-142zM350 735h246l-142 -148h-190z" />
    <glyph glyph-name="Zdotaccent" unicode="&#x17b;" horiz-adv-x="864" 
d="M421 180h423v-180h-824v142l413 377h-394v181h795v-143zM451 939q39 0 66.5 -27.5t27.5 -65.5q0 -39 -27.5 -66t-66.5 -27q-38 0 -65.5 27t-27.5 66q0 38 27.5 65.5t65.5 27.5z" />
    <glyph glyph-name="zdotaccent" unicode="&#x17c;" horiz-adv-x="721" 
d="M370 151h321v-151h-661v142l312 239h-292v152h631v-142zM380 769q39 0 66.5 -27.5t27.5 -65.5q0 -39 -27.5 -66t-66.5 -27q-38 0 -65.5 27t-27.5 66q0 38 27.5 65.5t65.5 27.5z" />
    <glyph glyph-name="Zcaron" unicode="&#x17d;" horiz-adv-x="864" 
d="M421 180h423v-180h-824v142l413 377h-394v181h795v-143zM521 905h209l-148 -148h-260l-148 148h209l69 -77z" />
    <glyph glyph-name="zcaron" unicode="&#x17e;" horiz-adv-x="721" 
d="M370 151h321v-151h-661v142l312 239h-292v152h631v-142zM439 735h209l-148 -148h-260l-148 148h209l69 -77z" />
    <glyph glyph-name="longs" unicode="&#x17f;" horiz-adv-x="502" 
d="M492 589q-86 3 -108 -2q-40 -11 -40 -54v-533h-246v400h-88v133h88q0 114 60.5 159.5t209.5 45.5q35 0 124 -7v-142z" />
    <glyph glyph-name="AEacute" unicode="&#x1fc;" horiz-adv-x="1365" 
d="M1335 180v-180h-738v99h-255l-57 -99h-285l447 700h879v-180h-454v-80h425v-171h-425v-89h463zM582 520l-137 -241h152v241h-15zM747 905h246l-142 -148h-190z" />
    <glyph glyph-name="aeacute" unicode="&#x1fd;" horiz-adv-x="1181" 
d="M1160 217h-460q22 -85 124 -85q70 0 104 49h224q-16 -70 -67.5 -115.5t-116 -63t-144.5 -17.5q-181 0 -281 91q-45 -44 -117.5 -67.5t-154.5 -23.5q-116 0 -183.5 41t-67.5 121q0 50 17.5 83.5t63.5 59.5t132 35t215 3v14q0 38 -18.5 55.5t-69.5 17.5q-82 0 -91 -44h-220
q14 94 92.5 135t218.5 41q172 0 243 -48q88 48 216 48q65 0 124 -17.5t111.5 -54t81.5 -103t24 -155.5zM448 146v58q-103 5 -147.5 -4.5t-44.5 -48.5q0 -48 70 -48q72 0 122 43zM701 322h228q-22 78 -110 78q-95 0 -118 -78zM580 735h246l-142 -148h-190z" />
    <glyph glyph-name="Oslashacute" unicode="&#x1fe;" horiz-adv-x="988" 
d="M860 605q108 -95 108 -255q0 -80 -27 -143t-71.5 -104t-106.5 -68t-128.5 -38.5t-140.5 -11.5q-146 0 -255 44l-73 -68l-84 90l46 44q-108 93 -108 255q0 98 40 171t109 114t150 60t175 19q145 0 255 -43l73 68l84 -91zM298 350q0 -47 15 -83l273 252q-38 16 -92 16
q-94 0 -145 -49.5t-51 -135.5zM494 164q94 0 145 50t51 136q0 47 -15 83l-273 -253q42 -16 92 -16zM474 905h246l-142 -148h-190z" />
    <glyph glyph-name="oslashacute" unicode="&#x1ff;" horiz-adv-x="764" 
d="M661 464q83 -72 83 -198q0 -77 -31.5 -134t-85 -88t-114.5 -45t-131 -14q-116 0 -200 36l-66 -61l-60 65l47 44q-83 72 -83 197q0 78 31.5 135t85 87.5t114.5 44.5t131 14q116 0 200 -35l66 61l61 -65zM257 266q0 -28 7 -48l176 163q-27 10 -58 10q-62 0 -93.5 -34
t-31.5 -91zM382 142q63 0 94 33.5t31 90.5q0 28 -7 49l-176 -163q23 -10 58 -10zM362 735h246l-142 -148h-190z" />
    <glyph glyph-name="Scommaaccent" unicode="&#x218;" horiz-adv-x="889" 
d="M479 444q189 -19 252 -37q112 -33 138 -116q10 -30 10 -69q0 -132 -109.5 -184.5t-329.5 -52.5q-229 0 -329.5 61.5t-100.5 180.5h287q0 -40 36.5 -56.5t122.5 -16.5q69 0 99.5 11t30.5 36q0 24 -30 32.5t-165 25.5q-35 4 -55 7q-169 22 -238 68.5t-69 151.5
q0 116 99 172t302 56q403 0 403 -228h-278q0 31 -29.5 45.5t-97.5 14.5q-127 0 -127 -48q0 -25 31.5 -33.5t126.5 -18.5q13 -1 20 -2zM335 -66h237l-106 -167h-170z" />
    <glyph glyph-name="scommaaccent" unicode="&#x219;" horiz-adv-x="727" 
d="M401 343q154 -18 198 -31q95 -27 113 -99q5 -20 5 -43q0 -53 -25 -90t-74 -57.5t-110 -29t-144 -8.5q-354 0 -354 188h253q0 -19 9 -31t27 -17t34 -6.5t41 -1.5q91 0 91 38q0 6 -2 11t-6.5 9t-10 6.5t-16 5t-20 4t-25 3t-29.5 3l-35.5 4t-40.5 4.5q-131 17 -190 50
t-59 115q0 177 323 177q166 0 249 -46.5t83 -129.5h-240q0 45 -94 45q-89 0 -89 -34q0 -7 2.5 -11.5t9 -8t13.5 -5.5t20.5 -4t24.5 -3l31.5 -3t36.5 -4zM264 -66h237l-106 -167h-170z" />
    <glyph glyph-name="circumflex" unicode="&#x2c6;" horiz-adv-x="637" 
d="M448 705l149 -148h-210l-68 77l-69 -77h-210l149 148h259z" />
    <glyph glyph-name="caron" unicode="&#x2c7;" horiz-adv-x="636" 
d="M387 705h209l-148 -148h-260l-148 148h209l69 -77z" />
    <glyph glyph-name="breve" unicode="&#x2d8;" horiz-adv-x="507" 
d="M322 705h145q0 -153 -213 -153q-214 0 -214 153h145q6 -49 69 -49q62 0 68 49z" />
    <glyph glyph-name="dotaccent" unicode="&#x2d9;" horiz-adv-x="267" 
d="M133 739q39 0 66.5 -27.5t27.5 -65.5q0 -39 -27.5 -66t-66.5 -27q-38 0 -65.5 27t-27.5 66q0 38 27.5 65.5t65.5 27.5z" />
    <glyph glyph-name="ring" unicode="&#x2da;" horiz-adv-x="360" 
d="M180 818q61 0 100.5 -40.5t39.5 -100.5t-39.5 -100t-100.5 -40q-60 0 -100 40t-40 100t40 100.5t100 40.5zM180 632q21 0 33.5 12.5t12.5 32.5q0 21 -12.5 33.5t-33.5 12.5t-33 -12.5t-12 -33.5q0 -20 12 -32.5t33 -12.5z" />
    <glyph glyph-name="ogonek" unicode="&#x2db;" horiz-adv-x="362" 
d="M229 -66q0 -24 34 -25.5t59 10.5v-100q-51 -16 -115 -16q-167 0 -167 87q0 65 98 110h184q-93 -28 -93 -66z" />
    <glyph glyph-name="tilde" unicode="&#x2dc;" horiz-adv-x="547" 
d="M366 710h141q0 -164 -111 -164q-54 0 -114 22t-74 22q-26 0 -26 -38h-142q0 163 111 163q53 0 113.5 -22t77.5 -22q12 0 17.5 7t6 13t0.5 19z" />
    <glyph glyph-name="hungarumlaut" unicode="&#x2dd;" horiz-adv-x="700" 
d="M126 705h246l-142 -148h-190zM413 705h247l-142 -148h-190z" />
    <glyph glyph-name="Wgrave" unicode="&#x1e80;" horiz-adv-x="1254" 
d="M969 700h285l-229 -700h-293l-105 386l-105 -386h-293l-229 700h285l114 -419l114 419h228l114 -419zM638 905l85 -148h-190l-142 148h247z" />
    <glyph glyph-name="wgrave" unicode="&#x1e81;" horiz-adv-x="1065" 
d="M812 533h253l-220 -533h-220l-98 273l-98 -273h-219l-220 533h253l87 -263l95 263h205l94 -263zM537 735l85 -148h-190l-142 148h247z" />
    <glyph glyph-name="Wacute" unicode="&#x1e82;" horiz-adv-x="1254" 
d="M969 700h285l-229 -700h-293l-105 386l-105 -386h-293l-229 700h285l114 -419l114 419h228l114 -419zM617 905h246l-142 -148h-190z" />
    <glyph glyph-name="wacute" unicode="&#x1e83;" horiz-adv-x="1065" 
d="M812 533h253l-220 -533h-220l-98 273l-98 -273h-219l-220 533h253l87 -263l95 263h205l94 -263zM522 735h246l-142 -148h-190z" />
    <glyph glyph-name="Wdieresis" unicode="&#x1e84;" horiz-adv-x="1254" 
d="M969 700h285l-229 -700h-293l-105 386l-105 -386h-293l-229 700h285l114 -419l114 419h228l114 -419zM500 939q38 0 65.5 -27.5t27.5 -65.5q0 -39 -27.5 -66t-65.5 -27q-39 0 -66.5 27t-27.5 66q0 38 27.5 65.5t66.5 27.5zM755 939q38 0 65.5 -27.5t27.5 -65.5
q0 -39 -27.5 -66t-65.5 -27q-39 0 -66.5 27t-27.5 66q0 38 27.5 65.5t66.5 27.5z" />
    <glyph glyph-name="wdieresis" unicode="&#x1e85;" horiz-adv-x="1065" 
d="M812 533h253l-220 -533h-220l-98 273l-98 -273h-219l-220 533h253l87 -263l95 263h205l94 -263zM400 769q38 0 65.5 -27.5t27.5 -65.5q0 -39 -27.5 -66t-65.5 -27q-39 0 -66.5 27t-27.5 66q0 38 27.5 65.5t66.5 27.5zM655 769q38 0 65.5 -27.5t27.5 -65.5
q0 -39 -27.5 -66t-65.5 -27q-39 0 -66.5 27t-27.5 66q0 38 27.5 65.5t66.5 27.5z" />
    <glyph glyph-name="Ygrave" unicode="&#x1ef2;" horiz-adv-x="904" 
d="M613 700h301l-324 -452v-248h-276v248l-324 452h301l161 -261zM473 905l85 -148h-190l-142 148h247z" />
    <glyph glyph-name="ygrave" unicode="&#x1ef3;" horiz-adv-x="720" 
d="M467 533h253l-320 -700h-250l95 171l-255 529h253l116 -288zM366 735l85 -148h-190l-142 148h247z" />
    <glyph glyph-name="endash" unicode="&#x2013;" horiz-adv-x="636" 
d="M40 362h556v-161h-556v161z" />
    <glyph glyph-name="emdash" unicode="&#x2014;" horiz-adv-x="740" 
d="M40 362h660v-161h-660v161z" />
    <glyph glyph-name="quoteleft" unicode="&#x2018;" horiz-adv-x="296" 
d="M125 700h151l-66 -243h-190z" />
    <glyph glyph-name="quoteright" unicode="&#x2019;" horiz-adv-x="296" 
d="M86 700h190l-105 -243h-151z" />
    <glyph glyph-name="quotesinglbase" unicode="&#x201a;" horiz-adv-x="296" 
d="M86 147h190l-105 -243h-151z" />
    <glyph glyph-name="quotedblleft" unicode="&#x201c;" horiz-adv-x="519" 
d="M348 700h151l-66 -243h-190zM124 700h152l-66 -243h-190z" />
    <glyph glyph-name="quotedblright" unicode="&#x201d;" horiz-adv-x="520" 
d="M87 700h189l-104 -243h-152zM310 700h190l-105 -243h-151z" />
    <glyph glyph-name="quotedblbase" unicode="&#x201e;" horiz-adv-x="520" 
d="M87 147h189l-104 -243h-152zM310 147h190l-105 -243h-151z" />
    <glyph glyph-name="dagger" unicode="&#x2020;" horiz-adv-x="662" 
d="M642 500v-171h-207v-515h-209v515h-206v171h206v200h209v-200h207z" />
    <glyph glyph-name="daggerdbl" unicode="&#x2021;" horiz-adv-x="662" 
d="M642 329h-206v-144h206v-171h-206v-200h-209v200h-207v171h207v144h-207v171h207v200h209v-200h206v-171z" />
    <glyph glyph-name="bullet" unicode="&#x2022;" horiz-adv-x="421" 
d="M210 185q-81 0 -130.5 44t-49.5 121t49.5 121t130.5 44t131 -44t50 -121t-50 -121t-131 -44z" />
    <glyph glyph-name="ellipsis" unicode="&#x2026;" horiz-adv-x="931" 
d="M149 223q49 0 83.5 -35t34.5 -84t-34.5 -84t-83.5 -35t-84 34.5t-35 84.5q0 49 35 84t84 35zM466 223q49 0 83.5 -35t34.5 -84t-34.5 -84t-83.5 -35q-50 0 -84.5 34.5t-34.5 84.5q0 49 35 84t84 35zM783 223q49 0 83.5 -35t34.5 -84t-34.5 -84t-83.5 -35t-84 34.5
t-35 84.5q0 49 35 84t84 35z" />
    <glyph glyph-name="perthousand" unicode="&#x2030;" horiz-adv-x="1627" 
d="M499 513q0 -200 -239 -200q-240 0 -240 200q0 201 240 201q239 0 239 -201zM260 424q66 0 66 89q0 90 -66 90q-67 0 -67 -90q0 -89 67 -89zM865 387q114 0 176.5 -49.5t62.5 -151.5t-62.5 -151.5t-176.5 -49.5q-115 0 -177.5 49.5t-62.5 151.5t62.5 151.5t177.5 49.5z
M865 96q66 0 66 90t-66 90q-67 0 -67 -90t67 -90zM1367 387q115 0 177.5 -49.5t62.5 -151.5t-62.5 -151.5t-177.5 -49.5q-114 0 -176.5 49.5t-62.5 151.5t62.5 151.5t176.5 49.5zM1367 96q67 0 67 90t-67 90q-66 0 -66 -90t66 -90zM719 700h132l-446 -700h-131z" />
    <glyph glyph-name="guilsinglleft" unicode="&#x2039;" horiz-adv-x="258" 
d="M228 541v-191l-101 -69l101 -68v-191l-208 158v203z" />
    <glyph glyph-name="guilsinglright" unicode="&#x203a;" horiz-adv-x="259" 
d="M30 541l209 -158v-203l-209 -158v191l102 68l-102 69v191z" />
    <glyph glyph-name="fraction" unicode="&#x2044;" horiz-adv-x="519" 
d="M326 738h193l-327 -776h-192z" />
    <glyph glyph-name="Euro" unicode="&#x20ac;" horiz-adv-x="1015" 
d="M545 166q146 0 170 132h280q-11 -84 -51.5 -145.5t-103 -97t-136 -52t-159.5 -16.5q-78 0 -146.5 13.5t-129 42.5t-104 80t-62.5 119h-93v95h80q0 3 -0.5 8t-0.5 7t0.5 7t0.5 7h-80v95h93q19 68 62.5 119t104 80t129 42.5t146.5 13.5q86 0 159.5 -16.5t136 -51.5t103 -97
t51.5 -146h-280q-23 132 -170 132q-111 0 -153 -76h254v-95h-278v-14v-15h278v-95h-254q42 -76 153 -76z" />
    <glyph glyph-name="ruble" unicode="&#x20bd;" horiz-adv-x="950" 
d="M606 208h-222v-28h282v-95h-282v-85h-275v85h-79v95h79v28h-79v179h79v313h516q305 0 305 -242q0 -134 -84.5 -192t-239.5 -58zM384 520v-133h183q88 0 88 69q0 64 -88 64h-183z" />
    <glyph glyph-name="bitcoin" unicode="&#x20bf;" horiz-adv-x="914" 
d="M894 207q0 -110 -69.5 -155t-220.5 -50v-114h-95v114h-95v-114h-95v114h-279v700h279v113h95v-113h95v113h95v-114q132 -2 197.5 -40t65.5 -138q0 -114 -124 -152v-2q151 -39 151 -162zM532 531h-217v-94h217q67 0 67 49q0 23 -15 34t-52 11zM544 172q40 0 55.5 14
t15.5 40t-15.5 37.5t-55.5 11.5h-229v-103h229z" />
    <glyph glyph-name="afii61352" unicode="&#x2116;" horiz-adv-x="1449" 
d="M939 145v142h480v-142h-480zM1179 351q-240 0 -240 181q0 182 240 182t240 -182q0 -181 -240 -181zM1179 603q-35 0 -50.5 -17t-15.5 -54q0 -36 15.5 -53t50.5 -17t51 17t16 53q0 37 -16 54t-51 17zM609 318v382h275v-700h-299l-270 381v-381h-275v700h299z" />
    <glyph glyph-name="minus" unicode="&#x2212;" horiz-adv-x="578" 
d="M40 400h498v-161h-498v161z" />
    <glyph glyph-name="approxequal" unicode="&#x2248;" horiz-adv-x="561" 
d="M415 474q35 0 58.5 12.5t47.5 40.5v-166q-41 -50 -116 -50q-46 0 -127 39.5t-124 39.5q-61 0 -114 -61v166q20 20 34 30.5t38 20t52 9.5q53 0 130.5 -40.5t120.5 -40.5zM415 245q61 0 106 53v-166q-40 -49 -116 -49q-46 0 -127 39t-124 39q-62 0 -114 -60v166
q21 20 34.5 30.5t37.5 20t52 9.5q53 0 130.5 -41t120.5 -41z" />
    <glyph glyph-name="notequal" unicode="&#x2260;" horiz-adv-x="578" 
d="M538 343h-179l-30 -47h209v-143h-296l-55 -88h-110l55 88h-92v143h180l29 47h-209v142h297l55 89h109l-54 -89h91v-142z" />
    <glyph glyph-name="lessequal" unicode="&#x2264;" horiz-adv-x="560" 
d="M40 0v133h480v-133h-480zM520 583v-143l-264 -79l264 -80v-143l-480 163v119z" />
    <glyph glyph-name="greaterequal" unicode="&#x2265;" horiz-adv-x="559" 
d="M40 0v133h479v-133h-479zM40 583l479 -163v-119l-479 -163v143l264 80l-264 79v143z" />
    <glyph glyph-name="commaaccent" unicode="&#xf6c3;" horiz-adv-x="356" 
d="M79 -66h237l-106 -167h-170z" />
    </font>
</defs>
</svg>
